<mxfile host="app.diagrams.net" modified="2023-11-21T18:25:00.682Z" agent="Mozilla/5.0 (Windows NT 10.0; Win64; x64) AppleWebKit/537.36 (KHTML, like Gecko) Chrome/119.0.0.0 Safari/537.36" etag="ZzuJT63vpux6VKkP7vcV" version="21.6.8" type="github">
  <diagram name="Pagina-1" id="BMupMRvCXHpjx_rXA8Mp">
    <mxGraphModel dx="1235" dy="614" grid="1" gridSize="10" guides="1" tooltips="1" connect="1" arrows="1" fold="1" page="1" pageScale="1" pageWidth="3300" pageHeight="2339" math="0" shadow="0">
      <root>
        <mxCell id="0" />
        <mxCell id="1" parent="0" />
        <mxCell id="cDzh0OEQFYnWzeQINuw8-2" value="" style="whiteSpace=wrap;html=1;aspect=fixed;" vertex="1" parent="1">
          <mxGeometry x="90" y="130" width="610" height="610" as="geometry" />
        </mxCell>
        <mxCell id="NaWDhg6aUQIwYj67lBHU-32" value="" style="verticalLabelPosition=bottom;shadow=0;dashed=0;align=center;html=1;verticalAlign=top;strokeWidth=1;shape=mxgraph.mockup.navigation.scrollBar;strokeColor=#999999;barPos=20;fillColor2=#99ddff;strokeColor2=none;direction=north;" parent="1" vertex="1">
          <mxGeometry x="630" y="190" width="20" height="488" as="geometry" />
        </mxCell>
        <mxCell id="NaWDhg6aUQIwYj67lBHU-52" value="Assets" style="childLayout=tableLayout;recursiveResize=0;strokeColor=#666666;fillColor=#f5f5f5;shadow=1;fontStyle=1;fontColor=#333333;" parent="1" vertex="1">
          <mxGeometry x="96" y="408" width="187" height="99" as="geometry" />
        </mxCell>
        <mxCell id="NaWDhg6aUQIwYj67lBHU-79" style="shape=tableRow;horizontal=0;startSize=0;swimlaneHead=0;swimlaneBody=0;top=0;left=0;bottom=0;right=0;dropTarget=0;collapsible=0;recursiveResize=0;expand=0;fontStyle=0;strokeColor=inherit;fillColor=#FFFFFF;" parent="NaWDhg6aUQIwYj67lBHU-52" vertex="1">
          <mxGeometry width="187" height="33" as="geometry" />
        </mxCell>
        <mxCell id="NaWDhg6aUQIwYj67lBHU-80" value="&lt;font color=&quot;#000000&quot;&gt;Gini index:&lt;/font&gt;" style="connectable=0;recursiveResize=0;strokeColor=inherit;fillColor=#FFFFFF;align=center;fontStyle=1;fontColor=#FFFFFF;html=1;" parent="NaWDhg6aUQIwYj67lBHU-79" vertex="1">
          <mxGeometry width="110" height="33" as="geometry">
            <mxRectangle width="110" height="33" as="alternateBounds" />
          </mxGeometry>
        </mxCell>
        <mxCell id="NaWDhg6aUQIwYj67lBHU-81" value="&lt;font color=&quot;#000000&quot;&gt;&lt;i&gt;0.639&lt;/i&gt;&lt;/font&gt;" style="connectable=0;recursiveResize=0;strokeColor=inherit;fillColor=#FFFFFF;align=center;fontStyle=0;fontColor=#FFFFFF;html=1;" parent="NaWDhg6aUQIwYj67lBHU-79" vertex="1">
          <mxGeometry x="110" width="77" height="33" as="geometry">
            <mxRectangle width="77" height="33" as="alternateBounds" />
          </mxGeometry>
        </mxCell>
        <mxCell id="NaWDhg6aUQIwYj67lBHU-76" style="shape=tableRow;horizontal=0;startSize=0;swimlaneHead=0;swimlaneBody=0;top=0;left=0;bottom=0;right=0;dropTarget=0;collapsible=0;recursiveResize=0;expand=0;fontStyle=0;strokeColor=inherit;fillColor=#FFFFFF;fontColor=#000000;" parent="NaWDhg6aUQIwYj67lBHU-52" vertex="1">
          <mxGeometry y="33" width="187" height="33" as="geometry" />
        </mxCell>
        <mxCell id="NaWDhg6aUQIwYj67lBHU-77" value="CBR:" style="connectable=0;recursiveResize=0;strokeColor=inherit;fillColor=#FFFFFF;align=center;fontStyle=1;fontColor=#000000;html=1;" parent="NaWDhg6aUQIwYj67lBHU-76" vertex="1">
          <mxGeometry width="110" height="33" as="geometry">
            <mxRectangle width="110" height="33" as="alternateBounds" />
          </mxGeometry>
        </mxCell>
        <mxCell id="NaWDhg6aUQIwYj67lBHU-78" value="&lt;i style=&quot;border-color: var(--border-color); font-weight: 400;&quot;&gt;0.538&lt;/i&gt;" style="connectable=0;recursiveResize=0;strokeColor=inherit;fillColor=#FFFFFF;align=center;fontStyle=1;fontColor=#000000;html=1;" parent="NaWDhg6aUQIwYj67lBHU-76" vertex="1">
          <mxGeometry x="110" width="77" height="33" as="geometry">
            <mxRectangle width="77" height="33" as="alternateBounds" />
          </mxGeometry>
        </mxCell>
        <mxCell id="NaWDhg6aUQIwYj67lBHU-82" style="shape=tableRow;horizontal=0;startSize=0;swimlaneHead=0;swimlaneBody=0;top=0;left=0;bottom=0;right=0;dropTarget=0;collapsible=0;recursiveResize=0;expand=0;fontStyle=0;strokeColor=inherit;fillColor=#FFFFFF;fontColor=#000000;" parent="NaWDhg6aUQIwYj67lBHU-52" vertex="1">
          <mxGeometry y="66" width="187" height="33" as="geometry" />
        </mxCell>
        <mxCell id="NaWDhg6aUQIwYj67lBHU-83" value="Class entropy:" style="connectable=0;recursiveResize=0;strokeColor=inherit;fillColor=#FFFFFF;align=center;fontStyle=1;fontColor=#000000;html=1;" parent="NaWDhg6aUQIwYj67lBHU-82" vertex="1">
          <mxGeometry width="110" height="33" as="geometry">
            <mxRectangle width="110" height="33" as="alternateBounds" />
          </mxGeometry>
        </mxCell>
        <mxCell id="NaWDhg6aUQIwYj67lBHU-84" value="&lt;i style=&quot;border-color: var(--border-color); font-weight: 400;&quot;&gt;0.459&lt;/i&gt;" style="connectable=0;recursiveResize=0;strokeColor=inherit;fillColor=#FFFFFF;align=center;fontStyle=1;fontColor=#000000;html=1;" parent="NaWDhg6aUQIwYj67lBHU-82" vertex="1">
          <mxGeometry x="110" width="77" height="33" as="geometry">
            <mxRectangle width="77" height="33" as="alternateBounds" />
          </mxGeometry>
        </mxCell>
        <mxCell id="NaWDhg6aUQIwYj67lBHU-85" value="Refuse balancing" style="rounded=1;fillColor=#0057D8;align=center;strokeColor=none;html=1;whiteSpace=wrap;fontColor=#ffffff;fontSize=12;sketch=0;" parent="1" vertex="1">
          <mxGeometry x="439.32" y="637" width="100.68" height="53" as="geometry" />
        </mxCell>
        <mxCell id="NaWDhg6aUQIwYj67lBHU-86" value="" style="html=1;shadow=0;dashed=0;shape=mxgraph.atlassian.close;fillColor=#BA3200;strokeColor=none;html=1;sketch=0;" parent="1" vertex="1">
          <mxGeometry x="421" y="656.5" width="14" height="14" as="geometry" />
        </mxCell>
        <mxCell id="NaWDhg6aUQIwYj67lBHU-87" value="Accept balancing" style="rounded=1;fillColor=#0057D8;align=center;strokeColor=none;html=1;whiteSpace=wrap;fontColor=#ffffff;fontSize=12;sketch=0;" parent="1" vertex="1">
          <mxGeometry x="233" y="637" width="107" height="53" as="geometry" />
        </mxCell>
        <mxCell id="NaWDhg6aUQIwYj67lBHU-88" value="" style="html=1;shadow=0;dashed=0;shape=mxgraph.atlassian.checkbox;fillColor=#008465;strokeColor=none;html=1;sketch=0;" parent="1" vertex="1">
          <mxGeometry x="213" y="656.5" width="14" height="14" as="geometry" />
        </mxCell>
        <mxCell id="cDzh0OEQFYnWzeQINuw8-3" value="" style="shape=image;verticalLabelPosition=bottom;labelBackgroundColor=default;verticalAlign=top;aspect=fixed;imageAspect=0;image=data:image/png,iVBORw0KGgoAAAANSUhEUgAAA0kAAAJxCAYAAACXJ/k0AAAAAXNSR0IArs4c6QAAAARnQU1BAACxjwv8YQUAAAAJcEhZcwAAEnQAABJ0Ad5mH3gAAONCSURBVHhe7N0HfBRl+gfwZ9N7gUDoHUQFQaQXBewF7Ho27HLqqadnu1PP8yx3p3ee7a+HFXv37GdDkd4UlCpIL0kIpJHe9j+/d983mV02oWZmN/l9YT/J+2Z2d94pu+8zbxmP1yJERERERESkROifREREREREZGGQREREREREZMMgiYiIiIiIyIZBEhERERERkQ2DJCIiIiIiIhsGSURERERERDYMkoiIiIiIiGwYJBEREREREdkwSCIiIiIiIrJhkERERERERGTDIImIiIiIiMiGQRIREREREZENgyQiIiIiIiIbBklEREREREQ2DJKIiIiIiIhsGCQRERERERHZMEgiIiIiIiKyYZBERERERERkwyCJiIiIiIjIhkESERERERGRjcdr0b8TUQOqqqqkoqJCPB6PJCYm6tzgcEqVlJSo3+Pi4iQqKkr9blx44YWyevVqueaaa9SDCGpra2XFihXy5JNPysqVK6W0tFTS09Pl66+/1ks0DM/F8sFERESoB47DwGORQhc+b3bu3CkLFiyQnJwcSUhIkK5du8qgQYOCfq7AVVddJUuWLJGzzjpL/vSnP+nc5sH+uRoIn8v2YxzpPRk8eLD6ie2L54aSpUuXyuWXX67W63//+5+0bt1a/0Xkk08+kfvuu0/69+8vL730ks4NLQUFBXLcccdJdHS0zJ07V+cShR+2JBHthU8//VTGjh0rp5xyis5pGCo2WBaPGTNm6Nym8+GHH8pbb70l+fn5OofCEYIjVIx++OGHBgOehvz66691x5z9MW7cOBk/fryccMIJcuqpp6pK9OLFi/WzKBThgswf//hHOemkk2TixInywAMPyHPPPSePP/643HLLLXLssceqffl///d/Ul1drZ/V/BUXFzd6jB9//PHq8/mSSy6RL7/8Uj/LGQhi8Rn8/vvvN/t9gu9ClDU3N1fnEDVfDJKIwhwqS//85z9l+/btOofCzcaNG+WNN96QyMhIuffee+Wdd96RDz74QKZOnaqX2HujRo2SCRMmqAcq2kOHDpXk5GQVvKOVAa2XV155pWzevFk/g0LF+vXr5fTTT1eth7t27ZIjjjhCbrrpJnnwwQfloYcekuuuu0769u2r9iVaEf7zn//oZ7YsRx11VN0xjsBo5MiRkpmZqVowVq1aJXfffbecd955snz5cv2MpoXzF5/BTzzxhFRWVurc5gkBO8q6ZcsWnUPUfDFIInIYKsOLFi1iVzuqg9admpoa1a0Glb4ePXpIly5dpGPHjnqJvXfZZZepQAuP+++/X1XcPvvsM3n33Xfl3HPPVcv89NNP8tvf/lY2bdqk0uS+7Oxs1RUXFzvatWunWo5efPFF1TJy4oknqtbAK664QgXOU6ZMkUMPPbTZV8gbcvbZZ9cd4+h69u9//1u14uA4v/rqq1XXxHXr1qmLAQ21nOIzGI9Q62oH6EqHdUNXQHtXu3CRlpam1p9d7SjcMUgiInJZXl6e+ok+/E1Vaevevbvccccd8swzz6j3QRehv//97/qv5CYEyKjso6tdbGysCpDQIhgMxtugJeWVV16R0aNH61yCtm3byuTJk1UrW0xMjOr6ds8990hZWZlegoho7zFIInIYvrhRGcJg+2BQYUK3G1z5f/7551XXKwzkxXPs86yY1zF5Jm0eDfWNx+svW7ZM9StHq9aPP/6o8vYGrlx/99136go3rtraB1Kb9w2EctrXB2lcLUd3smeffVaNpzFQFqzL1q1b5eOPP1bvgyvE6BrW2Drieeb98TseWDcMekb3kO+//363dcMy6LaE9UClCtukoX2yL/AaWVlZ6nVRkZ05c2bQ7QJmn9lbBEw58DgY6xMIA9bRTQlwpTpYlySzH3AcohwvvPCCfPTRR2p7NbZO9v1g0oWFhWrcHI7lhQsX7rYf8Xrbtm2Tt99+W1599VXZsGHDHsuN10CQh2MQxwjOlbVr1zZ6jNhhOYz9wv7B8YWubVhXsK9/Q7B+GAOI98e2+fzzz6WoqKjuNfbVzz//rLYN3H777dKzZ0/1e2MQLKEr5b5AuVHWb775Rh3z5vxv6LPCDmXGNsd5iX35+uuvq+OnvLy8wf2F98O5i/2D8xCfOWjFxPvtaR8fCLTEPvXUU+p3tNDhGA60p/2MdUT3VJQT5cUxjG51yLfvZ6Ttxx3S5rXxsP8NvyMPywC2AbYPtgveY8eOHSo/8DxqDF4Dnzdvvvmm2p/obtjYtjXrt6/LmHU3ZQ8spymTYfIbg9fE+uLcx3bem2PRvC7WAw9McILzD+fht99+22JbV6lpcHY7or3w3//+V40LwMx2qHA3Bl90GAsCDz/8sBpUbNfY7HbvvfeeGmeAvvWBcGUU3W7QxQTQ9QaVq4b069dvtzEt6HqFsqCiZIdyDR8+XA0SRytDMOjSgsqG/aoslsVV7ccee0yOOeYY9YX11VdfSatWrfQSor4AH3nkEUlJSVFf4jfeeKNfRfh3v/ud6iKGLzf8xBc+BmkHfjRhpjd0pcFYg0CoaJx55pnqd6wjKs4Y14H1MTAu57bbblPd2fBFjNfCbHL2SkybNm3UNurdu7fO2TeYeQqVMwQTdth3eE1MzoDtYGCMCSqaDbnzzjvlnHPO0amG4XjCcQWojB555JHq94agYouB7tiXmIXK3qKE4xdd8RDIBptAIiMjQ21HTCAQyMzKBQggMI5m/vz5fhUfHBv/+Mc/1Doi0MB7IRizV8jQ1RBdyrA/AuG4x/FjD2yM1NRUueiii9QyDcE58fLLL/udA2i9w1gf7HtsD5g2bZp6vUDTp0+Xf/3rXypgsK8zZlVDcIP1TkpK0rl7B8eMOVcR2Acr995obHa7Rx99VL02PlsCtxu6p+FzCq0uGBcXCJXXu+66Sx0bgc9FuXFsI8C1Q1Dx9NNP17WS2uFzo3PnzuoC0N7C/sIkDYDjCt0PG4PzGhNcYJ0RTGJd7Bqa3Q7HKsqKrmLBjn9sKxxf+KyCM844o9HxOZhcAmN4AC2E2E7YXtjWaNlFEGe2KcaXDhs2bK9nt8N3AT5PcZHBQPCMc/Rvf/ubDBw4UOfWw+cnuiLiHD7//PN1rj98RuL8R3fFa6+9VuXheMJne0PQRRSTOsDezG6H7wSUDRcX7PBdhGPRfM/Z4XMV+xT7CN9jONcCAyPM/IjvX6xvKHalpPAS+ReL/p2IGoCrXWgRQGXXVAIbgi/W1157Tf2Oiii6OdnhyjU+7BFc4GGghQanIyr2CFjwBYYPe3S7wdS/+DLBl44JwPAlhu4lGFeCCgGWQ2CEL2A88Lv99RHkIWDBVTgse/HFF6svcFRyUMlGRRU/8eUW+OWCyiPKhPfBIGlURFFhwRcSKo0IUvB8/B1jKOLj4/UzRbVUzJkzR1UEUHHG9kHZMEB9yJAh0r59e3XlF190qHx26tRJTj75ZNXagXXBlMdYZ7w+XgeV7MMOO0y/ug+2DcoGa9asUcvhix4VghEjRqhKBCq16CePQBOVSQRjF1xwgarkYFshYMKXOyqZGPOwN9MI2+FKLoJitGD16tVLHSfY/9hH2AbYX9hWyDPbBzNEoQKE90JlEhUwlNnsQ1Tu9mZcEo4nHFeAGdGwTRuDfY7KBSqQeG8zVgnwWgi08P6okJx22mkqIEKlDK1C2Ne4UNCnTx91XNqhjGhxAlSsf/nlF7Ut8cCxiH2IMiNwwnriOMAxg+MJ74PthhY9bAtU5LAPAyGgQxBhjhFUls1xjtYktMjgPAkWKKKCiQorzjEcQ5deeqnaHxj0j8oc9hNaMQF/w/Fth22M8wjHCY4ZrDfWEa+F4wnrjPKjbIHPbQwqezg+sV+uv/76/a7coZUHlW6MVxozZozO9cEFCmxXHP/YbviJcwMBHc577CusAz4T7NDSiwsKCFIOOeQQdc7guDj66KPVMYJzE8eMCdIB5xAqqbjYgYo6/ob9he6B+DzEOYL1NIHG3sDnA4JbwPG4p9Y2bEMc4ygTnovPOzu0YgPKZj/X0SKBli9UxLHOODdwjCF4wbmM/YwgHmlAGuczjhvsP5y/ODfMOYzJN3DuAI57XNjCcqjk4xjBtsH+GDBggDr+8XlgziOsF9YbnwsG9hXOP+ShBQUXGrAMPsew3xGwocz4rMVnNdbZDmXDc8z3RTBo1cE+wmcvPqMB+xgXePBZin2O7yiUy5QTFxnwfoCLMGilRcCNz1o7XFjAxBo4VnEeYjviXMNFNnQ1xXGIBwJFfNfZ9w0u6uA4xmvgXJs3b546/7CPcGzhuwWfT9hG2JaB371E+8yquBDRHnzwwQdeqyLmtb4EvFZFqdGH9UWulsVj2rRp+hXqWZUM9TerYqRzfO68806Vf8stt3itiqPO9Wd9Aerf6llfyup5ViCnc3ZnfTl7rS877+DBg71W5UDn1rO+kNXf8Dr43c6q2HqtL0T196eeesprfUHpv/hYwZ3Xqsyr5+JhfZnqv/i89dZbdX+zKldeq3Kk/+LP+uL1WhVrndqdVXlR62BVQHdbBytQrHsPrKv15an/4mN9uXrPOuss9fczzzzTa1WMvVblRv/Vx/py9VoVS7UMyrQvrEqz16pcqufeeuutOreeVfGv275WJV3n1sOxgL9ZFZ3dyrY3rEqFej4ejW1Du9///vdqeewTO6syrF6vIQ888IB6nlWx0Tn1rApg3XpYQfRux6RV+fNaFVz193POOcdrBUleq8Km/+qzYMECr1VxUttrw4YNOreeFQTp33b3zjvvqGPRqtR6rYqxzvXBcYfXxXvfe++96nizW7x4sVpns/7Yp3ZWcKfOf/wN53ggKyDwWgGO+juOgX3Zj2abBNum++LKK69Ur2MFcjqnnhUA6t92h22OYx/bLnCbv/TSS+o1rcqo16r86lx/OHfsbrzxRvUcHGPBYNusWLFCp/ZOUVGRek08vvzyS53buEcffVQtj3JZQY/O9TGvZf+stSrt6vMD+VaQoXP94bgK/BzG5yueYwWOXiu40Lm7e+yxx+red9KkSd7CwkL9F3/mPMJn9o4dO3SujxVc1L2GFcTtti5WIOw977zz1N/xeRK4z6yAQv0Nn8sNwetimaefflrn1MPnL/7W2OcMzmksg20ZyAqg1d/weO6553RuPXzX4tzHwwpyda4PtoU5h/F5i+PWDuf0zTffrP5+4okn7naOE+0rtkUS7QNc+UJXj8YeaHXZH7i6B7gC3NCV5P2Z7cw6z1V3OKtioq5W4sppIFzJxFVisCqa6qeBq9y4coirhbjKbb+yB7gCiNfdEzwPXX5w1T4YXF1trJsYurjgCi6u2KLFoCFoyTJXeQ1csTXdw3ClEeuB7iF2aMHCFWDY1/tbYTIEXGnHVWB0cwl0+OGH13VbsQLpoN14nGZaOrBv7dCyYLZDMGghwDK42hv4XLs//OEPdceUgRYgtEAAWkBxrmAmLDtcue7WrZs6boN1bbUqT/q33eGKMtYdV70x5shu9uzZqnUAxyGm1cbxZocWj8a6NqLlAec/zk+rgqtz66GbELowAVqF0cKwt0zXv4bOjYMhsPXVDtvcqliqVj1c4bcz3eXQaoAr/cHg3LEzz0HrQjDYB2j1aGqmmxrKZbZxY9B6Yo7phtYPrZT78zlshxYW0wX5QOAzMXBd0C0Zr43vEHzWofU8lKBLIaAlMFi3WHSbRmsczn90ucM5GwxaNE0rl4FzGi34gFZy3suJDhSDJKJ9gEoC+pE39kAgsT9MFyl8iRzM2ZgQHJkvC9OnPxAqLabnLboWoluVYSZWQCUqGDz3hhtu0KmGoVK+L5ULrAf6wGOMEQILPPDFCRj83RATDAUyXcNQmW2oq47pmoLuLnsL64RuH4AuKIGVbwMVAmwDdP0JrMC7wWxL7L+G4NhB96Avvviibh9gf+A8QGUS3VoaYroYBcJYFMB+CAyQDDOmrbGxHoCulRh7Zj9GTCUXXb7sTGURxzEqksEEjh808JroHgX2romBOnTooH/zBYF7y+wDbG8nYLuiKxrKZLabCdzR7dTOBEAI/DBxwd7AxQxAwGX/LHGafXvuTRdGHI+maxsC+MYuAhwIfA40dAzuLZQHXZaDwXcJgjlAt7VQgUAV3XABsxA2tE9w0Q5wTDb0WYyuosHYx2+huyfRgWCQRLQPUAFGJamxh/mA31e4Oo3KJ1qUUFnD4Otbb71V9S1HxXp/oTJsgi70024IAgeMuQJ7Bc9Unhp7LlpK9lQJwbYzr98QBEbYhujbjn72aLVA6xxaZ/Aw62Va3YIxLSSBzHtjPYINTgczVqihq5fBoCKGPviAFpDGYPII2JcKdFMx62wqU3YYn4MrutgPCO4whsDsAzzQUgOmxSAY+7g0O/N+je0HE2gGa3HDpA2/+c1v1JgKXE3+4x//6HeMmKA+8BgxY40wzqshJoALhHKaoPKvf/2rGnMU7IGxV8a+tBaaFgWM02kq2GeYKAYtvxi/gln0ML7KbDcTuAd+1mBcCFpd0RqDcxPlxIQjGIOHsVnB4HMLlVWMjcHYJxxLv//979VkDoED9ZsSWhMAx9neTKaBYBXjCvETY1DRooFxc5goYdasWfv0udAY7O9g592+QCDa0Gsg3wS3e7rQ4CTzuQEmkA7GPo6qoRZA++RAduazAw7W/qKWi0ESUYjAIFNMBYvJBvCFjoo0BvqjywEGU6NSsz+VKFTuUMEB+wDgQKgYmC8YdDsxzHMbCj4AAVJDFV4Dr99YIIVB8+gKiMH9qGBjQC6uNt5yyy2q7HiYSqxZp2DMVXmn7O32hWDb1y3mWAqsPKIyiO5o6KqDWbJQKUZXQXSfM/vB3o2pIU2xH9DNEt1pEAhhW2JAPY4Z+zFiWgkD1w1d5aCxynJD3cnMcwEVbwxeb+hh7EsFzQTXaJlritYLtOYgQMJVfATH6DKI4Pfmm2+u226mq6sJBg1U6DGQH89HSxnKiBnhMMkKJr3A7IQ4d+3QSoIZJnGhA7/jWMJxhdkzEXRhfyGAamqmxRndPPd0EcdAV13MMGq6fOGYw4QfCPIwkQO66poLDPtrbwK2PdnTZ41pqTqYvRIOlD0Ab+z7wn4xraHzaG/2Z+CxTLSvGCQRhRAEAaiwoAsRZvHBFzOu5uPDHt1j0JVvXyvY9uCnse4HeA9TQbN/iZurlY213uCq+YFetUNFDF/oqDCiUoIr9qgAY/YnBI54BJuS2W3YvuYLf0/dO8z2NS1KbkHLCCquEDj2AvdrQesYug6iG9af//xnNRUwWm3MfthTi2BTwcxcuLKMsTs4RtCChEDafozYu9vYmdaaxsYKNdTKYS8vxiah696eHnuaotrOjLNCYGe/2n6woDUaXeVQsUbXREznj9YgzM5ntpu9q2AgnHcIktAShC56aOFFt1Z8TqCs+FwKbLFA11p8fmEGNsw8iSAb49HweYIxf3jPxj5TDhQ+j8yFgMZawQPhfEaXTMyiiGngMSYTM7RhzBqOD3wuB5ue2ml7+qwxrWjo1rovmjKwsF+EaOz7wn5R4kBb3IgOBIMkohCFAei4Eou+8ahk4MsCFR1Mb70v8KVvuj5hsH1DzA1rcYXOPrWzGTeCqZkbgsrEgX65mtdH165gV0lRcW/K7kj7C9vLrC+mpW0IKgWm68ieuuU1JewnDOxGRQTBHSa6MLCO2A84ZnDFPFjLCgJZtwZEm/EVuLdWQ4PeGzpGMPEI4AJEQ2N/Vq5cqX/zh6vy5kKDvbXoYEHXQQPjvw42Uy6M42hoXODenlu4kIOuwLjXFbYlPh9QYUdAHQyOJbTuIcjGMYUptpGHiz2NfaYcKKybCcICpzXfW/jMRcCE1jJcPMBxB2gVsx9DKI/TcJGjoQtmOLfNxYDALqTmOG6oOyg+A5pqLBZapk0LkP0m4oHsFzIaOs+JnMAgiSgMYCCuad0JrKDu6UsPFWHTxxvd94JBxdlcHcW9M+wtHWY2MoxTCVa5xBcqbpJ6oExXjIZaKXDjQXN1NJSggoRxHoBt1FAXNMyAh8oLui02NAmGE3AVH0EtYN/a7yViKkcokzmuAqElpbGrwE3JrF9D3eLQDayh8V5oGQMEAw0tY+7xFAjvZ8YaopJ/sGHmOVORx8QtexM84JxF6/LeMNutoXMLge/+BCw4Rsxny96em2jVMS3C+zID4L5AUIgWUMAFH3QZPRgwFg5wHtsnpDDHI/bJgV4s2lt4HzOZSCBsV/N5GjiBimlZauiCAALexmYCNGVtbJmG4L3NeYjPw4YuVphy4Xtof2+sTHQwMEgiChG4435D3U/QlcV0rwgc8Gr6nuPKaUPM3ccxdsDc/d0Og7BN9ysMVLZDaxa6N6FSgO459i9HBGa4Oz3W+0CvpprK+v3337/blUwM1kfrR6hCVyRcUUd3HHO12Q6D4nFzRUDXMDe6q2HfY93Q7QmVE2xvHBd2aHFESwP+jm6fgZUYzOL3TsAU8U7CTYcB3cXsXXIAY1xwLDYEEzaYweyYjTHwSjbOCwzWbwi6pyHAxXly5513NhgoIuDAeJ19CSRx7mDdUQFF5ffGG29sMGDD3xHkouIfOINfQ8xnBlpAArtpYX1xjgduTwNdHHH+BYPnmNnH7K3PCKQbmpUM465MgHGwb/aJfXPPPfeo7qHYTjjPzHTYewPBBT6HG6q843MSUHm3z8xoZibFWKW9nQHwYHjppZd2a73GRTQcqyg/WvACp8w3rZa4oBC4j9ANFzf4bezYNS2ROC7wHvsK6wZokX3qqafU73a4YTDOQ5wT2Hd7GutK1JQ81kHOkW1Ee4ArW5gJClfCgt27xQ5XVDE4GTBTUuC0wqgko6KAijUeBrqw4EsaM8WhMojgB1/W+OLHeyJwwBceut/ZK9lIowKOigC6FOEqLb5g0KXL3LcF0NqDLyD8DVcXcSd4EziZma1Q8UJlLfCLCfeYwfTmqASgCwruf4OryJhkAV0+sG1w5RaVJlTg7GOH0FUQX3boNoFArqEvPTwP7wG4vwpaW1BOvAfKj/LguajcYqwSxqIY2EaYQQsw5iLYzEl4b8yEhsoNxkkEC1QQoKFyiu2Mwdv7AuM+8HxUMNDFBWPJ0A0P64/WG+xL7Fvsh8AuJKhU4oHnYf33NeDE8YTjCtAqYVoC0aqF/YPWExOA47UxAB2TMwQbv4PJQ0wgjcH8OFbwHEy3ja6euBKMlhhUcrCcvSsTusNdru9Tgm5j6F4T6LXXXlP37cLsVGgdDHY8IEjAe+E8wmB/A0GaCUJRAUTgg8AO64MpqnHVGecNrpJjBjd03bRDZR8BgTmO0aqBfYR8jAXCBBW4wo3yfvPNN7uNgUPlDa+JbYpth/c399vCTG94HWwDHANY/30NhhHoYXyPCUoQROA8RZlwruLvaPExFfHA8wBjZxA44bPEHgBjeZQbARH2CVo+cR6gkozWZWwP7GdM7ID3w6QLBmaqw/GL7r/YXng+9hnWBfm4MIDxTAguzIxjmOUPswniPMZz7FO6Y7sgUMM5+uqrr+71mBlcnDG3MMBrmmMX5xUu1uBzF+VBlQb7D+cwtkFgdzPDBA8IFkwQhYADY6VwTOHeb1hHnKv4XMPnDpbFOYUWJWwXO3PMYttgnJ8pF17HfM4//vjjqsz4nDYBVzDmPMJ64Ryxn6cYi4fZ9nD8471w7GO7YB9gGyAQxrGMz2eca9hWdjh28VmB/YPeCRg7h+ML2w6f8zgvsD2xvRFsmvu7Gfh8xOcctjGOTxwP+B2vYc5VnAuY+AKvhdZ1O+wvfGdhbJf5TBw0aJDfdxH2Ic59jEs1+wZQrlNPPVWdX9gOJji1Qzkw6Q/ge7Gx+4MR7QlbkohChKkMoZKDijK69eBKISpruMKMLzMEXYEVL1yZw9S8qKyhQo4v8vnz5+824xSunmM2K7QK4d43+ALFlwi+lPAljEoUKhXBKq24+ohKPL7McDUd91JBxRxfzPgiw5c0vrjwZbm/MzdhIDgq7qiUYCpwTOSA8uNLH++LAdSh3D8dX94Yp4HKC4I2BIdYf1RCUenC/nv66aebvAzYN9j/eKDSi2MClRVURlB5RuUE+yxYgAQ4ljB+BPt58eLF6hhBcI0B+pgVDQPa97Xyf7AgQEMQj/MEs46hookKPQIklA/nTEPlAgTauOCBboYIJHEMI+hAMIQAHeUGVMzslTMD5UcQhZtYorKJCiz2MR54XVRuUSnHNmyou2JjcG4iSEUFGa+DYAmVUgQgKCcCcQS8CGjQYoIgaW+glQetW2gFQEUa44ewrT799FPVXQ6/47gNBoEOznOMZ8TyWBfzXARdCBRxXNunZEZggMozPoMw2QPWHQ/c9wwVYHxeYN/tbYAUCAGLOcZxXCKNzx8EcrgAgPXBfmooQGoI1gcXBnB8m1ZTjEVCYIPKPo4tbPPAAAmwP3BhBNsB28qsH46xpoDgHvsUF6xwHGKf4FhBaxD2JY7JwAAJUEZc1MKFOASr5rsGF44Q9OB7wYxhDQbdTnF8olUWF0oWLlyoyrm3rZo4rzChB763EOTgGMH2NZ8x2MaYeREBV7BzkMhJbEkiCjHoioKpa3FFDJVbfOFhnNDBhEoFvshxJQ9XNRu6M/7eQqCFK9qo5KEidyDwkYQvXVx1RuUVU/KGcnAUDCoq2CaoSKOihiAPAWQ4wbGBlhMch2ihQQXQreAoEI4RbF8EEQh2UFFH4HSgUGG79NJLVSXxyy+/DDqBiIGWXQSRqChi3yIAwXna2FT5+wqtNCgnulChcouWjcAxJvsC2w0XINDShn2JGdtMF8Q9QWsKKsIoL14Hz0Nrb7CLKgbWH4EjAjssh0o4tlFjzwkV+PzBdkKrCLY9gnBs/1A8j/F5Y8aM4vjY24lhcP7guwbBCM4hfH47DeuA8w7rjqAucLZNIjcxSCKiA4IvN4xjQosFWoPQmkIUjtBK9t5776mgEC0l4VCZJyKipsG2TCLaI3Thw5X1wGsq6K7xl7/8RV0NhNNPP139JApFpqtZ4CQFOK4xXgRdwwCtogyQiIhaNrYkEdEeffzxx2ocC8YboS87up9gYC8GOpupxzErUrCZ3YhCBcaKYVwWusSh6xe6cWLSAoxvMrM2nnjiiWrMBhERtWwMkohoj9BnHLOyoZ8++ujjSjwGpiNYwtgEdLfDbEThNu6GWhbM8IcB9giW8DsCJByzGHuEQeQYlG4mbyAiopaNQRIREREREZENxyQRERERERHZMEgiIiIiIiKyYZAUwnC/Gdz4kYiIiIiInMMgKYRNmTKFsyw1c7iRX01NjU4RkZMweQNurkpEztu6dauaRIUoVDFIIiIiIiIismGQREREREREZMMgichFhx56KO/sT+SS1NRU6dmzp04RkZPatWun7k9GFKoYJBG5qLCwUHirMiJ3VFVVSXFxsU4RkZPKysrUgyhUMUgictG2bduktrZWp4jISaWlpZKTk6NTROQkXCQsKCjQKaLQwyCJiIiIiIjIxuNlX5+QNXHiRFm7dq0sX75c51BzgynA+/Xrx3FJRC7AFOBoSerbt6/OITr40GKJFpPq6mqdQ1BSUqK6myclJekcCifR0dHSqlUriY2N1TnND4OkEMYgqfnDPZIYIBG5A19/6O7Kc5CaAo4t3AcIQRJERLDzDjUfZqgAAqXMzEz1e3PDICmEMUhq/rKzs6Vt27b88iRyAQaN42p2RkaGziE6eNBSic/4Nm3aqIokP+f9mRup8yJFeMLEN9u3b5eioiI1S2hMTIz+S/PBM5bIRejqw+sURO4oLy+XHTt26BTRwYUudggAWrduzQApCARJJlCi8IPudqYFKTc3V/1sbnjWEhERER1kuNIeFRUlHo9H5xA1Lzi+cSGgoqJC5zQvDJKIiIiIiIhsGCQRuWjAgAHsj03kkvT0dM5sR+QSjGFpjuNYqPlgkETkoi1btvBmskQu4c1kidyDKdEP5rTo69evl2+++UaniA4cZ7cLYZzdrvnjfZKI3MP7JFFTWr16tRqz0aNHD51T79e8X6WyplKnnHVYm8P0b3tv6dKlcvnll8tTTz0lw4cP17kHprLSV/6D1Zr01ltvySuvvCKff/65ziEnNHachzsGSSGMQVLzxyCJyD0MkqgpNVZ57PVEL1mbv1annOW9d9+rfQySqCHNOUhidzsiF7E/NpF7MC0zprElIudh1j/O/EehjC1JFowL+fnnn2XDhg3qvgbx8fFy2GGHyTHHHCNxcXF6KX9YFn1fcSWyY8eOcsopp0haWpr+6+5wFWbmzJlSXFwsvXv3lhNPPFESEhL0X4NjSxIREVF4amktSagPPfjgg/LDDz+oe5B17txZzj33XDn77LPVBYm5c+fKbbfdJjNmzKi7b9Qtt9wis2fPlq+//lpSUlJU3j/+8Q+ZM2eO/Pe//23w/lKogz388MOqNwYuNo4dO1bVxT744IO6liSMObzvvvtUHQr38YmNjVU9N2688Ua/1uMrr7xSOnToIJ06dVLP37Vrlxx++OFyzz33qL8/8MADsmLFClU3vOCCC+SKK65Q+YB64BtvvCHr1q1T74ebw59wwgly3XXXqX1vLF68WP7973/LmjVrJCkpSU4//XR1I+slS5bIm2++qZcSta5PP/202t6YQr5bt27q/Y4//ni9ROhhS1Izd8YZZ8hvf/tbmTJlinz66afy0ksvqZMGB+WqVav0Uj6IKd955x0ZPXq0OpHfffdd+dOf/iQjR45sMJj5+9//roKoJ554Qt577z254YYbVBqDDKllwwc9J24gcgcqKVu3btUpItpfCBDOO+88+fXXX+Wvf/2rvPbaa3LUUUepetK8efPUMrhAjOAJAQPgdwRUCI6+/PJLlYc6FgKkoUOHNhggYbIH1LuysrLk0UcflRdffFHl24MNQJCBG/n+5S9/UcHPv/71L9XF76677trtJrazZs1SF6X/7//+TwUpCKpQDgR1Z511lnrt0047TdUTsZxRWFgoJ510kjz//POqux+CqI8//liee+45vYTvpsJ33nmnCiSQj9fHa3z11Vd6CR98Ft10003SqlUrFYziPRGQItDDhXxyHoMkyx133KGuRuCBkxMHI068zZs3y6WXXqqX8vnxxx/l5ptvVncZXrhwoSxYsEA+++wzdSMttA7l5eXpJX1w4j/55JMyfvx4WbZsmVr+9ddfl02bNqmTgRXklg0fsGzMJXIHKky4akxEBwb1GwQDuBg8ZswY6dmzpwow2rVrJw899JD6nsvIyFAtI6gDAS4sI3BAPevtt99WeQgU8JgwYYJKB4NWJ7TI4HWHDRsm3bt3l3vvvVf9tEtNTZXbb79dBg8erNZj4MCBqjUHvYcQnNlh3dAy1atXL7UcWsDQyoOgB0EQWsVQZ8NrIuAy0EqG4BDl7dKli/r9nHPOke+//14vIfLyyy+rCzIIfNCShWARdczA3kTYdvj7/fffL0cccYTaVnhPbE88l5zHIMmCkwH3y7DDgY7ubtnZ2X6VWLQyoWl3+vTpdd3r0CyLqwNYDievgS9gNCWjz+1jjz1W1/SKbnxovcJJ+t1336k8IiIionA0f/58Vcdp06aNzvGN+bvqqqtUPWrHjh0q7+STT1ZDD1A/wkVnBBfombNx40YpKiqqa1nq37+/Wj4YdNtr3769HHrooTrHB61PgX755Ze6nkHoBod6HS5Oo8XLrk+fPvo3H3TdAwRIdsi3tz6j3ofJItA7yLwHWtEQMBroOofy2IMi1AvR0maH3kW4+H7cccf5PdA90f565BwGSY3AwW8fVIjmWbQMoRUpMTFR5/og6scAYPRNNXBQ4+oBTp7AIOySSy5RP99//331k1omHEccuErkDlTq9jQ2lIj2DOOtwVwMNjBGB9DbBhAQoW6FoAnjfDA2CBecMcPr9u3bVY+erl27Nvq9iPcKdt4G1su+/fZbNY4KQdcf/vAH1UKDMVMYa27WxwicwMW8f+C4dAR+9q56aC3DxfMzzzxT/vznP6vxSwjE7Mug21+w9Q3MwzodeeSRaviH/YHeSwj0yHkMkoLA4MNXX31VdaNDK5E5WRDlo98trpQE9pXFQDyc5OiqZ26OhtfB72gODmSCKnTpaww+TNAdxP7ACUfNA5r2G+p3TURNKzk5WXWRIaIDg+5sqK8EBh8rV65UP3GuAbq1oU6Fug8G/GPMDYIYdGND9zuMAw9s1QmEwGvnzp3q/exMa5Xx0UcfqRYcdLE79dRTVYA2YMCAuqnHDxTKirFMCGKuueYaGTdunIwaNUqVxQ7BG9Y3UGAegiaMoUJ3vcAHhnOQ8zi7nYZ7ZQwaNEinRAU8OCgxnshcScB4JXTNQ1/Z//znPyrPQPPtIYccooIoNK1i4B2uYqDF6IUXXtityRZwxQAtTFguGFyNCOw3C7hygZMRcMIjcMLMKoAKNz4UcPKh3y2gLOjniiZvc3d5XO3BDH74oEIwZ8/Da+FKzYaCDeKJ9IinjUe8eV7xVvoOFZXX1srbYeVV6bwYK6+1lZdr5VXrvHgrL83K227l1ei8ZCsvycrLsfJqdZ61DJatzaofnxWRYQUOVmxam2vLa2flWZ9ttXk6z/p7RGaEeMus1yr0vVZdXomVt0vnWU+LaGvlWWnk++UVWHnlej0idLnyrbwK2+tZ7+vdaeWZ8kdby2UElN+U1V5+q5wob2NljaqKktp21u+RVrm228pqlUGsWLt2p62sbaz1sNYB61yXhzKg/EUBeSh/cUAeyl+q8yyqXLbyQ0R7Kw/7WpffE2WtL/a/vfxxVl56QFkTrbyUgLKmWnkJAfu1lVWuqICyWuUSK+lXVmv/47WxLwyUQazv39pC23NN+c2+tqj9b5W9bl9bRg0eJWV5ZX5jBnHuYOIMjAsDzHyEq5oYUGuuiuLLG/3c0WUDg4wBX/LocoEvdHNBBDMj4eIJroIa6E+OLz1cLTXQFx0VBFQODFQIcOHDPpELPkvKysrU2EUDXUvQHcXe1QPnK851c16DOdftFQaUFa9lznVTVpzr+PwAVGIwOxHWDe8N+BxDX3yUwVycQWUIren2siLQwPPtk9egGw0+e+xlxUUBfOXYBz5jm+C1sS8M81lqv4iE8mNfbdu2Tef4yooB1vbyo6z47DMVEHSPxnOxfbH9ABe1sH4oF44JrDs+i1EOe1lRGUO3HntZse9x5dteVuxrbFMcJwa2JT6P7d16UH58V5jPa8D+R2UL3Y0M7Bv0QrCXH2VFmTBY3UBZcTyYfW3Kitcy3XNQQcP7Yj3wmoD1x9V6VGBNhRHHL45je1lRdhwD9rLieMBr2ic1wmuh/PZ9jfLjWLfva6wHrrDbj3WUFeeWff/j4iTW336so6woO1obABcZcfzbj2ucbziegp3D9rKiIoqZzOxlxTGNbYCxNQa2Byq8pqIPKD/ex76vsf+xPhgnY+D4wnGIc8B03UJdwgQS/Z7rJ+sL3Jm8qeKPFWp9zXkOSKMOYM/D8YT1Rx6OgWuvvVbViXDh13weAvY9jofLLrtMjevB31FWnMPoSYP9jjE1mB0O5xa6kKGeggkcMHkBno+/Y9vjfTDZFSbDMp+vOI9M6w+OHzzv97//vWoVOvroo9U5hfe6+uqr1TKYIAsw3AHbG/U1Uy50jcMkC5h97je/+Y3Ku/7669UxjHFNZjkEP5gcAt3f7Nvkd7/7ndr/KKcpH2bBQxCGbYJl8Xo4V7/44gu1PpjgC5M1oBsejhVsA/x90qRJ6vMU64Q8BHOoD+IiPY5Re2sUXhvva8axY79gu2EdjGB52Kd7s6+D5eG1sO33lIfjHOuFsho4X/HZis8wfK4G9qYKFwySNHyg4uQ3X+AIiHAwoPscPojBBD0Yr4SDORC+7PAlhMAGBz5mOMGHCgYpYnrKQOg/ixMf/U2DQZCEL7bAIApfcCZwa0qe+6zaKjWpyZ0my9RtU6Wi1v/qGx1c0yZNk/Hdx+sUkQ8q17yZLDUVBI2oeDanKcDRqoGAwg5BIFppUOlH8Dh58mRV5meffVYF7JiUwd5iiwDjnXfeUReKMZscgjGch5g9DhVwTHqwpzoOus9hbBLqWHhtTHqAoAKBsJkCHPU31NUQlKE+NW3aNDUOChcVUBY8AF3ZEPxiFjwD64D3WLRokc7xwbIIVlBfBEw6gUAA04rj4gvysc9xQcY+Rv38889XAT6COzwf64XABBcczDANBIWYKAIXuTCWCxeLsP0Q9OEi/h//+Ee1XKhp7DgPdwySGoBg58ILL1RXR3BlERE6Tkh8QOCKAU5+O5yc+KJFBI+rIYiaMbnDRRddpCZ1wNWGQJhBBVcLcOIGg5MaAZv9Kp6TGCQ1PQZJzmCQRMEwSKKm1FjlMbs4W6prfS0lTuuU0kn/tvdMkBQMWnMwWxvqQRhnjZYQtASiKx2mvkY9xw4tD5i8CoEA7gGEIAkw8QECHvS+2RMEQ2iBwUVoBBro8oZzGa01JkhC68b//vc/1UqFlg9MqoCWILw3LngfjCAJrdsI+lDfQ0sknoMWT9T77EESLsQ//vjjqnUJrZaYhhzrhjomymGgxQi3okEegiq05qJXE+qjaBUNRQySWiiMSUI/07vvvltdrUB3APQ3xXgiHNx2OAHRHQJwwCCoQoCDmezQFIsrK3a4YoADCldS0G82GAZJzd+xrY6V7/O/l2qvO1+WLQWDJAoGF8NQmTPdoYgOpuZceTwYTHc6bKOWCIEaeh098sgjOic8NefjPEL/pCBwtQBMH3hc4UBXN/QlNf1CDVwlwAk/ZMgQFSABon40p6LrXiBcncBVF354tmzT8qYxQCJyCa5AM0Aicgcq1i0lQEILEu67hK5+GJOH1icMp7j44ov1EhSKWnyQZK5kBGOCG7QGAfrKos8smkDtg4cB9zvCa6FJ1EBAhUHeGFNkJlEwcHMxvB76qVLLdVG7iyQmwtfVgIicha4yaK0nIudhsgIzSUpzh5mPMZEEhmtg3BHuFXXrrbeqCQ4odLX4IOnDDz+U++67T0X36DKHB1qFMNc9ZiPBVUYM+jMwSA+tSOiDi8F6WB7BFPrDYqIHM+scoBUJrwHoB4svZCz/3//+V/U5xV2U0WeXWq6kqCTxYDo3InIcPstbSiWNKNRgtEdLGfFx++23qwvmuOnuvHnz5JNPPpGzzz5b/5VCVYsPktDUi0kYMHMIInqMEcLUlM8884zKMwMADcx09+abb6ovVgQ5mHwBrUFoMcKBb+4FYKD7HQYDYsY7LIvHDTfcoMY1YTAhERERERGFFk7cYEHXOUyziDnd0WUO/dQx0wnut4AuccHg3hyYxQ4Df3EfCQRYeF5DcC8HTI2JeeQxswmWNzO6NIQTNzR/I9NGyoLCBRyX1MQ4cQMFg9lIcZ8ofCYTHWycuKFxLX3ihuaCs9uRKxgkER0cDJKIyGkMkqgl4Ox2RNQkcJ+k2IhYnSIiJ+E+SbhPCRE5D/c6woMoVDFIIiIiIiIismGQREREREREZMMgichFCwsXctIGIpfEx8ermUmJyHm48b65+T5RKGKQROSi5SXLpcZbo1NE5CTc2y49PV2niKghmP33/fffV/d5xP3FAmHGX/wdj/Lycp3bOARIDc0gjJmDR40aJf/73/90jshll10mV1xxhU6FFtxfc+TIkfLll1/qHGoOGCQRueiyDpdx4gYilxQUFMiaNWt0ishJvawHZpB147Hvtm7dKn/729/koYcekhkzZujceq+99pr8/e9/V8sgYNgbmLRhX27m3K1bN/UgcgqDJCIiIiLao169eskbb7yhUz5oOXrrrbdk3LhxOqdp4Mb8f/7zn3WKqOkxSCIiIiKiPRo/frz8+uuvOuUzd+5cSU1NleHDh+scf+vXr5cHHnhAJk+erH5i6v1A6F6Hv1133XXy8ssv61x/f/3rX9Uyxscffyy/+93v6m5Ka6Bbnj2Qe/bZZ9XrIpj717/+pX6fOnWq/qvInDlz5JZbbpFbb71VNm7cqHMbtzfri5tVYz1+//vfq7I/9thj6nl2K1eulKuvvlrloysjynP//ffXtcZlZ2fLgw8+KNdee63qyhh4a1PcR/Phhx+Wa665RpXh888/13/xt2XLFvnTn/6kXv+TTz5Rrejouoh7cdoVFhbKP//5T7W+99xzj7oHUkvGIInIRbMKZnHiBiKXJCQkSGZmpk4R0Z4MHjxYPB6PX2X8m2++kUMPPVTlB3r77bfloosuUmOW+vbtKzk5OXLyySfL4sWL1Q1IMS5p27Ztcuqpp8qPP/6oWqp++OEHVemvqfEfr7tu3Tr1MPCauM9ZYOCwbNkyycrK0ilfgLBkyRK54IILVDDSsWNHmTJlivzxj39UP5977jnp3LmzCt7OP/98tT6NQdfDU045RZXBrO9vf/vb3cZqoeXr+++/l06dOknPnj1VMDZhwgS13gbWB+t75513yrRp09RyWNdzzjlH5d9www1qG7Vu3Vp1Z3z33Xf1M30B1PXXX68CnsMPP1zi4uJUgPWHP/zBL3DEep599tlqebw+gksEQHj9srIyvZTI/PnzVbkQBB9yyCEqqJw0aZJ8+umneomWh0ESkYs2lW2SWu/ug2CJqOlFR0dLUlKSThHRnmCyk/POO0+efvppFcTs2rVLBQKXXHKJXqIeApVHHnlEVe4ff/xxufnmm9VPBEl33323qsgjsELFHj9feukl1RqCZQYOHLhbC9GBwGvde++9qrveXXfdpR5ff/21LFiwQP7zn/+odUNLDwKuDz/8UD9rd/g71hcTTtjXd8CAAbutL94DQRhaqG6//XZ59dVXpU2bNqo1yw7jstq3by9PPPFE3Xrs2LFDBUBoJUIAhVarE088US1jbsCLmTm//fZbNU7spptuUj9feOEFtT8QGAKWRTCI4MiU85lnnlHb2x7UIdBCcIWWJvwd5cK+w7qjBS9Y619LwCCJyEUXtr9QYiJidIqInISuJYHdTYiocccee6yqxO/cuVO1MqDijxamQIsWLVKVcfwdXe7wQHc2BFloUUIarRsLFy5ULUfosgd4zuWXX65amg4WTPeP1hbjsMMOUz8RDCDwg+Tk5LqWnIagzCgXuqOlpKSoPKwvuvgFTmeOv2M7oUvdrFmzVLdEtLghsLEHKCgnWqLMTH8ImACBYvfu3dXvgO2G1h3MNAh4Hl4HARFasxAcbd68Wf3NtLjh8w3rgMAuJsZX18DzUG6st4Fue3j/I488UjZs2FC3v3r37q3KZYKuloZBEhERERHtFVTcUXFG9zA8xowZo//iz3SFQyvTueeeW/cwrU4Ys4MWDBg0aJD6aaDrWGDQcSAQAKDl2MBrI0gwgY6RmJjo1wUtkGlROeqoo9RPI9j6vv7663Laaaep8mJcElplEFQisLHP6ofn2Z9rgkN007Mzrd6mxQqteGhdOuuss1TQhpYgtF6B2a74idfr2rWrShvoamyffh1BK/bHxRdf7LevrrzySrWuFRUVesmWhUESEREREe0VVOhRIcdYnhUrVshJJ52k/+IPLTQIRNCtbebMmbs90KpigoPACQ0QSASONQpkbwkx7C00TcEEMIHTnAeuL1rM0A0PXeXQcoRufWiBQosZ7KlsewPjk7AeCMZmz56tWuS+++479Tfz+ti+WLfA7RK4vgggESBifFmwfRUYxLYUDJKIXDQ9bzonbiByCSoFpmsLEe09jCtCRRvd0xDsBDNkyBBVEUeLB7q7BT7Q/QutJfhpn5AAtm/fvscxSbgRNJaxL2efFKEptGvXbq/WF13iEFAdd9xxqrUKrTYYw3UwbzaLbnzoIogucSYgDSx/hw4d1H4KnPUOs9bZA6cuXbqoFjSMIwu2r+ytTi0JgyQiF22v2s6JG4hcgqus6CZDRPsGFefp06eryQiCtehA//79pW3btmrSgqVLl6quXxjTg9/RyoLnodsXunShtQktLlgGs6uh29ieWlv69OmjWqAQeKAbHMbNoHWrKaHcmDr7q6++Uq02Zn0xEYVdq1atVDc1tPIgcEEQhanCD+YECJgtsKioSI1Hwnr88ssvu91HCkHoMcccoybPwCx3GIeJ7Y+JIOz7DeO1+vXrp6YaR6sX1hMPdJnERA4IdFsiBklELjov8zxO3EDkElQwMDiZyHmdrUcPlx7OwBgaTDeNVghMTHD88cerFijM2obpvhFE4IFppo844ggVaJxwwgkqaBo7dmzdRAMNweQLmLIas7DheZji20z+0JQuvfRSFQAikLOvr33ME8YAYZwQgkis4xlnnKG6xGHZgwXTemOGO9yrCeuB9xs9erT+a7377rtPtYAhAMI+wPgoPAf7xbQQodULMxZivBm6UuL1MN4J93Bq6N5LLYHHitQPvGMkNYmJEyeqmUkw64gbPPcFvzpEB8/kTpNl6rapUlHbMgdFOmXapGkyvvt4nSLywZVSDFjGFVmigw1dmlD57NHDucCkqaCrGMa/IPCxTzJgh+mm0WUL3cvsrRTo1oV8dEdDPoIJtOCayQsQDKEqilYhLGv+josYaGkywYcZB2Sfth/Pw4QDWD9sayyP1hK8Jlp9AH/He9snacD7oHUE3dXsXcmwDnjNPd0aYG/W16wb3hvbDOuD3zFDndlGSON1ArdZYBnA7AP7OuP52LZ4LyyPbndYDzzPHmTiuVgXsxxmvDvzzDPlnXfe8ZtBD383+wqwTVE2+zYK1JyO80BsSSIiIiKiBqGSj1aahgIkQOUby9gr+4AKNsb/4W8IBlCBD1wGaQQm9r9jeRNwAP4eGLxgObw2nocABfA8e3CBfPzdDuuE5QIr/3itPQVIsDfra9YN+VgW2w5BDNL4GyC4sKcN5NnLAGYf2NcZz0fQhPVAMGPWwx4gmSDNLIfn4F5NyEMLkx2eb7YXHvi9sQCpuWOQROSir3Z+JVXe+qlAicg5qLjg7vtE5DxU1vGgpoV7J02YMEF1D0TXO0zzjXFHuDFtYCBG/hgkEbmouLpYNW8TkfNwhdR+5ZeInINWi8AWFDr4MMMdph5HqxC60o0cOVJ1sxs6dKheghrCIInIRWdlnsWJG4hcgr77uLs8ETnPTNxATQtd/ExLEma5u/HGG9mCvpcYJBEREREREdkwSCIiIiIiIrJhkETkok9zP5WqWnY3IHIDJm7o3Bn3qyEip3HiBgp1DJKIXFTt9d2LgIich0HjLXl6WyI3ceIGCnX8diBy0Rltz5DoCM6uReQG3Exy48aNOkVETuLEDRTqGCQRERERERHZMEgiIiIiogbhhqR33323/Prrrzqn3po1a9TfCgoKdI7ITTfdJJdddplO7b077rhDrr32Wp06cLNmzZJRo0bpFNG+YZBE5KL3ct6TytpKnSIiJ6WkpEi3bt10ishBvXphUI47j/2AAOiLL76QHTt26Jx6yMPfcKNSY+zYsXLiiSfqVHC4kTNv5kyhjEESkYswHslj/SMi53m9XvUgooPrzDPPlAsuuECniMITgyQiF53e5nRO3EDkEk7cQNQ0gnW32759u1x//fUycuRIufPOO1UL1Nlnny1/+ctf9BL1ioqK5He/+52MGTNGbrnlFnWu7gkueEyfPl1OPvlkOemkk+TTTz8NehHkp59+Uq+J1z7uuOPkySeflMpK/x4df/rTn2Ty5MmSn58v1113nRx99NHy4IMPqokm8Jqff/65nHbaaeoxd+5c/SyfiooKee211+Tcc8+VYcOGycUXXywLFizYbV1qa2vljTfekGOPPVZOP/10Wbhwobzzzjtq/e1Muc444wwZPXq0Wvfc3Fz9V2pKDJKIiIiIqMmsW7dOzjvvPNmyZYvcdddd0qVLF7nyyiultLRUL1Fv06ZNdQEGAoJffvlFLbsn//nPf+T2229XAQ2CNAQcTz31lP5rPQRlXbt2VeOoLr30Uvnkk09k0qRJ+q/1tm7dKhdddJEKTG644Qb59ttv5bbbbpN///vfqnshAr5DDjlEreOqVav0s0Q+/vhj+e677+Scc85R74UuvXj+s88+q5fwueeee9T6YbtcffXV8o9//EM++OAD/dd6KNOf//xnFZBh2yEIQ3Bpf09qGgySiIiIiGiPnnvuORUo2B/PP/+8/mvDECC0bt1a3nrrLTn11FNV68zll18edIwTWpEQ8FxyySWq297999+vgqzGgoK8vDx5/fXX5cILL5Q//vGPqjUG64Vxh4HefvttFURhzBTe480335ScnBwV+NjhNR977DH1mgjabrzxRpkzZ46aqOLxxx9X74HApmPHjvLMM8/oZ4lqFXrhhRfk/PPPV8s88MADqrxofTLQmvXVV1/VtVghAJo6depuLVqfffaZWvbdd9+Vq666Sr0eWr7QCvbwww/rpaipMEgictGr217lxA1ELklNTZVeGEBPRHsFQQeCHfsjOTlZ/7VhK1asUC1D8fHxOkdUsBQXF6dT9Xr27Cndu3fXKZH+/furn3iNhmAWO7Sw2FuEYmJiVLe7QOgyh+5rCEoQjKHFKTY2VnWJs8N69OnTR6dEDj/8cNVFDsGPuQluVFSUykfrl+lOh/fdsGGDfPjhhyqoRACFwArdDY2vv/5aff5gGxhJSUkybtw4nfL55ptvpFWrVjJz5kx577331AOtTXj/7OxsvRQ1FQZJRC5qF9uu7sOWiJxVXV0dtLsPEQWHAAHjiewP5O0JWocyMzN1ygcBBoKsQPZACswMeOXl5epnMAgYEHAhoLDLyMjQv/mUlJTIFVdcobrB/e9//5PZs2er1iHkB457SkhI0L/5IPiBNm3aqJ8G8u3jjdAihS50L774ogrG8PoI8Ow3zkXLFcoe+P0f+NqFhYWSlZWlAjn7Y/Xq1aoFi5oWgyQiFx3f+niJ9nDiBiI3oGK0bds2nSKipoJAAueb3cG8SIHACi1JaOmxCwysXn31VdWi8+WXX6pud0jj0b59e73EgUM3P3Tlw9gkdAHE6//+97/Xf/XB+gYL+gLzEEgOHDhwtyAJD7RSUdNikERERERETQYTNSxdulSnfDDGCLPHHQxDhw5VARK6sdktWrRI/+aDFicEROheZ6BrHB4HC8qErnp2gV35sL5oIcJYKzvMcGd32GGHqTFJbPF2B4MkIiIiImoymI3txx9/VJMOYNa4xYsXyz//+U/Vpe1gdDnHLHMjRoxQEy2gCx0CkFdeeUV1d7MbMGCACkzQuoNW5Pnz56vJExITE/USBw7jqTBj3pIlS1RZ0e1u2rRp+q8+J5xwggoc8d4IgjDrHyaDWLlypV7CB7PvpaWlqUkb0G0PQR662mHq8L/97W96KWoqDJKIXDRlyxSpqK3QKSJyUnp6uvTt21eniKipYFY2M8MbZqzDlNYInDCGKHDsz/7ClNpowcGU2Zh+G5M5ILiww8xzmEkOgQvWA4EGbnqLKcEPlptvvlm1VP32t7+V3/zmN6p1CDPY2aH74UMPPaTGUWE5zKC3efNmtXxkZKReyvcZhcCybdu2qnwTJ05UZUJXvsAxXnTwebyBd7eikIGTYe3atbJ8+XKd4yzPfZxQoKkdkXSELC9ZLjXeGp1DTWHapGkyvvt4nSLyQf9/dGMJHOxNdDDgij/GlPTo0UPnkB3GKOFGqnfccYcKWEhU6xq6CGKq9HDRnI9ztiQRuWhE2giJ8kTpFBE5qayszG9aXiJqOoHjj6ZMmaJaTdCy0xJhxj87dP/DtOGYqIFCA4MkIiIiImpSuCcQusHhBq7oKYPWEtzU1Uzx3dJgFjx0Q7zoootUNztMG47uv9gmFBrY3S6Esbtd8zep/SR5K+ct3lC2ibG7HQWDe5Dk5ubyhrLUJNjdzh+2xy+//KLuR4RxSLgJK8YCmfsPtTRoWfv555/VZ1BNTY106tRJhgwZEnbbozkf5wySQhiDJKKDg0ESETmNQRK1BByTRERNYmTaSI5JInIJJm3Ane+JyHloPcENZYlCFYMkIhf1T+ovkZ766T6JyDm4Q//BupklEe0bBEm4ASxRqGKQRERERHSQYUICtJRwVAM1Vzi+EezivlDNEYMkIhflVeWJ1/pHRM7D9MPN9cud3JeWlqZaStBayRaT3Xk8HvWg8IQACZNOQEZGhvrZ3HDihhDGiRuIDg5O3EBETsMV9k2bNqmbFgOCcqLmAsc34GJA+/bt1e/NDYOkEMYgqfk7sfWJ8m3et1LlrdI51BQYJFEwxcXFUlBQoKbeJWoqJSUlkpeXx0kKApjgMS4uTv2k8IKpytGC1Jxb4xkkhTAGSc3f5E6TZeq2qVJRW6FzqCkwSKJg0A0Ks9vhBo5E5KytW7eqboidO3fWOUShhWOSiIiIiIiIbBgkEbkoqyJLar0c0EvkBtwAMT4+XqeIyEnoroUHUahikETkoo9zP+Z4JCKXJCcnS9euXXWKiJzUpk0byczM1Cmi0MMgichF52eeLzERvJJG5IaioiJZt26dThGRkzAeMCsrS6eIQg+DJCIXpUWnicf6R0TOwxS2lZWVOkVETsJsf5zxj0IZgyQiIiIiIiIbBklELtpYvpETNxC5JDo6WpKSknSKiJyE+yPxHkkUyhgkEbnoix1fcOIGIpcgQOKNZInc0bp1azV5A1GoYpBE5CLcTDY2ovnerZoolOFmsqtWrdIpInISbia7efNmnSIKPQySiIiIiIiIbBgkERERERER2TBIInLR2tK1UuOt0SkichLu9p+SkqJTROSk+Ph4SUhI0Cmi0MMgichF3+V/J9Ve3ieCyA2ooLVv316niMhJ6enp0qpVK50iCj0MkohcdFXHqzhxA5FLCgoK5JdfftEpInLStm3bZMuWLTpFFHoYJBEREREREdm0+CApNzdX/vznP8upp54qhx12mHTu3Fn9PO+88+Tbb7/VS9V76623pGPHjkEfXbp00Uv5W716tVx66aXqdbt27SrDhw+Xhx9+WCorK/USREREREQUKlp8kLR06VJ5/fXXJTExUa644gr517/+JRdffLH8+uuvcuWVV8rXX3+tl/T36KOPyhNPPOH3ePzxx/Vf6+3atUsuvPBCWbRokVxwwQXy4IMPyiGHHCJPPvmk/PWvf9VLUUv1S8kvnLiByCWYuCE1NVWniMhJGBOIuhdRqPJ4Lfr3Fgk3Egx21/U1a9bI8ccfLx06dJA5c+boXF9L0h/+8AfZsGGDREdH69yGXXPNNfLZZ5/Js88+q1qrDLRU4XW/++476d27t871N3HiRFm7dq0sX75c5zjLc59H/0ZNJSYiRipr2aLY1KZNmibju4/XKSIffP3hERHBnudETqutrVU/ef5RqGrxR2bfvn13C5AAgcvQoUPVHdn3N44sLi5WQVC7du3klFNO0bk+N954o3rdKVOm6BxqiSa1n8SJG4hcUlhYqC6IEZHzsrOzZevWrTpFFHoYvjcCMx9FRkbqlL8VK1aobnrvvfeerF+/Xuf6Q5CEcUfHHnuseDz+rTIYlxQXF8eZlVq4SE/w44uImp5pSSIi5/Hco1DHIKkBs2fPVoFQ9+7ddwtwAC1Dt99+u9x0000yZswYOfPMM1UXPLuSkhKprq6WXr166Zx6UVFR0rZtWxWINQYfIkVFRX6Pqqoq/VciIiIiIjrYWvyYpGAw2QLGA6EZ+L///a8cfvjh+i+ixhFhnBBahxDkYJmXXnpJXnjhBdUyNHfuXMnIyFDL/vjjjzJhwgQ1GcRvfvMblWeH10Br0/z583WOP6zDDz/8oFP1brvtNhk3bpz6fcCAAWp9161bp9Lo29u/f3/ZuXNn3f0H0BrWr18/1bSdk5Oj8hCkYba9zZs3qy6F9jy8FtbrmUXPSGlNqbyW9ZpMaDNB2sf6brqIvFezXpWz2p4lbWLaqLzsimz5KPcjOS/zPEmPTld5mJRgev50uajdRZIUlaTyFhQtkMVFi+XyDper8Tjw9c6vZV3ZOpncabJKw7vZ70qVt0oubH+hzhF5fuvzkhmTqdYFMOHBy9telu7x3WVcK9/2wHNe3faq9EvqJ0NTh/rlDUsdJocn+fYlxgGhDONbjVfPh6raKpmaNVVObH2idInzzVSIG72+sPUFmdhmYl35d1btlPdy3pOzM8+WjGjfvl5bula+yftGLmh3gaRE+e7g/0PRD7KoaJFc1uGyui513+Z9K2tK19SVFeV5dsuzUlxTLBe1v0jlwStZr0hqZKqc3vZ0la61/r2e9bpah+NaHefL89aqfdMroZeMTBup8rBNkDcgeYAMTB6o8rDcy1kvy8jUkXJI4iEqD7A9x6WPk54JPXWOyJQtU+SUjFOkc1xnlS6oKpC3c96WM9qeodYV1petl692fiXnZ54vadFpKm/JriUyv3C+XNrhUomLiFN5M/JnyMqSlX779bPczyS/Ol8ubn+xzhF5K/sttX3ObHumSnutf8hrFd1K7Qvjjaw3pFNcJzk6/WidI6qshyQcIkNSh+gcUcfEoJRB0j+pv84RuejYi6RbZDfJy8vTOb5zBxc20OUKYmNjVfdbnN84/iElJUVdKEGLb3l5ucrD+Y3ZLDFWEBdBAGMX27RpIz/99JNKQ7du3dTAZFxsMdCNFxddMOOl0adPH3Xhw94ijcldysrKZNOmTTpH5NBDD1UXSezdU3C+4lw35zWYc33Hjh06x1dWvJY5101Zca7j8wOSk5OlR48eat3w3oAbPWLGT5TBXJxB9+HMzEy/smJmTzzfPn6yZ8+e6rPHXlZcMMJXDraxgW2C17ZfZEL5S0tL1eeTgfJjX+HeKgbKihlK7eVHWfHZh+0CmJwBz8X2xfYDjEPF+q1cuVK9Ju78jxtbohz2suIzHjebtZcV+z4tLc2vrNjX2Kb2ngHYlvg8xiRABsqPcRjm8xqw/ysqKmTjxo06x9cNHBfZ7OVHWVGmrKwsneMrK44Hs69NWfFa5gIcBsbjfbEeeE3A+mOmVZTfzLKK4xfHsb2sKDuOAXtZcTzgNTGe18Brofz2fY3y41i372usR01Njd+xjrLi3LLvf3znYv3txzrKirJv375dpTEmGMe//bjG+YbjKdg5bC9r69atVTd7e1lxTGMbLFu2TOf4zmtM7IHnGig/3se+r7H/sT72rps4vlB++/7HcY1jy77/UVYcl/Z9jbLimMZ5DKasWMZ8huGYxbET7BzGvsExBea4tpcV5UR57WXFeY19bf+8wrGO17Tva7wW3jvwWEf9IfBzDee6fZugDDivzb7G/jDnvzmv8TrYJvbj2pQ12DlsLyv2FfaFvawoE8qBSboMlB/ntv24xrGObWUvP44RlN++//H6qOvZtwnKgM86ex7KiuPavq+xX1Emc1ybsqLs+BwDvDaOE/t3kzmH7d9DZl/by4rzGsenvawoP45jlNVU91F2bAOU1eSZzzV7Hs5rvDfKb/KwHvicsW8nfOZgH9qPdZQVxyqOWRwz2LbhiEFSAFR6Tj/9dHWQ3XXXXTJ5cn0FrzGYmOG+++5TM9ZhVjzAwYsWp0ceeUTNcBcIgQ4qI/PmzdM5/hAk4aCbPn26zvHBhz5OpKbGiRuaHoKDilrfBzw1HU7cQMHg6w9BS0Pdqomo6XDiBgp1PDJtECCh29ySJUvkjjvuUDPT7S0EVrgqMG3aNJ3ji+pxJclc0QyEqz+4+tYYPB9Rv/3hRIBEzkCLCiduIHIHrtTaWzqIyDloKbO3DBOFGgZJGroAYMY5dJG7+eabVQsSApS9hSuRWB5NyQaaiBE42Zu0DXQFQLcBNPtTyxXlidK/EZHTTEsSETkP5x87M1EoY5BkwZckutZ9/PHHcskll6jJGBDc7Av0MUVLFPpmGqZbHLrLmT7DBu6dhMBs5EjfWBIiIiIiIgoNDJIsGEv06quvqkkW/v73vzd6k1jMemcGNRsYmIeWJ1wRwU1iDQRI119/vWo1wpglc8USg0yffvppFURdccUVKo9apnkF89TkEETkPLT2owszETkPEy1gWAJRqGrxEzd88MEHcsMNN6iZQk4++WSd6+/RRx+t63qHGUDQyoQbzWJ2GEysgEkekHf11VfL3XffrZazM7PUYaYQzGTy1VdfqfyHHnpILrqofkazQHge+svbZ2BxEiduaHqcuMEZnLiBgsHXHyduIHIHJ26gUNfig6SpU6eqrnaNwXSyJkj64osv1LTgmLkOU3RiWsPjjjtOddFDABUMpqdEMPbUU0+pgYrDhg2TP//5z2qax8bGPTFIav6u7HilmsaagVLTYpBEwWCaaYwNxfTCROQsTNqAQAlTbROFIk4BHsIYJDV/uIfQ1G1TGSQ1MQZJFAy6PuNiF+7VQ0TOwlhuBEm4tw9RKGIbJxERERERkQ2DJCIXfZv3rVR5fXf3JyJn4W7yuNM+ETkPwxVatWqlU0Shh0ESkYs2lm+UWi/v00LkBsxkikl7iMh5mAEYM0wShSoGSUQuurT9pWqGOyJyXmFhoaxZs0aniMhJWVlZalwSUahikETkoggPT0Eit2DeIs5dREREwbCGRkREREREZMMgichFn+R+IlW1nLiByA0Yj9SlSxedIiInZWRkSJs2bXSKKPQwSCJyUU5ljtRa/4jIeZGRkRw4TuSSmJgYiY3lmFwKXQySiFx0VcerOHEDkUsKCgrkl19+0SkictK2bdtky5YtOkUUehgkERERERER2TBIIiIiIiIismGQROSiN7PelMraSp0iIielpqZKz549dYqInJSZmSnt27fXKaLQwyCJyEWRnkj9GxE5DfdIqq3lxClEbuB9yijUMUgictF57c6TmIgYnSIiJxUVFcn69et1ioictH37dsnOztYpotDDIImIiIiIiMiGQRIREREREZENgyQiF03ZMkUqait0ioiclJ6eLn379tUpInJSx44dpXPnzjpFFHoYJBG5qHt8d4nw8DQkckNlZaXs2rVLp4jISWVlZVJaWqpTRKGHtTMiF53Q+gSJ9kTrFBE5qaSkRLZu3apTROSkvLw82blzp04RhR4GSURERERERDYMkohchBvJeq1/ROQ8j8cjERH8GiRyA84/PIhCFb8diFz00raXVKBERM5LS0uTPn366BQROalDhw7SqVMnnSIKPQySiFw0IHmARHoidYqInFReXs4xEUQuwaQpuKEzUahikETkouGpwyXKE6VTROQkzK6Vm5urU0TkJARIhYWFOkUUehgkERERERER2TBIInJRSU0JJ24gcgkmbYiKYksukRsiIyPVgyhUMUgictFrWa9x4gYil6SmpkqvXr10ioic1K5dOzV5A1GoYpBE5KIxaWM4JonIJbjbf3Z2tk4RkZMKCgokPz9fp4hCD4MkIhcdlnQYZ7cjcklFRYWqqBGR80pKSqS4uFiniEIPgyQiIiIiIiIbBklELiqqLuLEDUQuwcQN0dHROkVETsKkDZw4hUIZgyQiF72Z/SYnbiByCSZu6Nmzp04RkZMwcUP79u11iij0MEgictEpGadItIdXsoncgPEQW7Zs0SkictLOnTt5M2cKaQySiFzUOa6zRHh4GhK5oaqqigPHiVxSXl6uHkShirUzIiIiIiIiGwZJRC7Kr8rnxA1ELsHA8djYWJ0iIidh0gZO3EChjEESkYveyXmHEzcQuSQlJUW6d++uU0TkpMzMTE7cQCGNQRKRi87NPFdiImJ0ioicVFRUJOvXr9cpInJSTk6OZGdn6xRR6GGQROSiVtGtxGP9IyLn1dTUSEVFhU4RkZOqq6vV5ClEoYpBEhERERERkQ2DJCIX5VXlceIGIpdw4gYi92DShuho3ieQQheDJCIXvZvzLiduIHIJJ24gcg8mbmjXrp1OEYUeBklELuLEDUTu4cQNRO7hxA0U6hgkEbmIEzcQuYcTNxC5hxM3UKhjkERERERERGTDIInIRZy4gcg9nLiByD2cuIFCHYMkIhdx4gYi93DiBiL3cOIGCnUMkohcdF7meZy4gcglnLiByD2YuCErK0uniEIPgyQiF6VHp3PiBiKXcOIGIvdg4gY8iEIVgyQiIiIiIiIbBklELtpcvllqvbU6RUROwqDxxMREnSIiJ8XFxakHUahikETkos93fC5VXt4ngsgNSUlJ0rlzZ50iIie1bt1a2rRpo1NEoSesg6T8/Hx5+umn1QO/E4WbC9pdwIkbiFxSWFgo69at0ykichInbqBQFxZB0oYNG2To0KHy7rvv6hyRzZs3y/HHHy8PPfSQeowdO1ZWrFih/0oUHlKiUjhxA5FLamtrpbKSU/ATuYETN1CoC4sgacGCBbJjxw4544wzdI7I1KlTpaCgQO644w55/PHH1SxFTz75pP4rERERERHR/gmLIGnLli3Stm1bvzszz5o1SwYNGiQ33HCDnH322XLSSSfJ/Pnz9V+JwsOK4hVS463RKSJyUmxsrKSlpekUETkJk6ZgXCBRqAqLIKmqqkoiIyN1SqSsrExWrVolo0aN0jkihx9+uOzcuVOniMLDzIKZUu1ldwMiNyQkJPCO/0QuwQWK9PR0nSIKPWERJGH2k9zcXBUswUcffaT6ko8fP16lobi4WGJiOACewsvF7S/mxA1ELsHEDb/++qtOEZGTsrOzZdu2bTpFFHrCIkgaPXq0uiv6pEmT5I033pDHHntMunfvLv3799dLiPz000+cypXCTmJkIiduIHIJLrZx4DiROzCWHA+iUBUWQVKfPn3UBA0//vij+olWI/w0vF6vLF26VAYMGKBziIiIiIiI9o/HCjC8+veQh1XFuCPcgMzjqb/6jjFKy5Ytky5dukhmZqbODX8TJ06UtWvXyvLly3WOszz3sYWjqQ1IHiDLipdx8oYmNm3SNBnfvb57LhGUl5dLSUmJ+k4hImft2rVL1etSUlJ0DlFoCYuWJAOBUUZGhl+ABPHx8TJkyJBmFSBRy/DTrp8YIBG5JC4ujgESkUuSk5MZIFFIC6sgCfdF+sc//iGXX365XHDBBTrXN2nDf//7XzVVOFE4ubzD5Zy4gcgl+E5ZvXq1ThGRkzBpA+ttFMrCJkjCfZGGDRsmTz31lMydO1elDcyz/7e//U2ef/55nUMUHhAgceIGInegqw8mbyAi5+H8C6MRH9QChUWQhKt9V111lbqfxYIFC+SPf/yj/ku9I444QubNm6dTRERERERE+ycsgqT//e9/agrwL774Qtq3b69z/R155JGyfv16nSIKD1/t/EqqvL77fxGRs3DH/44dO+oUETmpVatWHBNIIS0sgiT0WUVwhAkaGoIvOwRSROFkfdl6qfWyuw+RG3ADcgweJyLnoU6XkJCgU0ShJyyCJARAmOa7MWvWrJH09HSd2ns5OTly++23ywknnCB9+/ZVN6Q99NBD5YwzzpCvvvpKL+UvLy9PrrjiCtXFr1u3bqoV64YbbmgwSFu1apWaaAKv27VrVxk6dKg88MADDOpIJneaLLERsTpFRE7Kz89Xn89E5LytW7fK5s2bdYoo9IRFkDRo0CDZsWOH6nYXDAKo7777Ti23r3APovfff1/atm0r119/vTzxxBNy9dVXq9aryZMny+eff66X9CkqKpJzzz1XBVAIpDDb3vHHH69m1zv77LN3C+aw/IUXXqju44TA6pFHHpGBAwfKlClT5C9/+YteioiIiIiIQkVYBEnDhw+XkSNHqtaar7/+Wl39AwQyS5YskWOPPVaysrLk0ksvVfn7olOnTjJjxgx57bXX1OufeeaZcsstt8jbb7+t/n7//fern8ZHH30kv/zyi9x7773y17/+Vc4//3x5+OGH1XMXL14sc+bM0Uv6Zm65+eabVWsVlrntttvkvPPOk2effVZGjRolr776Kq9iEhERERGFGI9VkQ+L+RdxL6QTTzxRNm7cuNvNZFGEp59+WiZOnKhzDg4EQD///LOsWLGi7j0nTJgg69atU/mRkZEqD7Zv365uaItg7s0331R5WGd0xUtNTZVFixapPAPBFFqk8B6PPvqozvWH8qxdu1a1drnBcx+npm5q6VHpUlBdIF7rHzWdaZOmyfju43WKyKempkaqq6slNpZdXomcVlXlm7QoOjpa/SQKNWHRkgS4F9L06dPVDHc33nijnHrqqap7G1poMC04gpeDDWOP7IEQxhD99NNPauxTRIT/pkMghBMdwY858REkVVZWqpauQLjnE+72zhsZtmzV3mr9GxE5DRe/Aj/LicgZOP8CL3oThZKwaUlyGrrgYSwRxjl9/PHHKg+tOkcffbQMGDBgt7FK2Iz9+/dXXQEXLlwoHTp0qFseY48wzinQiBEjJCoqSmbOnKlz/KElaenSpbu1kCFAPOyww9Tv6C5YXl6uxmwBPnAwpW1JSUldt0RUArA+GB+FByD4w32ncA8qLGvP27lzp3rNC96/QCq9lbKwcKH0T+ovKVEpajnkLShcIAOTB0pSZJLKK6oukp+Lf5ZBKYMkIcI3W832yu2yunS1DEkZUjc5wcbyjbK5fLOMSB0hkR5fALqqZJXsqNoho9NGqzQs3rVYarw1MjhlsM4RmVM4R5Ijk9W6AFpf5hXOk9bRraVPQh+VV2v9m184XzrEdpCucV1VXo31D+vbLa6btI/1TSGP155fNF8OSThEPV/lWf/mFcyTw5IOUy08gNebUzBHjkg6oq78JTUlav3s5cf6oxxY37iIOJWHcqK8w1OHS5QnSuVhe2C7mLIe1+o4eWLTE1JSW6K2k4EyxEfGq/cFlHVh0UK1Dn0T+tbloVxtYtpIj/gefnkd4zpKp9hOdXl4ve7x3SUzJlPlAcrVJ7GPZERn6ByRWQWz5PCkw+vKX1ZbJj8U/SADkgeobQ87q3bKypKVclTKURIf4ZtxckvFFtlQtkGGpQ6TaI/vquCvpb9KdmW2335dVrxMvaa9rHh9bB+8h7GoaJEkRibKoYmH6hxfXlpUmvRK6KVzRBYULVBlMvsaUNbOcZ3VMWA8cPoDckTqEXXHOuDcwbFuxhHiIkdmZqbk5ubWTaqC2ZcwRS26zJqLH7hgk5aWprr4oiUCkEa+/e7xeB5mT8NyBsY+AlqeDbwnXsecw4A8vB8u1Bg4N3Fe4pw1MOsnymTOa8D5X1hYqC7SGCgrXqu0tFSl8bmD18N74jUBF20yMjLUuuHiDmDSHFwUspcVF4QwI5y9rJjKF60x9rK2adNGffZg2xnIA2xjA9sEr419YaD8WAfzGQYoK/aVvfz4XEM57eVHWfE8s69NWe372pQVt43ANsBrm7JmZ2er1iVISUlRD3tZsa8xI9e2bdt0jm9f4/jBcw28Pspv39coP74rAvc13s9efqwvjkF7+VFWlAn71kBZsT3MvjZlte9r7Be8r/24xvpjn9nLin2KfWsvK9LYLvay4nk4ru1lRfnx/WEvK8qP76PAfY2b99rLj/XFsW4vP8qK9bfva5QVZd+1a5dKN1ZW+3FtzmF7Wc2+tpcV+xnnsL2s2Nd4vv24Rvmxr+3HdbDyBzvWg53rOPawX+znOsqKcpp9jdfGcvbjGvsA29NeVnNc28tq9rW9rNjXeNjLivJju9jLivLjNe37Olj58Z5YR3seyopj3b5NUAac12Zfozx4D+wLs69NWe3Htflstp/DZl/bP5vNvraXFWXCe2CSCCNY+XGsY1vZy4/1wvsEHuum/Kb6jP2Ac92+HMqA9bLva+xX7D9zXpuy2o/rvS2r2df2smL9sc72sqL8KBvKZdbXHOv2PHOsowwmD/valN/kYT1w7tm3E8qA49q+r1FWnJc4rvE6WLdwxEtoQeAL95577lEHF1qqDHPC4uQKhC8DHIhgPrDNBxwOyGBw0JjKSGPwAWp/4GDEAWsOWjBpk2dPB8szd5m35+Fhz0PF1VTuEdCYdLA8E/BEWv9MXoTHd3jZl4vQh5w9z1xJMmk8jMA8j/XPpM174jUD8+zL4R9gfezLYRl7nlnOXoa69wh4LuCnyWusXH551j/wW0b9t62vzg/Mg8CyqjIE5AUuh4fKs5fV5AVZzq/81j+VZyuDeQ+/fW39A5NWeXr/2/MCy48HslBee56v9EHKH1CGwPLjEWw5sB/neATm7c05sS95xt7k2dP1eU9bj0vqHtYnifXz0IC8BOvnAL88rzfaegzxy8NG9npH2/LO0HnH2vLQ4o28U2x5w3XeOba8fjrPpPFAkI51sefhgkS6X55VdbJ+tgvIQ5DeNSAvzXr0DshLtH4Glj/W+jkwIA/rNtyWd6bOG1uXV1t7nMoTud5Kv6/zRqq82tqz6pbDaweWVQQXKeIC8rpYP1MD8jpaPxEU2fNwkQL59Xlebyvr0c0vD/t69/LjPfsF5GHd6vd1ba0p65i6PK/3RJ13oi1vjMrD8vV5uCDlX1bfvvYvq9fb08rDsWjPw0WK1n55KKcVAtny/I/xxh5GY3nBzleTh5/2fLCn9yUv2CNwOcOeZ/ID0xCYZ0+7lWfsb5493VB+YPpg5B3Mfb03eYb9fcG+jMmDwDx7OtgxjEdg3t4u11hesO20pzwjWJ5JN/SwLxPOQrIlCRMjNDT99p5gAoUDgSj99NNPV7PRYXKGK6+8Uv9FVB7GRaEF6L333tO59dCFDlH9rFmzpHv37mrc0sknn6xmtEOrVKBx48apKwXz5s3TOf44Jqn5wxTgU7dNlYpaTgfflMJzTNJt1uOfvl+pSeTn95acnEHSt69voh5qSuFdWaKDDy0eqIDj1itEoSgkgyRMp70/wQ6uRh/InPtonj7llFNUUIIA6ZprrtF/8cFrY6Y93E9p2rRpOtcHm/GQQw5RTamY5Q7Nr5s2bVITOdxxxx1By3PUUUepVimMtQqGQVLzh1YZdP2jpsUgiYLxevEZF2F9d/AcbHoMksifqX6aXhdEocbXHybE4L5DGBO0r4/vv/9ev8K+Qxe2a6+9VgUkCGpwT6NA6OuPLngIhHD1ww5d7BBkoWud6YuMPqPou4kWpUDof4q+yujfSi0XxtOYrmpE5KyamjgpK+NnMJEbMNwAQwiIQlVI1s4woKxHjx779dgfCHgQGOFmtehed91116ngJhAG5h1zzDFqIF7giY2AB1310PpjropgjBICJQRvZlCe8cknn6jADPdLopZrQpsJEh3B6U+J3LBrVyfZtGmcThGRk1CXsk9sQRRqwvISNgIOzEqCmTQQaBwoTNKAexudddZZ6gaxwQIkA2OLMI7o+uuvr5tRBuuDIAvB1qRJk1QeYFaQm266SbU84T5OpvUJs5Y888wzajaRyy+/XOUREREREVFoCJsgCQEGJnRAS83hhx+uJknAmB6MA8LNWANbavbWBx98IFOnTlWtV+gfi7FDgQ/7sC1MtoAbwH755ZdqfBKCHIw7wv2RMIYJ62aHLnxY7sknn1StRujGh2nFMcEDgjNM10gtV63Xv9smETnH4/FaD56DRES0u7C5T9ILL7ygWnnQcoQWmq5du6oWGsyOgu5taJX5+uuv1X0T9gUCpLvuukungkNAYx9YiIANQdEDDzygJlbAPYsQ8CBoCzYAEWOVPvzwQ3nsscfUfPMImu6//37p1q1b0OUNTtzQ/MVExEhl7Z6ngacDw4kbKBivN8J6REpEhO/eI9SUOHED+TO9azCUgSgUhUWQhKm3J0yYoKaJfO6556RXr17qJlyAFiQER7feequccMIJ8p///EflNwcMkpq/3gm9ZW3ZWrYoNTEGSRRMZWWylJW1ktTUjTqHmg6DJPKHCa9QBcWEWEShKCzCd8xch3FCuDcRuteZAAkwhTbGEuF+RDNnztS5ROFhfKvxEu3hxA1EbigpaSdZWbhhLhE5LT8/X/Ly8nSKKPSERZCEmeQyMjLUvYcagnE+nEqSiIiIiIgOVFgESf369VMzwjUWBK1YsUIOPfRQnSIKD9Xeav0bETkNEzdERPBGskRuwJjsxsZlE7ktLIKk8ePHqxnkTj31VHUvokCzZs1SEyP8/ve/1zlE4eG1rNekopYtoERuSE1dJz17fqxTROQkTLTVoUMHnSIKPWExcQPGIr3//vsye/ZsdYPWPn36SEpKipo1LicnR1atWiUdO3ZUs8zZ4QrF888/r1PhhxM3NH8DkgbIspJlUuPl1eymxIkbKJjy8nQpLc2UVq1W6RxqOpy4gfwVFxeriRswtpwoFIVFS9Lq1atVaxFOpoKCApk/f76a0e67776TlStXqnxM0417FwU+iELZ8LThEuVp+ObFRNR0ysoyZPv2ATpFRE4qLCxUdTqiUBUWQdKf/vQn2bx5c90DAZF5NJRv/kZERERERLQvwiJIImquOHEDkXs4cQORezhxA4U6BklELuLEDUTuSU1dz4kbiFzCiRso1IXFxA0Gbhb7+eefS25urtTW1upcfy+++KL+Lfxx4obmb3jqcFlUtIgtSk2MEzdQMBiTtGtXJ2nbdonOoabDiRvIH8YkoQqalpamc4hCS1i0JGEWuz/84Q9y4YUXyquvvirff/+9zJ07N+iDKJwMSB4gkZ5InSIiJ2F2u7y8Q3SKiJyE2e127dqlU0ShJyyCpK+++krefvttGTNmjJrZbs2aNWpWu2APIiIiIiKiAxEWQdKyZcskIyND3njjDXU/JKLmotYbvNsoETnBKx4Pz0EiItpdWARJrVu3lri4OJ0iaj5eznqZEzcQuSQtbZ307v2hThGRk9q3b88L3xTSwiJIOumkk2Tnzp3y448/6hyi5mFk6kjeTJbIJaWlbSQnZ5BOEZGTeDNZCnVhESThSsOjjz4qV199tXzwwQeybt06yc7Otr7ccnZ7EIWTQxIP4cQNRC6prEyxKmrddIqInFRaWiolJSU6RRR6wiJIgiFDhsiRRx4pN910kxxzzDEqPXjw4N0eREREREREByIsgqSioiI5+uij5YsvvpDo6GgZOHCgDB8+POiDiIiIiIjoQITFzWRfeOEFue++++Tll19WwVJkZMvonsSbyTZ/6GpX463RKWoqvJksBeP14jMuQjwenoNNjzeTJX+m+unxsK5BoSksWpIwsA+zoIwbN67FBEjUMoxLH8eJG4hcUlqaKVlZQ3WKiJyUn58veXl5OkUUesIiSOrZs6eUlZXVXXUgai56JvTkxA1ELqmsTJaioi46RUROQr0OkzcQhaqwCJJOOeUUdTPZRx55RGpreeM/IiIiIiJqOmERJK1evVouu+wymTJlipqc4f/+7//k/fffV9OBBz6IiIiIiIgORFhM3PDQQw/J008/rVMNw+C/zZs361T448QNRAcHJ24gchu7yxNReAmLIAk3j920aZNONW7s2LH6t/DHIKn5OynjJJm2c5pUeat0DjUFBkkUTHFxByko6CmdOs3UOdR0GCSRv507d6ohFG3atNE5RKElLIKklopBUvM3udNkmbptqlTUVugcagoMkiiY/PzekpMzSPr2fVvnUNNhVYP8bd26VQVJnTt31jlEoSUsxiQRERERERE5JeyCJEwZOWPGDPn444/lo48+2u1BFE4KqgrEyyusRK6IjKyUmJhdOkVEToqKilIPolAVNt3t0OXsd7/7nep+Zp8GHJM1mCJw4oaDi93tqLlgdzsit/FiEBGFl7BoSSoqKpLLL79cysvL5bHHHpPWrVvL2WefrWa8Q+CUlJQkQ4YMkeeee04/gyg8TGwzUaI90TpFRE7atauTbNoUbsEzUfOQm5sr27dv1ymi0BMWQdK0adPUifTmm2/KWWedJXFxcdKzZ0/V0nLHHXfIzJkzZcOGDc2qFYlahvax7SXCw6GBRG6oro6X0lLOrEXkhsrKSqmo4KRFFLrCona2fv16adu2rXTr1k2l0a2uurpa/Q6YPvL000+X119/XecQERERERHtn7AIkjAGyT64Lzo6WvLy8nTKp2PHjnt9LyWiULGxbKPUeuvH2BGRc6KjSyQpaZtOEZGT0CsoPj5ep4hCT1gESV26dFHjkoyMjAzVxc4+gQPSCQkJOkUUHr7Y+QVvJEvkEgRIvJEskTswvhz1OaJQFRZBEiZlKCwslGXLlqn0JZdcIuvWrVOTNzz66KNy3XXXyffffy/HHnus+jtRuDg381yJiYjRKSJyUlFRV1m//iSdIiInYax5dna2ThGFnrAIkrp37y7333+/mgkFMHkDZrXDWCXMdvfNN9/IiBEj5M9//rP6O1G4aBXdSjzWPyJyXk1NjFRUpOoUETmpqqpKPYhCVVgESXDZZZfJuHHjdErUrHZLlixR45BWr14tb731lmq6JSIiIiIiOhBhEyQRNUdLi5dKjbdGp4jISbGxBZKevlqniMhJiYmJ6j6XRKEqbIOkDz74QI1Fmjx5skyZMkXKysr0X4jCx5yCOVLtrZ/Onoick5CQK5mZi3WKiJyUlpYm6enpOkUUekI2SFqzZo2ccsopMn/+fJ1T78Ybb5SbbrpJPv74Y/nss8/kgQcekPPOO0/y8/P1EkThYVL7SZy4gcglhYU95NdfT9cpInJSVlaWbN26VaeIQk/IBknvv/++LF26tO4GssaiRYvkww8/VFcgbr/9dnn22Wdl9OjR8tNPP8kLL7yglyIKD/GR8Zy4gcgltbWRUl0dp1NE5CTcxsV+KxeiUBOyQdL06dOlbdu2kpmZqXN8brvtNvF6var1CC1KaG168803pX///mqWOyIiIiIiogMRskESpvceNmyYTvmUlpaq5tmIiAg54YQTdK7P0UcfLRs3btQpovAwt2AuxyQRuSQ+Plfatl2iU0TkpNTUVNUriChUhWyQhCZYtBjZlZSUSEVFhRx55JHWl1u8zvVBixOCKKJw8nPxz5zdjsglcXEF0qrVLzpFRE7CzHbJyck6RRR6QjZI6tOnj8yZM8fvRmPLly+X6upqGT9+vM6pt2PHDklISNApovAwudNkiY2I1SkiclJ+fm9Ztep8nSIiJ2HShs2bN+sUUegJ2SBp0qRJkpeXJ59++qkUFBSoE+nOO+9UfzvmmGPUTzvcWLZTp046RUREREREtH9CNkiaMGGC6lKHyRkwKcPIkSPVVYdevXrJEUccoZeqh1amYPlERERERET7ImSDJHSdwz2SLr30UklJSVED/K666ip1XySPx3/K5BdffLHBbnhEoezrnV9Llbe+SykROScxMUs6dJijU0TkpFatWknr1q11iij0eLyBsyNQyJg4caKsXbtWtZK5wXMf79/T1BIiEqSstky81j9qOtMmTZPx3cPtIspt1uOfvl+pSdTWRqlHVFS5zqGmw8848ldT45u0KDIyUv0kCjUh25JE1BJc0uESiYmI0SkiclJhYXf59dfTdYqInJSdnS3btm3TKaLQwyCJiIiIiIjIhkESERERERGRDYMkIhd9nPuxVNVy4gYiNyQnb5GuXb/VKSJyUps2baRt27Y6RRR6GCQRuaiytpKTNhC5xOOptR68SEHkBsxUHDhbMVEoCckgKTc3V+bNmye1tbU6h6h5OifzHE7cQOSSoqIusmHDiTpFRE7avn275OTk6BRR6AnJIGnWrFly5ZVXSlWV7wrfQw89JGPGjFG/ExERERERNaWQDJIiIiIEt2/iLZyIiIiIiMhpIRkk4S7MxcXF8uGHH0p1dbXOJWp+Ptz+ISduIHJJcvJm6dp1mk4RkZM4cQOFupAMkgYOHCg9evSQW2+9Vbp16yZPP/20rF+/Xjp16tToo3PnzvoViMJDlCdK/0ZETvN6I6S2lnf7J3IDewxRqPNYB2hIHqHl5eXy3HPPycqVK2XZsmXqzsxHH320/mvDnn/+ef1b+Js4caKsXbtWli9frnOc5bmPs840tcmdJsvUbVOlorZC51BTmDZpmozvPl6nwsVt1uOfvl+pSeTn95acnEHSt+/bOoeaDivD5G/r1q1qgi5e4KZQFbJBkt3f//53+d///ifff/+9zmkZGCQ1fwySnMEgiYJhkOQkBknkj0EShbqQ7G4X6IYbblDjk4iIiIiIiJpaWARJiYmJkp6erlMiP//8s3zxxRcyffp0Nc8+Ubj6IOcDdUNZInJeSsom6dbta50iIidh0obMzEydIgo9YREkAcYo/fvf/5Z+/frJqaeeKldffbVccsklMnjwYDnnnHNk8eLFekmi8JEUlcQ7jhO5pLY2WqqqEnSKiJyE2Ytramp0iij0hEWQhGFTDzzwgDz66KOSlpYmZ555ptx8880yefJkGT58uCxZskTOPvtsWbp0qX4GUXg4ofUJEu2J1ikiclJxcXvZunWUThGRk/Ly8mTHjh06RRR6wiJIQhA0depUNbvdjBkz5IknnpBbbrlF7r77bnnnnXdk9uzZEhsbK//617/0M4iIiIiIiPZPWARJ8+fPl9TUVBUoRUTsvsro03ruuefKokWLdA4REREREdH+CYsgadeuXZKcnCzR0Q13S+rSpYuUlJTo1L5ByxTGNQ0bNkxNRdmxY0eZNi34XdhxY1v8PdhjxIgReil/CxcuVNN59+nTR7p27SpDhw5V05qjPy61bO/kvMOJG4hckpKyUbp3/0KniMhJmLihXbt2OkUUesIiSOrQoYOaxW7Tpk06Z3fz5s3b75MNAdHq1atVgHTYYYfp3IZFRkbKlClT1I1r7Q8EPoG2bdsml19+ufqJcVSYfOKII46Qp556Kujy1LK0jW4rEZ6wOA2Jmp2amjgpL2+lU0TkpKqqKqms5EVCCl1hUTsbP368REVFqQkbli1bpma6A0zosHPnTtUN7+uvv5bjjjtO5e+rF198UU0r/t577+3Va6DL34knnignn3yy3+OYY47RS/jgJmnXXHON5Ofny5NPPinXXnutnHXWWSqgwqx8+ImbqVHLNbbVWInyROkUETmppCRTsrKG6hQROQl1I0zeQBSqwiJIat++vWqByc3NVcFI7969VYtPz549ZeDAgWoCByzzpz/9ST9j37Ru3Vr/dnAVFhbKypUrZcCAAbt1xbvqqqvUVZSXXnpJ5xARERERUSgIm34+p5xyinz33XdywgknqFaloqIi1Uzbpk0beeihh1SXufj4eL1000IL1o8//ijPPvusvP7667Jx40b9F38YI1VRUSHHHnuszqk3duxY9fOnn35SP4mIiIiIKDR4rAq/V/8eNhAcFRcXq2ApJSVF5x4cjzzyiDz22GPyyiuvBA1uMHHDgw8+qFM+6H535JFHyjPPPKMmcDDmzJmjZt37v//7PznjjDN0br3DDz9cjbdCV8FgMNkDugGia5/d6aefLv3791e/YxwVuh+ilQ1wY9JOnTqp7YOmbHseWrYQXALWGe+NZcyEFyYPr4XgbtJ/J0mlt1LmFsyVgckDJTUqVS2HvDkFc+SolKMkOTJZ5RVVF8mPu36UoalDJSHCd3PG7MpsWVWySkakjpDYiFiVt75svWws3yij00bXdTNbXrJccitzZWy6L3CEhUULpcZbI8NTh+sckRkFMyQlMkWtC3itf7MKZkmb6DbSN7Gvyqu1/s0umC2dYjtJ9/juKq/G+of17RnfUzrEdvDlWa89p3COHJp4qGREZ/jyrH+z8mdJ/6T+0iraN04Brzcjf4YcmXxkXflLakrU+g1OGSxJkUkqD+uPcgxLHSbxEb5gHeVEee1lXVmyUnIqc+rKmhyVrF6/orbCr6xYN7wO3hdQ1rmFcyUtKk0OS/SNm1N51r5pG9NWeiX0qstDWTvHdZYucV3q8rBNsEy7mPpxe3hflL9NTBudIzI9f7ockXREXflLa0plQdECGZQySG172FG1Q5YVL/Pb15vLN8vasrUyKm1U3X2fVpeulm0V2/z260+7fpLS2lJ1TBh4fWyfQcmDdI7I/ML5khiZKP2S+ukckXmF89R69Unoo3NEbROUyexrQFm7xndVx4Dxl4l/kf4p/f0md8G5g3t0lJWVqTQ+T9AijfGPOP4hLi5OXYjJzs5WLb+QlJQk6enpqqssutQC7t+GyWU2b96s0pCRkSExMTFqPKJh7i6fk5OjfgLycENF+/1CML6ysvJxycv7TOegRX2+ta6tpaDAt6+hQ4c51rnewTqvu+kcsT6DZlrnencrv778nTtPl507D5XSUt/7R0WVqdfLzT2ibkxOXFyeVdafrbIOtsrqO64TE7dJq1bWftw20lrHGJWXmrpeTXiweXP9fm3VapV6PpYz2rT5SSIjK63XG6JzMFB7sXi9Hut9fecwZGb+oMYG7dhxuM5B+RdY5U+1yn+IzkH551rlb2uVv6fOQVlnya5dna3yd9U5vrLieSUl7VU6Kqrceu486/X7Wc/3neuxsQXWuiyRrKxhKi86ukQSErKldetVVhlGWOvj+7xCOVFee1nT09dYy273u79SRsZy631KrLLWd93DtvR4qq3jqf649pU/Um13IzNzkVRXJ1j7p348LPZNRUWaX/k7dpyt7utUWNhD5/jKmp/fq25fR0ZWWMfEXKush6ltBbGxhep9t28/0npN32cY1r916xV+ZU1K2mKV7Ve/sqamrrPys/zKin2N18S2M/BaOKZyco7SOab8tdb7mn39irUebdU5E3is49xC13kD36M4VwsKCnSO73xFGhM5AcYG4/sKzystLVV5ON9wPtnPYVw8xbmYlZVVN1lSYmKiVY5Wfucr6hI4h+1d4HFe4/l4roHn4X3wmWDg9bE+9vManxv47sW6GCgrznXzfQ0oA77D7d3OUFZ8V+M7G0xZsYz5DDNlxWuZIQjm88pe1oSEBNVbxl5WfIZhxmB7WVF+5Ns/r4KVH6+FSbTs5cd7ov4Q+LkG9jyUAfvF7GusI8qKz2Czr/E62P+om6AeA3g/bDt7WXHbFxxP9rKafW0vK/Y1Pq+3bNmic6zvXWs/o7z28mN7YFl7+fE8bFN7+fH6WB97HsqKfW3fJigrjmv7vkZZ7XUzU1b7cW2+h+zfTWZf28tq9rW9rNjXOD7tZUWZsB8D93WwYx3Pt5cf+xrb2Z6HbY51tOdhfXFc2491lBXHKo5ZvA5eOxyF5YhxHDA4EA52gLQ3+vXrJ//5z3/UvZvQgoR7NGHc0Q8//KCCGXPwg/kdB2MwOGj2NGgRJx5OfPsDJyhOLjwMkzZ5eN7+5pnfq73V6gHmd3seAo3APHsafw/MQ9ARmGfi9D3lASr8Jl3l9VVa8ZqBeQh4TF517e7ri+XwWn5laGA5qFtGPwLzTFntzzV59uXwnvY8BG0e65+9XGo5q/yBeWAvKx5YJlj5gy3nV1brAX7bqZE8ezpYufCcwLxab5B9bf3bLQ9ltR5+efqfPQ/wmvY8LBNY1mDLwcE4J/DA3/cmzwjMC3x9pIO9JyqYERHVdQ8c/bvn7b4cViX4cjW2PN/+sufhd6hfBnm+fYjKfmDe7st5A/J8+zowDw97Hp6HI9Y/D/a2XI2XFesemGeWQ4BQWooKHvIaLv+e8rCuwcoVvKy7b6e92yZ7t/8BZTFps1/3tK8bLv/u67t73u7L+cpgzwt+rDd8/Dd+Hpq8PS2Hv8PeLleXd9994unbVzxW4BBx4YV1D09PK0i3KpT2PKtGiNqzX54HE0lZFVt7Hp7nsSqUfnnWd7qnRw//PGtdPFZdw6Q9Z57pyxs2rD7vpJN8eePG1edZvyMvYuLEuryIkSN9eSaNx+DBqEj55XmOsAJ3q07il2eV36rA+OVJt267l98KCDxWRdieh3TgNsHre7p0qUtX3nGHlFuv5zn00PrlzjrLVy5rHevyTjnFV4axY+vyPLiIjbwJE+qXGzNmt7Jim1mVJv+8QYMQZfjnWdvbiij883r33r38nTohyvDPs8rpsYIsvzzrtbBd/PJQLus16/LOPtuXd+SR9XmnnebLO/ro+rwTTtitrHX72iyDvFGjEGX55w0fLjJwYOPH+j7kGfY8LIeHPQ9MXjgLy5akprSnlqSGmOdhggZMzgBffvmlXHHFFWrcEboJBjrqqKNUoIduhMGgJWnt2rWyfPlyneMsz32+E4SazuROk2XqtqmqJYmazrRJ02R89/E6FS5usx7/9P1KTSI/v7fk5AySvn3f1jnUdMKsqjF6tMjs2TpBTWGrtY1rrUp95+nTdQ41iQEDRJYs0QnaF+Ed4oWQC62IHU3i9oDHNDfbuxHYoSkdTZlERERERBQ6GCQdJKZJ0fSXBQRJCJwwrigQuuqhvyn6lBIRERERUehgkHSQrFq1Sg1cMxMqALrSYXDd559/XjeI1Pjggw/Uz2Dd8KjlYFc7Ivekpa2V3r3/q1NE5KT28+ZJx1mzdIoo9IRFkGRmPnF7+BTWA1ONmxlHjMWLF8sNN9ygfsd9nAzMKnLJJZeoWUqmTJlSt/6YUeSNN95Qs59g9jtquQ5PPFwiPZE6RUROwgxyGJdERM4rad9eim0zAhOFmrAIknAjWdyM1cy0cbBhiu4xY8aox8svv6zybr/99ro8M9UhutJNmjRJ+vbtK2effbZcffXV6n5Hp512mgqcHn74YXWjW7t77rlHTdDwj3/8Q44++mgVNKEsCPoeeOAB1dJELdeQ1CF104MTkbMwpTqmBici5xV17SqF3etv30AUasIiSEK3NcxX31TQ0rNu3Tr1MNN2Y757k2fmpcc88rh5LFqLEDh98803Kji6/vrrZdmyZXLRRRep5QJ9+OGH8q9//Ut1x5s/f76cdNJJMmvWrN3uf0RERERERO4LiynA586dKxdffLH89NNP6mZnLQWnAG/+OAW4MzgFOAXDKcCdxCnAyR+nAHcIpwDfb2HRkjRs2DA588wz5Te/+Y3fXY6Jwt2ULVMYIBG5JD19DQMkIpdg0gYGSBTKwiJIQnc1dINbunSpDB06VCZMmCBXXXWVTJ48ebcHUTgZmTaSY5KIXFJa2kZyco7UKSJyUkGPHpLfq5dOEYWesAiScE8hjOVJTk6W1NRUWb9+vcybN09mz57t95gzZ45+BlF46J/Un7PbEbnEN7tdH50iIieVdOggxZ066RRR6AmLIAnTa//www97fCxatEg/g4iIiIiIaP+ERZAUFRUlsbGxe/UgCifF1cXiDbcBzUTNREREtURHl+oUETkpsrxcIgNutE8USsIiSDIwER9me/v000/lrbfe0rk+VVVVrt9slmhfvZ79ulTWVuoUETkpNXW99Oz5iU4RkZPaLVokHebO1Smi0BM2QVJeXp5ce+21Mm7cOPXzttswPa5PSUmJ9OvXT5599lmdQxQejm11LCduIHJJSUk72bp1hE4RkZPyDjlEdhx2mE4RhZ6wCJJwE9YrrrhCvvrqK7nyyivl8ssv13/xSUxMlP79+8t0TiVJYaZXQi9O3EDkksrKZNm1q4tOEZGTytq0kbK2bXWKKPSERZCE4AeTMrz00kty7733Ss+ePfVf6g0aNEhWrlypU0RERERERPsnLIKkZcuWSbt27eSYY47RObtr3769upcSUTjJrsiWWm+tThGRk6KiyiQhYYdOEZGTYgoLJdZ6EIWqsOluFxnZeJckBEjx8fE6RRQePsr9SKq8VTpFRE5KTt4iXbpM0ykiclKbpUul7eLFOkUUesIiSOrRo4ds375dcnJydM7uZs6cKb1799YpovAwsc1EifZE6xQROWnXrk6yadN4nSIiJ+X27y/bjzxSp4hCT1gESSeddJKanOGcc86RoqKiuqm+a2trpby8XB5//HE1ZmnixIkqnyhctI9tLxGesDgNiZqd6up4KS1to1NE5KTK1FSpsB5EoSosamdxcXHy/PPPy/r162XYsGHyz3/+UwVKI0eOlKFDh6r0cccdJ5dddpl+BhERERER0f4Jm0vYw4cPV7PcobUoIsK32lu3bpXMzEwVJD399NMSHc1uSxRe1pat5cQNRC6JiSmW5OTNOkVETorfsUPic3N1iij0eLym71qYKSsrk6ioqGYdGCEgXLt2rSxfvlznOMtzn0f/RhTepk2aJuO7h9vYE9ww+5++X4nCXphVNUaPFpk9WyeIwtiAASJLlugE7YuwHQyB4GhPM94RhboL210oMRExOkVETios7CZr107QKSJyUvbgwbJt+HCdIgo9YRUklZaWysMPPyxHHHGEdO/eXT3OOussK0BeoiZxIAo3yVHJ4rH+EZHzamujpaoqQaeIyEk1cXHqQRSqwiZI+v7772Xw4MHyxBNPSF5enpq4AfdPWrBggZx22mkqWMJMd0RERERERAciLIKkLVu2yG9/+1vxeDzy3HPPyQ8//CDr1q2T1atXy7Rp09Ssdsh74IEH9DOIwsPy4uVS463RKSJyUmxsgaSn/6pTROSkxG3bJGnrVp0iCj1hESR99dVXaqKGt99+W04++WQ1o11MTIwkJCTIIYccooKjo48+Wj7//HP9DKLwMKtgllR7q3WKiJyUkJBrfZ/8oFNE5KS0deskfc0anSIKPWERJKF7Xbt27aRfv346Z3djx46VgoICnSIKD5M7TZbYiFidIiIn5ef3llWrztcpInLS1tGjZbNVdyMKVWERJHXt2lWKi4t1Krjt27dLp06ddIqIiIiIiGj/hEWQNGHCBGnbtq387ne/CzqL3Y4dO+Sdd96RK6+8UucQERERERHtn5AMkn799Vd59tln6x6vvPKKjBs3Tj799FM55ZRT5J577pFnnnlG/v3vf8u1114rI0aMkI4dO6pxS0Th5IeiHzgmicglcXF5kpHhzs26iVq65E2bJGXDBp0iCj0eL+bSDjH//e9/5cYbb9Sp3WGVMdOdWXX8DkhjJrzmYuLEibJ27VpZvtydL3HPfbx/T1PDeKSK2gqdoqYybdI0Gd99vE6Fi9usxz99v1KT8HojpLY2SiIjK3UONZ2Qq2o0bvRokdmzdYKaQm1UlPoZUc0LhU1qwACRJUt0gvZFSAZJ+fn5smnTJp3aNwNwMDQTDJKaP0zcMHXbVAZKTYxBEgWDiRtycgZJ375v6xxqOgySyB8mbkCg1Hn6dJ1DTYJB0n4Lye526enpKtjZnwcREREREdGBCIuJG4iIiIiIiJwSkt3tGpKbmyszZsyQ7OxsqW6gD+tNN92kfwt/7G7X/PVP6i8rSlZIjbdG51BTYHc7CqaiIk1KSjKlVatfdA41HXa3I3/FHTqINyJCkpvRWPKQhF5W7G63X8ImSHrhhRfkvvvuq5usIRj8jRM3HDwMkppeUmSSlNSUWNWHMKtAhBkGSRQMJm2oqYmR6OhSnUNNh0ES+auJjVVHRVQFx+Q2KQZJ+y0sutvNmTNH7r33Xmnfvr08+eSTMmvWLFm4cOFuj0WLFulnEIWHi9pfJDERMTpFRE4qLOwua9dO0CkiclL2kCGSNWKEThGFnrAIkubPny/Jyckyc+ZMOeOMM6Rr167Srl27oA8iIiIiIqIDERZBUlxcnKSlpUlMDK+4ExERERFR0wqLIGnMmDGyfft2ycrK0jlEzcOM/BlS7eWN9IjckJCwXdq1W6hTROSktDVrJP0XTppCoSssgqR+/frJ9ddfL+edd54sXbpUysvL9V+IwltWRZbUemt1ioicFBVVJvHxO3SKiJwUW1QksYWFOkUUesIiSAIESePHj5dTTjlFevfuLZ07dw76IAon57c7nxM3ELmkqKirrF9/sk4RkZNyjjpKsocO1Smi0BMWQRLuiTRhwgQ1DTim+W7sQUREREREdCDCIkh67733ZMWKFXLrrbfKkiVLZNOmTep+SMEeREREREREByIsgqTNmzdLZmam/P73v5eMjAyJiAibXoJEjfpm5zdS5a3SKSJyUmJilnTsOEeniMhJrVatktYrVugUUegJi2ijQ4cO+jei5qWguoDdRIlcEhlZJTExu3SKiJwUVVYmUaWlOkUUesIiSDr11FOl1DqRPv/8c51D1Dyck3kOJ24gcklRURdZv/5EnSIiJ20/8kjJGTxYp4hCT1gESZGRkfLcc8+p7nZ/+MMf5Oeff5bs7OygDyIiIiIiogMRFkHSk08+KRdccIGUlZXJO++8o6YBHzx48G6PIUOG6GcQERERERHtH483DAZEzJkzR3744QedatwNN9ygfwt/EydOlLVr18ry5ct1jrM893n0b9RUOsV1km0V23hD2SY2bdI0Gd99vE6Fi9usxz99v1KTqKpKkMrKZElMzNE51HTCbOzl6NEis2frBDWF8rQ0q6Lhkbj8fJ1DTWLAAJElS3SC9kVYBEktFYOk5q9NTBvZUbnDqj7wNGxKDJIomOrqOOuRIHFxeTqHmg6DJPJXmZSkgqSYXZw8pUkxSNpvnEubyEVntT2LEzcQuWTXrs6yYcPxOkVETsodOFByjjpKp4hCT1gEScXFxZKTk7NXDyIiIiIiogMRFkHSE088oSZmOOqooxp9YBkiIiIiIqIDERZjkmbMmCELFizQqXo1NTWyZcsW+frrr6VHjx4yfvx4ufXWW/Vfwx/HJDV/GdEZsrNqJ8ckNTGOSaJgampi1eQNcXEcON70OCaJ/FUlJooXY5KKi3UONQmOSdpvzWLihry8PBk3bpw8+OCDctppp+nc8McgqflrG9NWcitzGSQ1MQZJFAwmbqiqSpT4+J06h5oOgyTyV5mc7Ju4oahI51CTYJC035rFxA2tWrWSM888U91PiSicnNn2TE7cQOQSTNywceNxOkVETsq1Ku85gwbpFFHoaTaz23Xp0kXWrFmjU0RERERERPun2QRJM2fOlMTERJ0iIiIiIiLaP2ExJmnFihXy66+/6pS/0tJSNXHDV199Jeecc478+9//1n8JfxyT1PwlRCRIWW0ZxyQ1MY5JomBqa6OsR7RERZXpHGo6HJNE/mpifF3NIysr1U9qIhyTtN/CIkh66KGH5JlnntEpf1h9tCANGjRInnvuOUnCHZybCQZJzV/3uO6ysWKj1HprdQ41BQZJFExVVZKUl6dJcvIWnUNNh0ES+Str3VpN3BC/Y4fOoSbBIGm/hUV3u2uvvVZNAx74mDVrlgog8HjjjTeaVYBELcMJGSdItCdap4jIScXF7WXr1lE6RUROyjv0UNnRr59OEYWesAiS0tPTpXv37rs9unbtKqmpqRIVFSUeD1s9iIiIiIjowDWbiRuIiIiIiIgOhpAdk7Rw4UL9274ZMmSI/i38cUwS0cHBMUlEbuOYJCJXcEzSfgvZIKlTp0773IUORdmypfkMwGWQ1Pz1S+onK0tWSo23RudQU2CQRMFUVKRJaWlbSU9frXOo6TBIIn/FHTqINyJCkptRvS0kMUjabyEbJP3tb3/Tv+3ZggULZNGiRQySDjIGSU1vcqfJMnXbVKmordA51BQYJFEw+fm9JSdnkPTt+7bOoabDIIn8bbW2cW1UlHSePl3nUJNgkLTfwmIK8IbgBrIPPPCArFy5UiIjI+WWW26RG264Qf81/DFIav4YJDmDQRIFwyDJSQySyB+DJIcwSNpvYTlxA6b+vvDCC+WCCy5QN5m95pprZM6cOc0qQKKWoayGN5IlcktERI1ERfECBZEbIiorJaKqSqeIQk/YBEm1tbVWILxELr30UhUc/fjjj3L22WerrnZ33323tG/fXi9JFD5eyXpFKmt5t3EiN6SmrpNevT7UKSJyUnur/taRrXUUwkI+SEJvwK1bt8pll10mEyZMUF3sxo0bJ7OtE+vxxx+X1rhjM1GYGpE2QqI8UTpFRE4qLc2QnJyBOkVETirs3l3ye/XSKaLQE9JBUkVFhepWN2bMGPn2229lxIgRMn/+fHn55ZcPanCEVqp58+bJXXfdpaYQHzhwoArGGoMWLLRojR49Wq677ro9Thjx2WefqTFGo0aNkjvvvFMKCgr0X6glOyLpCIn0ROoUETmpoiJd8vMP0SkiclJxx45S3KmTThGFnpANkq6//no5/PDDVbBy9NFHyxdffCHvvPOOtGnTZp+nBt+Tc889V3Xdmzp1qmzbtk1yc3OlsjJ4Fyi0bN1+++1y1llnyapVqyQzM1O+/vprtY7vvfeeXsrfJZdcIpMnT5acnBy1/Ouvv66Cqz0FYkRERERE5LyQDZI++ugj1ZKUkZGhgqJHH31Urrjiij0+9seJJ54oDz30kHrP3/72tzo3OARECHKOO+44NVnE+++/LzNmzFBjom666SbZvHmzXtLnscceU61geN25c+fKBx98oNJRUVGqRamhYIxahvyqfE7cQOSSyMhKiY0t0ikiclJUaalEWw+iUBWyQVJaWpqkpqZKdXW1LFy4UHVv25vH/sDseJgQYvDgwRIXF6dzg0NXv8TERHnuueckPj5e5SFAeuqpp1Qw98knn6g8KCsrk6efflpSUlLkD3/4g0RE+DZ379695fzzz5cNGzbIhx9y0HBL9k7OO5y4gcglKSkbpXv3/+kUETkp88cfpd1+1tuInBCyQdKyZcv269GU0Orz/fffqy5/aAmy69atm0RHR8u7776rc0SNOyovL5fTTjutLqAyzjvvPPXz008/VT+pZTqx9YkS7YnWKSJyUnFxe9m6dbROEZGTdh56qOzo10+niEJPyAZJoWjNmjVqTFK7du12GxeF1iXc0Bb3bUJgBBjbVFNToyaCCNSjRw/VarVjxw6dQy1Rt/huEuHhaUjkhqqqJNm1q6NOEZGTylu3lrKMDJ0iCj0eq9LPARE2jzzyiBpH9Morr8ixxx6rc31wE1t0kzv99NNVNzo7zJB3yCGHSGlpqfz8889q9r2vvvpKLr/8cnnppZfkhBNO0EvWGzRokOpS+N133+kcf5gND691zDHH6BwfTDIxAHdQtnTt2lV169u+fbtKI3jr0qWL9cW/S/Ly8lQeuvl17txZtWwVFhbW5XXq1El27twpJSUlKg9BXseOHdVrIdC76pOrpKK2Qmblz5KjUo6StOg0tRy6h83InyFDU4dKSlSKyiusKpSFRQtlROoISYxKVHlZ5VmyvGS5jE4bLXGRvm6Ma0vXyvqy9TI2faxERfha437e9bNsr9wux7U+TqVhXsE8qfHWyKj0UTpH5Nu8byU1KlWtC+DQnZ4/XdrGtJXDkw5XeXgO1q1zXGfpleCbWtTk9U7oLZ3ifDPpVHurZWb+TPU8PB+w3Pd538uA5AHSOsY3eyLyvsv7TganDK4rf3F1scwrnCfDUodJclSyysupyJGlxUtlVNooiY/0tRqinCivvazLi5dLVkVWXVmPSTtGHtv0mJTUlMjo9Por2ljfhIgEGZw6WKVR1pkFMyU9Kl36J/f3y2sX0076JPapy8NzEXx1je9al/d9/vfSJ6GPdIjroPIA2/PwxMMlMzZT54h8s/MbOTL5yLryl1aXypzCOTIkZYikRqeqvNyKXPmp+CcZmTpSEqISVN7Gso2ypnSNHJN+jERH+FrGVhavlK0VW/32649FP0ppTalfWecUzFGtaUNSh/gyrE8kvGdiZKLaF8bs/NnSKrqVHJp0qM4RtQ87xHaQngk9dY6ofdg9vrt0ie+ic0TuPu1u6ZfcT4qLi3WO79zBhQycs4CW4A4dOkh2drYaDwloAW7btq2a0KVK3/QwOTlZWrVqpWa0xEUQSE9PV91qN27cqNKAFufY2Fi/mS/N/dyysrLUT0AeXsecw4D1qKx8Qnbs+ELniHVuzrbWtY3k5/v2NXTqNFNV8gsLe+gcsc716da53tPK76xzUNZvrNfqZ53r7VQ6KqpMvV5OzpHWue7b1/HxO62yLrbWbZj13r7jOilpq/VZttIqw9HWOsaovLS0tdbn1nqrrPX7tXXr5er5WM7IzPzR+pyptF5vuM4RaddukXU8eqz39Z3D0L79AqmujrP2xRE6B+Wfa+2DNOvzqX5fd+w4yyp/W7/yo6xFRV2t8nfXOb6y4nnFxb7gx5R1+/YB1mdlG5UXF5dvrd8PsnbtadZ26W+t10JJTMySjIzlVhnGWGWNVcuhnCivvaytWq2ShITtfmVt0+Zn6/gpsY6TETpHrG25xCp/lXU86ePagvLX1kZa63KkzkH551vHVoJaDwPrW16ebpXjMJ2Dsn6v9nVBQf2UyShrXl4fK993rEdFlavtlJvb39pWvvM6NrZAvW929mC1TSEhIcda56WqFQ3bHpKTN1llW+1X1rS0X638rbJ5c/13UOvWK9T227q1/rMZrxUVVaqOHQPHksdTa9vXz6sLjPiuDDzWcW7hXDTw3YTz0nyHAc5X+3cYvq+wHC40mu8wnG94D0ySZC5WmnMYtxJB931ISkpS39H28xXfxTiH68YV//3vkv7555JgrevW0fWfV61XrJBYax22jajf122s7+lI6/2yhw7VOdbx/8MP6mfOUbZjfZ71vWat4/Yj6/d/pxkzVKCw87D6fd31m2/U9NgFPX2fa5HW51GnmTNVywtmhIMY6zu+/fz5kmO9FoINiLO+zzMXL5ato0ZJte69kmh91mQsXy4bj6vfr8mbNknaunWyeexYnWPtayudZG2jLWPG6BzrWP/lF4m3XnPryJE6RyRj2TKJsT5Htw2vP6/bWu8ZWWmd68Pq9z/WzWvVM7KH1B//KEOFtZ1zj/Cd6/m9e0vrlSsl1Xrv/D6+8xqvg22SZ9Wndln1Foi23q+Dte22DxxYF1TF5VvnsLWNt1nrVpXg+x7CvsK+sJc1yfrsRjk2jRunc0RSrPKnrF8vW2x1q7S1a9W28tvX1rrFWccgtqfR5qefJNo63vC+BroMRlif4fZjoqNV1irrOLPva+zXXdYxm9e3r0rjRrqdv/9ebYci6/gGvHaHuXMl16rjlVrfIYDjrd3ChX5lxX7BdreXNcE67rGvN40fr3N85U+3zpXNtqEgONbxPWb/bsJ3WoL12vY8zAmAi/n2PJxf6Ellz0O9Ed9h+O40cL7i+xZ1TLwOGhLCES9h7wPzAYvKVCB7y5JZzkzKENg1z8CHPL4wGoNgBpUo+wMHN9bBrAeWMWmTh9duLC8mxlfhwboFLmfyEAyg8g6o2CKtHjW+iqY9r7TWV9HET5NXXuv7ksJrmDwz/gavYfIQsKg8ncaj1lsr+GfPQ+UZQUtdnl4PPN9vOUtVbdVueQj4TLqkukRNmFBeU+63HPLKasvqlwtSfvwemBesrHg/sJcV66XydHpzxWa1/nhfk4cHApvAsiLPr6w6z17WXTW71GvZy6qWC8yzHlaWWm+/PItf+Wt1+W37FX8H/M3kBS2r17+seKBM2Lf2PKQDy4q8wP2K4wGvac9DuXBMBeZVeAPKagl2TtiPf3Oe2pcJlofX2Zs8MwbRnofPCTwC8wLPYV9etfV7cd1DrPJjooE95Xk8Xiuvwi8PUIGuz/Pt1+josro8BBO+vNK6vMhI33Ft0r483znsn1et3tee5/HUWI/aIHk1u+UFlhXPQ4ARmBcZ6Z+Hg3j3bYKy2svvO19RPpOHCj0ggEhM3KbzTFlL6pYLVlasV2BZsf6BZQ2W5ytrYPlR1t339e55e1NW337139fmIoC9/LuXFa/jyzPPM+UPLCvO68B9Haz8gWVt7Fjfcx7s7Tl8UM5rK+hBhd1jfcaikm4eqNh6rO9tvzzrOz8iIM9jVRpRcfbLs5bBsn551uvjNe15EGG9d12euZBpBUt1eebiTpm1X02e9bvKs5Y3eVE6WKxbBnnW6+xWLtRXgpTVqqT451nrH6z8gXmqrAHlx+vby4+gJqaoyL/8jZQ1ylZWTPqg8qyfdXmm/DqNB4LXwHLhtQPLr/Z1YLn0vkZQWJeny2rPQzrwuWq/BuxrsJcVrwF7W1a//RqkrMH2tSq/BXU++7GOc8yeh/MtWF7gc7EMHibdUB6Yc9i8Tjiy9qO1J6lOYy1JmEDijDPOULPhvfjiizrXB1F037591dWvlStXqitSpuXpmWeeUa1Cgfr3xxXMdmrGvGDwnLVr18ry5ct1jrM89x3cqdaJ3DJt0jQZ373+6lp4uM16/NP3K1HYC7OqBloUZs/WCaIwhp5HS5boBO0LtiTtA3RZA3sTvYHuOWgVQisPAiRAcyOi6/Xr16u0HZZHVwKzLLVM52eeLzERvlY9InIWuuqtX3+KThGRk3IGDZIsWxdFolDDIGkf4Eaw6HuZn5+/Wzc59JNGv+qxtj6+6IOJZspgY44wSx7048wuLRrGOXmsf0TkPIyzqqjwjb8iImdVJySoB1GoYpC0D9AqdO6556oBprMDmuFfeOEF1eXuwgsv1DkY9JomvXr1kkWLFsnixYt1rs/zzz+v+kVPmjRJ5xARERERUShgkGTB/ZVwU1c8fvnlF5U3d+7cujwz+xUgCMKsOBdffLEat4QWoX/84x9q3BFmnBtqazrGYLUpU6aomXR+97vfyQcffKCWv+OOO2TOnDnqtXrq2WuoZdpcvllNUkBEzsPEBZjVjoicF5ufr2aPIwpVnLjBct9998mzzz6rU7tDwIRptY1NmzbJpZdeqqZAxNgidKtDgPTaa6/VzZpjN336dLnnnnvqpiDFOKSTTjpJ/va3v9XNAhIMJ24gOjg4cQOR2zhxA5ErOHHDfmOQFMIYJDV/kztNlqnbptZNoU1Ng0ESBZOf31tycgZJ375v6xxqOgySyB/uSVQbFSWdp0/XOdQkGCTtN3a3IyIiIiIismGQREREREREZMMgichF68rWceIGIpfExBRLcvIWnSIiJ8Xv2CHxubk6RRR6GCQRuejbvG+lylulU0TkpISEbOnQYZ5OEZGT0levltYrV+oUUehhkETkois6XCGxEbE6RUROKijoKatXn61TROSkbcOHy5YxY3SKKPQwSCJyUYSHpyCRezzi9XIWTyJXRFjffx6efxS6WEMjIiIiIiKyYZBE5KI1pWukxlujU0TkpJiYXZKSslGniMhJ8du3S0JOjk4RhR4GSUQumpk/U6q91TpFRE5KSNgu7dot0ikiclL62rXSavVqnSIKPQySiFw0qcMkTtxA5JLCwh7y669n6BQROSlr6FDZOmqUThGFHgZJRC6K8kTp34jIaZi0obY2UqeIyEneyEjxYvIGohDFo5OIiIiIiMiGQRKRi5YWL+XEDUQuiY0tkFat1ugUETkpads2Sdq6VaeIQg+DJCIXLSpaxIkbiFwSH79TMjKW6hQROSl540ZJXb9ep4hCD4MkIhdd3P5iTtxA5JLCwu7y668TdYqInJQ9dKhsGzFCp4hCD4MkIhdFe6L1b0TkNK83QmprOXkKkRvUxA3WgyhUMUgiIiIiIiKyYZBE5KL5hfM5JonIJfHxO6RNm591ioiclLJhg6SuW6dTRKGHQRKRi1YUr+DsdkQuiY0tlPT0X3WKiJyUlJXF2e0opDFIInLRJR0u4cQNRC7xTdxwuk4RkZOyMHHDqFE6RRR6GCQRuSjKw0HjRG7xTdzAgeNEblATN0SwGkqhi0cnERERERGRDYMkIhd9l/cdJ24gckliYo60bz9fp4jISemrV0urVat0iij0MEgictG6snWcuIHIJdHRuyQ5ebNOEZGT4nfskITcXJ0iCj0MkohcdFmHyzhxA5FLCgt7ypo1Z+kUETkpa/hw2TJ6tE4RhR4GSUQuivRw0DiRW7xej5q8gYicpyZt8Hh0iij08NuBiIiIiIjIhkESkYs+zf1UqmqrdIqInJScvFU6d56uU0TkpIylS6XNTz/pFFHoYZBE5KJtFduk1vpHRM6LiiqVxMTtOkVETootKpK4ggKdIgo9DJKIXHRNp2s4cQORS/Lze8uqVefpFBE5aeuoUbL5mGN0iij0MEgiIiIiIiKyYZBERERERERkwyCJyEVvZr0plbWVOkVETkpN3SA9enymU0TkpMxFi6T9/Pk6RRR6GCQRuYj3SSJyD++TROQe3CfJy/skUQjjtwORi85rd57ERMToFBE5qaioq6xff7JOEZGTtg8aJNlDh+oUUehhkERERERERGTDIImIiIiIiMiGQRKRi6ZsmSIVtRU6RUROSk9fI337vq1TROSkjrNmSefp03WKKPQwSCJyUbf4bhLh4WlI5IaqqiTZtaujThGRk8pat5ayjAydIgo9rJ0RuejE1idKtCdap4jIScXF7WXr1tE6RUROyjv0UNnRr59OEYUeBklEREREREQ2DJKIXIQbyXqtf0TkPI+nViIiqnWKiJzkqa4WT02NThGFHgZJRC56adtLKlAiIuelpa2VPn3e1ykiclKHefOk08yZOkUUehgkEbnoiOQjJNITqVNE5KTy8nTZufMQnSIiJ+3q2FGKOnfWKaLQwyCJyEUjUkdIlCdKp4jISWVlGZKbO1CniMhJRd27S2HPnjpFFHoYJBEREREREdkwSCJyUWlNKSduIHIJJm2IiirXKSJyUkRlpURaD6JQxSCJyEWvZr3KiRuIXJKaul569fpIp4jISe0XLJAOc+boFFHoYZBE5KJRaaM4JonIJaWlbSQnZ5BOEZGTCnr0kPzevXWKKPQwSCJyUb+kfpzdjsglFRVpkp/PShqRG0o6dJDijh11iij0MEgiIiIiIiKyYZBE5KJd1bs4cQORSyIiqiQ6ukSniMhJkeXl6kEUqhgkEbnojew3OHEDkUtSUzdIz56f6hQROandokXSYd48nSIKPQySiFx0UuuTJNoTrVNE5KTi4g6yZcsYnSIiJ+087DDZ0b+/ThGFHgZJRC7qGt9VIjw8DYncUFWVqAIlInJeeatWUta6tU4RhR7WzoiIiIiIiGwYJBG5qLC6kBM3ELkkMrJSYmJ26RQROSmqrEw9iEIVgyQiF72V/RYnbiBySUrKRunR43OdIiInZf7wg7SfP1+niEIPgyQiF52debbEeGJ0ioicVFTURTZsOFGniMhJ2wcOlOzBg3WKKPQwSCJyUUZ0hng8Hp0iIifV1MRKeXmaThGRk6qSktSDKFQxSCIiIiIiIrJhkETkooKqAk7cQOQSTtxA5J6o0lL1IApVDJKIXPR2ztucuIHIJZy4gcg9mT/+KO0XLNApotDDIInIRedknsOJG4hcwokbiNzDiRso1DFIInJR6+jWnLiByCWcuIHIPZy4gUIdgyQiIiIiIiIbBklELiqo5sQNRG7hxA1E7lETN5SV6RRR6GGQtI82btwoffv2bfCxfv16vaS/559/XsaOHSsjRoyQBx54QEo5owtZ3s7mxA1EbuHEDUTuURM3zJ+vU0Shh0HSPqqtrZVdu3ZJcnKyjBw5crdHfHy8XtKnpqZGjj/+eLn33nslMjJS2rZtK1OmTJFRo0bJihUr9FLUUp2bea7ERHDiBiI3FBV1lfXrT9IpInLS9iOPlOwhQ3SKKPQwSNpPaBF68cUXd3u0a9dOLyHi9XrlyiuvVMHQP/7xD5k2bZp89NFH8sEHH6iWpLvuuksvSS1Vq+hW4rH+EZHzampipKIiVaeIyElViYnqQRSqGCQ1ofz8fJkxY4b0799fLr74Yp0rMmTIEBk3bpwsWLBAlixZonOJiIiIiCgUMEjaT+h2V1xcLEVFRVLWwMDD7OxsqaiokPPPP1/n1Js4caL6iZYlarm2lm+VWm+tThGRk6KjSyUxMUeniMhJsQUFEpufr1NEoYdB0n767LPPZNCgQXLUUUepn5dccolUVVXpv/qgpQgOOeQQ9dPuiCOOUD9Xr16tflLL9OmOT6XK63/cEJEzkpK2SufO03WKiJyUsWyZtP3pJ50iCj0eLwbO0F7D7HUXXHCBnHvuuSr4QSsSAqavv/5aWrduLZ9++ql06dJFLYtxSE888YR88sknKpCyKy8vl549e8qwYcPUGKVg0Nr0k/UBMnz4cJ3jg5apI488Uv3evXt3tQ5otQLcmLRbt26qhWvnzp0qLyIiQrp27aq6/xUUFKg8TCLRuXNn2bFjh2oRs+fl5OSo17zu8+ukorZCpudNl6GpQyU9Ol0th7zv8r6TEWkjJDXK15+/oKpA5hXOk9FpoyUpyndzOLSSLC1eKmPTx0pcZJzKW1OyRtaWrZXjWh0nURFRKm9J0RLJrsyWkzLqB1DPzp8t1d5qOabVMTpH5KudX0laVJpaF8Ch+03eN9Iupp30T+6v8mq8NWrdusR1kT6Jffzy+iT0kS7xvn2D10beEUlHSGZspsrDctN2TpNBKYMkIyajLu/rnV/LsNRhdeXfVb1LZhfMlpFpIyUlKkXlZVdky5JdS+To9KMlITJB5a0tXStrStfIsa2OleiIaJX3866fZVvFtrqy9k/qLy9ufVFKa0r9yop1S4hIkGFpw1QaZZ2eP12NYRqQPKAu77v876RDTAfpm9TXL697XHfpntC9Lm9a3jQ5NPFQ6RjXUeUBtifK3y62fhzdFzu+kMEpg+vKX1JdIjMLZsrw1OGSFu276WZORY4s3rVYxqSNkcQoX3/y9WXr5ZeSX/zKurx4uWwu3+y3XxcVLpLimmIZ22qszhGZmT9Toj3RMjyt/jifkT9DkiKT1L4wvs/7Xq3X4UmH6xxRx2bH2I7SO7G3zhH5due30jOhp3SN76pzRO489U71PEy6YuDc2b59u5SUlKh0dHS0dOrUSbKystT5CQkJCZKZmSlbt26VykrfLIQpKSnqXN+0aZOamAVatWolqampfrNbYpKWuLg4tZzRoUMH9XPbtm3qJ3Ts2FGqq6vVeWdgPSoqnpLc3K90DvJmWOdlW+u89u1r6NLlO+tc72yd1710jljn+jfWud5bTUpgdO/+hfVaR1jnuu/90YKC18vOHmy9pm9fx8fvkHbtFlnrNtJ6b99xnZy8WTIylltlGKduvArp6WskLW2t34QHbdosVc/Hcka7dgvVFNtbt47SOSLt28+3jkeP9b6+cxg6dJhrlT/O2he+zzTo2HGWtQ5p1udTP50jKpgpKWkneXn15UdZCwu7W+XvqXN8Zd2xA/u6s0pHRZVZz/3e2r6DpLS0rcqLj8+z1m+BVYaT1bZKT1+tAiaUY/PmsWp9AOVEee1lbd16hSQmZltlHa9zsK8XS0xMsWzZMkbnoPw/WJ/HVdbxVH9c+8ofZZX/KJ2D8s+x3i/RKr/vvAbsm/LyVn7l79p1mtrX+fm+zzVAWXfuPLRuX0dFlavttH37QLWtIC4uX71vVtYw6zV9n2GJiVnWOv/kV9aUlA1W2Vb5lbVVq1+sY2CLbNx4rM6xKrYZS9VrbtlytM5B+ZdY712qjh0Dx5LHU2u9r9nXT1vr0V71wgg81nFu4Vw08B2K89J8hwHOV/t3WFRUlPq+ys3NrfsOi42NVedYsHN48+bN6jwDTLyUkZHhd76mpaWpcxgz2Cr/+pe0tr7bE6x13XxM/WczKvZoAdk6erTOEclcvFgirffbNmKEzrHKv2CBGm2aNbT+WO84e7bUWOuYPXiwzrHK+t13UmatS25/33cYdP/iCymw6gf5vX2fa5EVFWq5HYdbx7VVZoi1vuM7zJmjXgvPh3jr+7zdokWy5eijpcoqNyRZnzVtfv5Z1p9Uv19TrDKmr1kjG487TudY5/Wvv0qytY02jas/h1uvXCnx1vbF6xl4rRjrve3lx3tGWvtw68j6/Y91syofss1Wf0EZytPTZfvAgSpdbO2rjOXL1TbO6+s7r/E6Xb79VnYeah3XVr0FYqzPbWy7nKOOktI2bVReXF6etLe2sb2sidbrtLX2hb2syVu2qHJsOP54nSOSumGDpK5bJ5vG15/D2B5J1uf85rH1301Yt3jrGNxsKz9m5Iu2js0tY+rP9Q5z50qEdWzZ8zpPn65ulGvf19ivRdb+22ntRzBlzbPqkoXW8Q147U4zZ0qOVWcstb5DAMdbh3nz1OubMVzYL+1++MGvrIlWPRD7Z8MJJ+gcX/lbWfXCjbZeSzjW8T2GcwL1A8B3WqL12va8YN9hOIfxXWnPw3mIcwvnnYHzFeclzs821j5LCtObBkf+xaJ/p72AA+vqq69WM9n16dNHDrcO9tNPP10dTAiQcOCcccYZatnvrA+ERdaHB8Yj2Sd0MB577DH1gf6b3/xG5/h78803VRBznPVBhoPMPPr166c+9HGg4sDDlw4OUKRNHipvyEc6JiZGHfzIw8FvX858aZjl8IWCPARbL/z0gpTUlEhOZY6qDCNgQGXe5CVHJqtgA3lFNUWyo2qHJEclS1VtlcrDPYDwQCCBwAp5edV5qpKM4Kq8tlzl5Vbmqt8RACGNB16/1vqH9zB5WRVZEumJVEGIyqu18iqzVAU7NiK2bjkEXEhHeaJU2qxvXEScmiTB5GE5vBa2iT0vMTJRdYEzr4f3QOBnyo8gKbcqV60bWoGQh3LmV+ersmJKb+TlVeXJrppdfmXFNiqrLasra9/EvjK/cL56DrYd8vBA0IV9YC8r8lD+urJaeQhYEJRgG9iXwzIRnoj6PKtcJlBVedYD2zM+Ml7dp8nkIYCzlx/7anvldlV+s68Lqwt3KyvSRdVFfmXdWbVT/bTv1+1V29XxYS8r9g3WAe9r8rC+EdY/7DP7cpHWP8wGaPJQBpTf7GuVZ+0vVX7rn8k7/tDjpWOiL0C0H/9o/cV2th//yMOFBeSh0oUZK+15+NJAPip2uLCAPCyD56N7LdJ44LVQkcNyJg/nId4Pr2fPA/s5jDyvd4Z1zv5gpUvVIykp28qLss5rLFOfV1sbY+VjPUxelgpovF6sr8nbZr2+ryKBNCr0CQnWvqjC+uBzotQqU6EKHiork62yYv1KrbIWqPzKylSrrChbqVoGz0cQg7Qvb4eqoFdWptTlJSbmWq9Tbb1HUl0e3jMiAp9XCbblfJXjmpo4Wx4u+kRYeTF+ebW1/uVHZb+2FmW1l9+UFfvVV1a8BwIRU9aYGJR1pxVIdbW+yNur4ABlxQNlqC9rvrXsroCy7lQ/7WVNSNihAkL/suZaeTVWXn1ZUX6Px2utS3xdnq+7n0ftM5Pn29eRQcofrbZB/XLbrGWsc1jva19Zc9R74n2QFxtbpNa5qgr7FceYb18j0AksK5b1L2ue+ulf1p16Xyfb8lDWKus9Em152Nc1tn09yVo33/EfeKwDvp9MnvleM99hJg/PM99h5nvN/h3W0PmKh/18Neew/XzF8/Cz7ny1vs/jf/lF3cun0gqqoq2feCRY38lR1vNQATZ5qLBGWuuBCqzJS7SCPg++m63Pgbo8qxKPwKka76XzkqyKba21Xgie6vKswKbaWkev9fmBdIxVccZz8VrWBvTlWYEK1gXr4cG2s/JiC63j2goeKq16CirgyIuzKth4VFgVY6TxiLeCzVgr8KiwgkKTh6AD74Pn1i1nBQjRZWX+5UdZrde2lz/BKiuCBL/yo6xW+e15KKsXZbXKhnS5VTFXy1qV61psc+v3GKtiHVhWrCveF6+F11R5KKu1flg3U1bkxVlls5cVZUe+X1mtZRB4+ZXVKj9+7ravreA3sPwR1vFlL7/a19Y+8MtDWXGs2/e1tV+xn2utY1flYb9ay2EZL45XKw/rhfeotpfV2tf/3959gElR5H0crwVJkkGUKEGiEQOCgHeIERMqZzjMJyfmgK+KWcw5oZ7xRNRTzOEEORUxgGI8laCygKAEA0EyC2y//a2tgt6mFxZuZ3qA34dnnqVre2e6e7q661+pCYCj36tNC7c5uq8EU/a7ju4r+8/96rTT7P3In+vkH871aJo//32av4eRn6Jp5KP4fQ3RfO3Lobz8+2yM1JJURrjYErwwa93YsWNN7dq1zcCBA80tt9xiXn31VTtZQxS1YQRYTAX+/PPPu9TiaEmaNGmSGTdunEvJrrwBmnUt0/o27msGzRhkg0jJnHdPetd0b7661nDjcHH4uqPov5IRtCLRwtS27RCXIpmzkRU1aCkZNcotSCbQGlUYFp5pdZEM2mUXYzRJ2AbRmKQyQqROaxJ8FwGCIMwJo/24H3/80f70fyObpwkLJ9gWKhHJPlpUatWa7JZEJJtoRaEVSSRXKUgqIzQz0vcS9HdG27ZtbbMk3e7iRrqak70jfVhl8/PBvA9sNzYRyT66hDF2SkSyr1Z+vqnz/fduSST3KEhaT/TNTDJmzBg72QETNPjWIQbCMUDuhRdesIPhol555RXbJe+www5zKbI5OqHBCXaMjYhkH5M+TJpU9DgGEcmuWR06FJvsQiTXKEhaTwMGDDDnn3++ee6558yIESPMW2+9Za6//nrTu3dvO1D05ptvtgNTQRe8Bx980A407dOnjw2Mhg0bZo4//niTn59vzj33XDugTTZfTFbAZBIikn1MgrB8eRW3JCLZxCQGvERylYKk9cTscjz/6OqrrzannHKK6du3rxkyZIidkvv999+3kzdEde3a1U4FzlSI/fr1M2eccYb5/vvvzaWXXmr/VkREREREcotmt8thmt1u09e+env7LClN3pBZmt1OkvDcIJ4nVLfuBJcimaPZ7aS4BY0b26mva0SeuSMZoNntNphakkRSxANoFSCJpINnBSlAEkkHDzpVgCS5TEGSSIpObXiqJm4QScm8eduZiROPcksikk0zO3UyP2uGX8lhCpJEUkSApIkbRNIRBOXMypUV3JKIZBMPkg3Kl3dLIrlHQZKIiIiIiEiEgiSRFP1n9n/M8iD52VsikllVq840jRppcL5IGupMmGDqpjQxlUhpKEgSSdGUJVNMYVDolkQkmypWXGiqV//ZLYlINlWZPdts+dtvbkkk9yhIEklR38Z9TaVyepieSBrmzm1lvvvuWLckItk0vWtX81O3bm5JJPcoSBIREREREYlQkCQiIiIiIhKhIEkkRS/OetEUFBa4JRHJpho1ppnmzYe7JRHJpq2/+srU//xztySSexQkiaSoIFCAJJKWvLxCU66cZpcUSUPeypUmb8UKtySSexQkiaSod4Pe9oGyIpJ9f/zRzEyadKhbEpFs+mWPPczMTp3ckkjuUZAkIiIiIiISoSBJREREREQkQkGSSIr+Of2fZlnhMrckItlUq9Yk07r1S25JRLKp4ccfm8YffuiWRHKPgiSRFG1VcaswEyobiqRh5cpKZunS2m5JRLKpoFo1U1C9ulsSyT0qnYmk6PB6h5sK5Sq4JRHJpgULGptp07q7JRHJpt932sn82r69WxLJPQqSREREREREIhQkiaSoMCh0/xOR7AtMXl7g/i8iWVUY3v8C5T/JXQqSRFI0eOZgTdwgkpJataaYli1fdUsikk0NPv3UNBo92i2J5B4FSSIpalK5iSmXp2wokobly7c0ixY1cEsikk1La9c2S+rUcUsiuUelM5EU7VtnX1MhTxM3iKRh0aL6ZsYMPfFfJA1z27Qxc9q1c0siuUdBkoiIiIiISISCJJEUrQxWuv+JSLYxaUNeniZPEUlDHhM38BLJUQqSRFL09MynTUFhgVsSkWyqWZOJG153SyKSTfU/+8w0+vhjtySSexQkiaSo9ZatNXGDSEoKCqqbP/5o5pZEJJsW16tnFtWv75ZEco9KZyIp2qvWXmaLvC3ckohk0+LF9cyvv+qJ/yJp+KNFCzNvu+3ckkjuUZAkIiIiIiISoSBJJEWauEEkPZq4QSQ9duKGIHBLIrlHQZJIijRxg0h6NHGDSHrsxA2jR7slkdyjIEkkRbtU38WUzyvvlkQkm5YurW3mzGnjlkQkmxY2amTmN2nilkRyj4IkkRS1r95eQZJISgiSZs/WE/9F0rCgcWOzYNtt3ZJI7lGQJCIiIiIiEqEgSSRFQfhPRNLD5A0ikgJN2iA5TkGSSIoGzRhklhUuc0sikk21ak0yLVu+4pZEJJsajBljGn30kVsSyT0KkkRS1KlmJz1MViQlS5ZsZX77TQ+TFUnD/GbN9DBZyWkKkkRS1K5qO03cIJKSZctqmnnzWrglEcmmRfXrm0UNGrglkdyjIElERERERCRCQZKIiIiIiEiEgiSRFD0+/XFN3CCSklq18k3r1i+6JRHJpoajR5vGH3zglkRyj4IkkRT9qfafNHGDSEoWL97GzJrVwS2JSDbNa9nSzGnTxi2J5B4FSSIparVlK03cIJKSgoLqZv78pm5JRLJp8dZbm8XbbOOWRHKPgiQREREREZEIBUkiIiIiIiIRCpJEUvTwzw9r4gaRlNSuPdG0bTvELYlINjX66CPTZORItySSexQkiaTowLoHmgp5FdySiGTTwoUNzM8/d3VLIpJNs9u1M7/vuKNbEsk9CpJEUtSsSjNTLk/ZUCQNy5dXCwOlRm5JRLJpad26ZslWW7klkdyj0pmIiIiIiEiEgiSRFM1bPs8E4T8Ryb7y5QtMxYoL3JKIZNMWS5bYl0iuUpAkkqIhvwwxBYUFbklEsqlGjammRYuhbklEsmmbL74wDcaMcUsiuUdBkkiKDqt3mCZuEEnJggWNzbRp+7glEcmm33bayfzavr1bEsk9CpJEUtSwUkNN3CCSkhUrqpjFi7d2SyKSTQU1a5pltWq5JZHco9KZiIiIiIhIhIIkkRRNXTLVFAaFbklEsqlChUWmWrUZbklEsqnynDmm8uzZbkkk9yhIEknRW7PfMsuD5W5JRLKJAKlx4w/dkohkU93x4029b791SyK5R0GSSIr+ss1fTMW8im5JRLJp/vxtzZQpB7klEcmmX3fd1czq0MEtieQeBUkiKapboa7Jy8tzSyKSTStXVjLLltV0SyKSTcurVrUvkVylIElERERERCRCQZJIisYuHGtWBivdkohkU6VK80zt2hPdkohkU9UZM0y16dPdkkjuUZAkkqJR80aZFcEKtyQi2bTllr+Zbbb50i2JSDbVmjzZ1J6oSgrJXQqSRFJ0YoMTTcVymrhBJA1//NHC5Of3dEsikk0z99zTTO/c2S2J5B4FSSIp2rL8liYv/Cci2VdYWN6sWFHZLYlINhVWrGhfIrlKQZKIiIiIiEiEgiSRFH3yxycakySSkipVfjdbb/21WxKRbKoxZYqpOWmSWxLJPQqSRFL09YKvNbudSEoqV55r6tT5zi2JSDZVnz7d1PjpJ7ckknsUJImkqG/jvqZSuUpuSUSyae7cVua77451SyKSTdO7djU/devmlkRyj4IkERERERGRCAVJWfLNN9+YXr16mTZt2pjDDz/cjBs3zv1GRERERERyiYKkLBgwYIANjCZMmGA6duxof/bo0cPcdtttbg3ZHOWtyDNvXP2GWfm7xiSJpOHll2eYv/3tPRMELkFEsuaOsWPNDV9r4hTJXQqSMiw/P98MGjTIdOnSxYwZM8YMHjzYjA0vDHvuuae5//77zWeffebWFBERERGRXKAgKYOCIDD9+/c3BQUFpl+/fqZ69eo2vVKlSubGG2+0vydQEhERERGR3KEgKYOWLl1qxyJVq1bN7Lrrri61CGOTmjdvbiZOnOhSREREREQkFyhIyqAlS5aYFStWmB133NGUK7fmoW7atKmZPXu2W0pGa9PMmTOLvXhfERERERHJjLywEK4hqxny66+/2rFHBx54oHn44Ydd6mpnn322+fe//22mTp3qUorr2rWrmTJliltarXz58quCrry8PPsz+jWuT1r864+m+Yec8rNc+M+/B+Jp/E1h+K98+M+41Val5YVpTmFQaILwX2nSUC5vdXDJZ+aF/0qTtq7txQanhYdnZfgvmpa0r0nHZI19DXezMO9/29eM7v/a9jXpu17bvoaSvtf/Ja20+xXdBo/fs91RpUnz75v5tJWxtKL9D4LV+5+XRx4tF6YVvQdKSiv6u7WlBfYzoml5eXw+aauPX9F2hN/sGmnxbSvrNPaL7yKetiH7X7SvhYVF6xVdTv3+R/cr1/Z/w/c1OW1d+1rS/m/IPpQP04o+vyzzSXQZpUkr1fsXFpq8lRzfMC1SyZkXpiOjaXwu2xxPC5cDt53hhtq/tevE08IywioJaWHBz+7fOtPCZWzQPpQijaUgTNsikoY19jVEml2nDPa1xPXC1/ruA0qdVprvNbSh+1piGvtVoYJL4G2L3ne980RoQ9L4/wUXXGDOP/98m7YxCY9dZK+kTP3yyy82SDrkkEPMgw8+6FJXO++888wrr7xifirhidPPPvusmTdvnqlSpYpLWc2fgCIiIiIiuWqXXXYx7du3d0sbDwVJGfT777+bDh06mL333tvOahf397//3YwYMcJMmjTJpYiIiIiISNpWt/lJmWMWO7rGTZ482aUUR0tTzZo13ZKIiIiIiOQCBUkZVLVqVTuz3Y8//mjHJ0UtX77cjBs3zjRs2NCliIiIiIhILlCQlEFMrnDppZfagWtDhgxxqUXuueceO0X4oYce6lJERERERCQXKEjKsL/+9a92CnCColtuucW89dZb5o477rCz3TGQ7bTTTnNrStw777xj7rzzTpOfn+9SNj5MvtGoUSMzbNgwlyKSOW+88YbNM7xmzJjhUotbuXKleeCBB+w6//rXv1xq2eIh2Zz3n376qUsx5tVXX7Vp//nPf1zKxqVv3752+0s6riL/K+4T5MukWW2xcOFC+/unnnrKpRTp0qWLPTf5/Yb6y1/+YsdPZ8rbb79ttzG+7SK5TEFSFlBQZjpvLg5M1vD444+bjh07mn/+85+mQmRaRinu3XffNXfddddGHSSJZBOPFCDP8HrkkUdcanE///yzrbBhHa5NIpIbhg8fbvMlXfSTEATx+2eeecaliEgmKUjKgjp16pgnn3zSjkFiuu8JEybYi1z9+vXdGiIiZYdrCzNnJrn22mvtIwSyPWnMEUccYaZPn24OOOAAlyIiZWHUqFE2bzEGWkTKjoIkEZFNDM9mo8sOrUZRPJaAbi+nnnqqqV69uksVERGROAVJsklg/NJBBx1kWrVqZbbddluz8847m7/97W/FZhVkRsE2bdqY448/3qUUoY83faV32mkns2LFCpda9J6NGze2LYDrwjgPPm+HHXYwTZs2Nbvuuqu54oor7GfGzZ8/35x00kmmU6dOpkWLFnZ7GbfWu3fvNQq1f/zxh922gw8+2Lz++uvmz3/+s/2b7bbbzhx55JFmwYIFdpuZIIQHtfl9v/322907rDZo0CB7jNjGJk2a2PehG2jSg47xzTff2Fp/Pot1+WzGley77752m9iPqIkTJ9pjy3FkO/gu2O6PPvrIrSHZst9++5mKFSvaczDqv//9r21FOuWUU1zKmmjpPvroo832229vv0fyzGGHHWY+++wzt8Zqc+bMseu2bdvWNGvWzD48mzGXhe5p81FJY5I4p0kbOnSoS1ntxhtvtOdd1G233WbTyFc+v7GNe+yxh22tB910OW9btmxpmjdvbnr06LFez6IbP368PW/93zNOIz7xjjd27FibD8nv5HuOAdty4YUXmsWLF7u1inz11Vd2Xx999FFz6623mt12283+Dce5f//+dh3yM9eBdu3a2d917tzZXoei2HeeXE9+bN26tc3L/DzwwANti0ISunrzXmwf+ZLv87vvvrPbw7UnjkCa48Z3z/HlODO+liBbck9JY5LofrvPPvvY85jzef/997fjBDlnu3Xr5tYqjhYpWn05p/w5uD7dcsn7F1xwgb0Pce5wP0jKD1i0aJHp06eP/QzuM6xPfujVq9ca3ez5e/aRZ0++//779hrH37Bv3NemTZtm78PXXXfdqrzFeRu/BuLNN9+0k2b5exXvsddee9lrThLuyz179rR5hzzE9nK9YfgE2zR79my3ZhHW5/rEuHPe3x97xozKxkVBkmz03nvvPTuomgvVJZdcYgv9XORHjhxpjjnmGFNQUGDXY/wXhZn4oFgKf1tssYW9wUQL/kyyQfo222zjUpIxSyEFCvqTc+G+7777bCGGwtpzzz3n1lrN3yxOPPFEc++995p//OMftmafQgtBRtLznRksfs0119ibB+9/wgkn2Jvd6aefbm9AFAIvu+wy+34UmpgohBtkFF09KcBx02C8yk033WRvhPx84okn3FpFCHi4kfK+5557rn1fbir8bVJBie1j4C/PBGOb2KerrrrKHhtuFhQQJXtoJTruuOPM6NGjbcHbe+ihh0yNGjVKfPQAgTHfI+fKeeedZ9cnT1GY4ZyjAOURwJPP+IyjjjrKnpdMRENAQZ7MFApC7Bv5mQIR46voZsS5SbDFTwoknLOcuz/88IO5+OKL3V+vHQUtgoHvv//enHHGGWbgwIF2H/mMpEBr5syZthDEseK6w3gRgpVXXnnFXH311W6t4uhqTaB40UUX2ffffffdbRBz880328CnQYMG9v90i+RaQUA7a9Ys99fGVopQCKO1kLzLJEB+FlWuH3yHUS+88IK5/PLLVx0vKoXI92eeeaZboziuG3zmlltuaf+OvExh8IsvvrCfGS8QSm7ifsK9gbxLHuaewPnF9Tmaj6Pmzp1rA2gCZyo7OAc537i3cK6vC+cg9zLOOSpMyIOcQ1QmcH2I4/7A9Yn8TN7hXOO85LO4/yxbtsytuRp5gv2hIoT3P/vss+2+8pN8+vHHH5v/+7//s59HoEblIOPAo3h/AijyDdc4Kl/Ih+Rh/h/F/a579+42X3EvI89SkUFARaVT3G+//WaOPfZY8+WXX9rKUPZpwIABpkqVKrZcoErDjUx4UovkpP79+wdhYS4YNmyYS0nWrVu3oGXLlkFYiHEpRe6//3779zfccINLCYLbb789CAs1QXihtcthABW0atUq6NOnT9CoUaNg/PjxNj28MQThRTTYfvvtg+XLl9u0kowaNcp+TngjcSlFwgu8fQ9+FxbeXGrJwovnGuvOmzfPprHN+fn5LjUICgsLg/BmZn930EEHFdvG8MYThIWgICywupS1C29qQXhDs+/p9evXz37m119/7VKKsI0cJz43LCTbtLDQGoQ3kaBNmzZBWHizaV4YeAa77bZbEN7wXIpkUlgAst9NeIMOwsDUfldhMG1/x/nD78KChV3mOw8DX/t/Lwx2gg4dOgRhwcqlFAmD4KBFixZBjx49Vp0nYWHfvl9Y6LbLXhhg2XOH340ZM8alBkEYONi04cOHu5QgeO2112zam2++6VJWI982b97cLRW59dZb7fo9e/a0edSbMGGCTef1zjvvuNQi5APSw8DHpZQsLDQFjRs3XmN7RowYser9wwKmSy1ZWICy64ZBl0sJ7HdCWseOHe21weMaFBbm7O/Cwp9LLRIW+Gw6x6k0yGvsQ1SXLl2CsNAbzJkzx6UUufLKK+17c43ywkKy/Z732WefYtuIyZMnB02bNg3CAqdLkbIWFqLtd8K1nety/BUWzu3vw0Dc/UWRzp072/Qw4LDL5I099tjDnsthQd6meeR/1g0DJpdSpFevXjY9LNS7lCKffPKJTQ+DDpdSMq4TTZo0CcKg2qUU4RznvOd9Bg8e7FJL5vMz1xiPaxJpvEaOHOlSi/g83rVrV/tZHucw534YULmUtQuDK3vMuO96lBl47/g1gfJGs2bN7O/CQMqlFt1PKY9MnDjRpRRZsmSJ/Z7Io+sqU0juUEuSbNTCc9i2DFH7Fe+aQ61P+fLlzfPPP7+qGx21Rfz/pZdessvUOlHTRksUqAEGLSnUqtF6QmvS2viuCNTQRdHdiVkMk7ANzGBEzRW1dNSMUfuGsEBkf0bVqlXLNvN7dJny3QbPOuusYttYqVIl232A1oA49pUWsrAAaj+T1y+//GL31XeR4pjSLYDB//GuOBw/asSiaFHgO6BlbKuttrK1f/7FdtHdI6kWXjKLLluc/74LCa0XfHe0eiShG9fnn39uW0L4u+j3yOQz1KaGQbP9vkGrDS1WtNZE0UWVbjCZRO0v2+j51t7KlSvb8y2KVl7QjXBd6K7GdYTudlF0uSNfJeH40KpLzTvd5shTvqtQUgsq28O1waOFh1p33p9ueFF0GeJ5e9RKR5FHybNM4U4Ls8/LtJrzHXnU0nOdoTWsdu3aLrUIteFxH3zwga3dp7sunxE9BzjG9erVs13xJLPo8kkLbfyV1OU1Cd1g6WpOtzC6fEWR/2lNTkI+pwU1insJwmDJ/lwbWk1o6Y135+UcP/zww91ScaxPSym9G2gF5jz2M3O++OKL9mcU9z66qkfREgVan/gsj3xGN3TySlwYtNgWb1ptaVHic2mh9XkL/N+3QsWnR+c6ES9zgDxPKxc9OqL5h+2mhSkMwOx9WDYOCpJko0ZXGgp3dB+Jo0BIn3oKDqwD+iqD7i3ghs/Nn8I/fZIJqLgw+i4rpXmOlV83abYwCj9xdBegDzUXXQqwgwcPtl1wfJBE0BJHwBItFILACdzY4rg5sN9RdMuhuyH7xM2Mz+RFlwF/fMDncxHn/SmgRVEIje8nhSr+nintef/4i4DUdzGU7KHQTZcuClZTp061Y4LIDyXh5k7wTsE76Xv0Y2P4vkFFAt3c4ucI4oFKWeLcjs8M6isJ6Psf3x5fICzNOUi30aTutbw/YyHiOAak093w7rvvttcV8hRdb+EDyijGMMRxraJ7W5zfr+hYE74jAhy+E7oRPvbYY6vyMoXjaJdhgiuuZ0mFuWili+ennqZrZfz7p6suhdmk65OULcat0YUs/iKILQ0CACq9+M6SEHwnSbqH+YA+PgY1iQ+kks5xxhrFcS0hgCcP0SWNrnGcx34MYFIXv6233nqNCgu/3XRVjSNv+UpSj4pIzmnOc57p9vTTT9vP5fiSX/z9kICG/ea+lzRzINsSR4BFBVI8//CiCyDbQmAoGwcFSbJR84FAtCUlilolLnq8wMWUGweFRgpNBDhcvPxgdvoT01+bgiVBQlLwFecvqEmFxWiNscegVm54tOZQiKFgwmf6YCvpAhoPkMA2R3/G+X0GNcqMRaAQSUsSYy5oaeJzKWhF1/WfH62Ri4rfoPzxpTWPfYq/+Fxq2SX7aN3j++LhsUxAEp+0JMoHP4yrK+l7pD++L5Bwsy/p3IufI2WppM9EUh5cH5z7SXkN8X3i+kHNNXmLQhbjLhjTRJ7yNeDRfOUlbePa9gnR96FF4cMPP7QFPMY30EpLDTifS8uvbxHG2q6PSWl+fWr0k84BxoD4SSYkd/nzpaRreEn3y3Wdh+viz5+kPJS0LYxD4h5IbwruufRI4Dzm/oh4cIO13QtLk//Jt4yT4jrG+DtamP29kOsk/PHzeYnjlXRsku7v/A0teEn5h/FOjA2rWrWqW1tynYIk2ahRG8qFkQtcHBdYAhAuztGbAt1dqGmjcMNFmVYk/OlPf7IXPWqHqRFLqpVK4rsjJDWhE4zEcVFmVp2TTz7Z1lr7mwcFrExhEgu279RTT7WfHW0BYLKFqLp169ptokYsXsgjIIxP3OCPLzcdatSTXswMJNlHKwq1utSS0t2KSRlKQhc5CgJ0mUz6Dv3Ld7ds2LChzUdJgUDSgOYk/r2iLZleUheZTOPcpzUmjn2Md9ej1YltZHA2M4VxfH0BrrT7vyGYEZDtoVsU1x5quX0BLt5yRaUIkmrko5NBeL4VjXMh6bvnRVciyW3cxzgnuJclyVRrIF18kTS5DxWTcQRI3MPpMs71xAcdSX9fVpiAhBYi31rKNdLfC+Mz2dKdmG2iJddXIkVFZ8/1CIC4vyblHV5UrGSyEknKloIk2ahxEePGTutIvDsND9Ok0MAMN9EaH1qSCKDo5sZMTb5LHIUNLph0SyJw4O9Kw/e1jvfZpkaJGt+4pEIl+NxMSaqRAzfLYcOGuaUiHAeOCa1q8YIqwWj8ZsExI0Cii0RJM19Fa7cleyi0n3POObbwwkyP0XwQRzBFoZvpdUvqMx8NZggMKGxEx8CA7iljxoxxS2vH1OFJhTnyclLeyTTGb7At8aCCbr0ERVE+H8fPbfIa3YYyxefl+HWE8WS0KEXxfRL4cS2MB6LxqcVBvuecYZxTSdcM5eXcRy8Ium/S7St+TSZfxc/lskKFAfmZSrkozlVme43jXOJ38XO5pAdhlwXfUyL+mVzLfDd8j+slM2UiPq6Wa1RSxSZdW9n+pIoJKP9sXBQkSc7josINO/7yFzue08LFigu0T6egQ7c2aqoZ5B3FlL2g2ZsaHWqTQIsIg859Vxm6j5UGNavURDGAnRsQn89ATWqqkm5GDOika50f5MqLCRziF+iyRBcqWnvoLsPNgM+kMEvBOemizTSsFJRpXeMmy/rUPHNM4l0aOIaMd2J9WozouuD3i++DsVZ0+5J0MFiYAjFTsq8L0+jS+sqzsKhg8N8j5zOtUYwf8HyrFJUEtLKwHucA5328AFIS8gLBGWMwqGnmPSjMM+YmjbEvTPZClyEKRn7/qSygK2689pftJi8wFo8acdalZY11M9kK5itl6L5DhQWf++2339rvI543wfWJ3/Pdsi4vKnSYPjyOMWu0UFGjzrTftLb7v+EcYAzl+jwzR9LBfe/666+35zKTEvnzhJaP+EQ/ZYkgmx4YTPzx8ssvrzp3mJKbFpw4Km/I92yrv3czLpip6jOFbST4YSwfrcZ8Ji1FlB/4fxyTOhD4+UcjsA73Tu6N8YpZMA05eYXJX5jAhfV5sX9U5jINO/+XjYOCJMl5XNS5ecdfPECPAhUXYAoAzFTHGCJagCjkUfintYjWpihmaCIYAutF+zj7WXKohYvPZlMSutkQHNGiQuGO7myMDaA1Kun5LPR7ZuAsBQ6e1cCLvtkEGpnCMWBb6F7IbD/UmLOdHCuOXRwXcgphBFS0vLEeMwpx4adgi2irBL+jsEg3Cfpj+/fm4XsEq36SCcltBFQE7wQonMN8j7xo8aGwwPfpcQ5TEKJgTkGc75sXBYKkc6okFNYpxFHo4LwkD9NNjO6o2cY1hfFzBDl+fxhUTsGKioYorhGMaSAfEDz6Y0XBiGOYKTwAmklm+Gz/HTELJ/nVd3eK4jrD73mAJt8j61M54p8HEx8fwfWUawU1//4Y8Dl891TmcJ2T3EflIQE790UmTeB7pGs5lXnks0wEStxL6RFB1zlm0eNc47NpWaJ1Mo5rCvc/ZrPjJ+cZ45OSnqlUVsi3zCJJ5R/3Qo4L20k+iM8uCVqG2D4qQCgTsL6/h3K9AL0vPN6LXhUEQrS2s0/8Ddc1Jk2ivOC7x0ruywtKW+UnkmUM5CypTzW4MFE48bWnFE6oAaXARRcTZrJLmvkN1KQSxHCh4+LsUUNE4YPuYzw4cX1w0WWbeQ9mveECSgsXXY+4uPrgAtRSk05NFp9FIYxAhlYsxoT4fv/UBJLGfjAjXhRda5iNh0AvPiMX0z3ztxSOophalhfHjL7gXLzpSkTLFgXk6MWbSwO/Y33+zzgFXyjj7xmoHkdQxXtRyOZv2G5uDr71TjKLgfycc0zjTR5YG2Z4Ig+xbhznJ60jBL18j5yTFJKj57DHd01XL2pVKRwx7T1j8eiGR4sMlRKghYpJBwiGfCWFxzYzux7nLIUS8iXnF+/DeenxnrRa+coMj8oSWiyT8gldROlCyHaVdmpyrg2cxwR8dFmjtZnpwdlOrjnRmeioXWbbqT0mH1JhwDWAPEiA5QNLrg/MekdBlUqeKAqybGd8zBjXMh5LwDZEpz3mO+FvuAbQakBBlH2jpppjGJ9umf3wk8TQIkYhj++e/aIgRythHPtF3idPU6Bm3/ickq6p8r/jO6Uii++EvBRHQZ3zIX6eM06N1hACIz/G1fP5iACGIJlzj0CbfBnt4k1rM+8f70Hh70FcT5KuFUm4fnAv5JxnW6k44zwiH0bzBLhucD+mlYsAnHOSbaNFiXzmW68JOuJpHq29zFRLHonP5EgFJtcxxgJFUV7wXYW5rvG59JZgfe793Jej+F5okeV4UEFE5SH5jDIK16R44EOrOmMTeU+2neCIPFraa5DkBgVJIlJqFLJoZeKGQ3dFEdk40cpOrT2tXvGgSjZdVFTQkkhLrX+Gmqw/glJadKnQYXZL2TSpu52IJGK6aGraqFHmRQ0bLVN0Y2S8gojkPmrzr732WtuaQGsVY0D8Q2hp4VWAtOmiCyYtorQ40grKw1P79OljZ19bny6xmzvyCK1dHEOOJeOr6B1C61ga3YIle9SSJCKJ/AMBfTcCLhV05aDLA90DRST30RWJ7nWI5mW6BNP9L+mBmLJp4Hvn+49+74yho/ucf/SFrBvdgzl20eMIxhfHu/7JpkVBkogkok81/anpM86YBsYwMHNRvK+2iOQ2xj4yLoMxTtzyaUmgEiQ64Fw2PYwNIkjiGk4PAMbzUOCPjqmTdSPfMKU390TGFzGujzF6Gp+36VOQJCIiIiIiEqExSSIiIiIiIhEKkkRERERERCIUJImIiIiIiEQoSBIREREREYlQkCQiIpKSl19+2dx+++1uSUREcoVmtxMR2Ux16dLF/Pjjj27J2KmBa9eubXbccUezzz772BdTBsv6mT9/vnnzzTfN66+/bsaNG2enYt5qq61Mx44dzVFHHWUfRMk0wjjjjDPMiBEjzA8//GCXRUQkNyhIEhHZTBEkzZ492z6FH0uWLDFTp041X331lX2+Cs/HGjhwoDnyyCNXPUhR1u7XX3813bt3t4ERD2rda6+97DOJJk+ebD7//HP7vCKCJR7oCQVJIiK5SUGSiMhmiiBp+fLl5tNPP3UpRQiOeHji/vvvbxYuXGjuuusuc/TRR7vfSkl4aGuHDh3swycfeugh06NHD7PFFlu43xp7rEeNGmXuuece8+qrr9o0BUkiIrlJQZKIyGaqpCDJ+/rrr81hhx1mWrRoYUaOHOlSi9DaNHz4cDNp0iQbCOyyyy7mhBNOMNWqVXNrFOE97rjjDnP99debmjVrmkGDBpnx48fb1pV+/fqZGjVq2PW+/fZb88wzz5i5c+fabn7HHnvsGq1XtM689dZbZsyYMXa9+vXrm8MPP9y21pTkkUceMV988YXtRkigt/vuu5uzzz7b7LDDDuass85ya6329ttv28/g/Vu1amV69+5tmjZt6n67dowtIgC66qqrTN++fUtsfaM7nt/vkoIklocOHWomTJhgl9u2bWu3hSf9xy1atMgeV45hQUGBadCggW2tOuSQQ0z58uXdWsZ89913ZsiQIba1sGLFiqZ58+Zm3333tcdELYUiIsUpSBIR2UytK0gCY2gISt5//33TsmVLm3b33XebO++80wYp9erVs930pkyZYurWrWsL6zvvvLNdDwQAJ554onn44YfNNddcYypUqGDHPn3//fd2nA5jd+h6dt9995ntttvOdv/75ZdfzHHHHWc/I4r3JSAgaKGQP336dBvMEPywTVF0e6ObIGOuGFdVtWpVu439+/c3Dz74oOnatat54IEH3NrGdi8888wzzSeffGIDOIIqusgVFhba7WYf1mbZsmVmp512MitWrFgVlJVGUpDEZA7nnnuuPbYERbwn2844Jlr1aKHyCIw4VgSQHL/KlSvbfeEYvvHGG2a33Xaz6xEsDhgwwB6HZs2a2f36+eef7ff/5Zdf2gBWREQiCJJERGTz07lz56BDhw5uKdnll18eNGzYMHjooYdcShCEgUQQFtrdUpH8/PwgDLqCPffcMwgL9S41CN59913792FgEzz33HMuNQiGDx8eNGnSJAgL+EG3bt2CadOmud8EQe/evYMwUAnCQMqlFAkDqqCgoMAtBUFY0A/uvfdeu+7o0aNdahCsXLkyOP744+3nPv7443Y9jB8/PmjVqpVd/6yzzrJp3hFHHBFsv/32wdChQ11KECxcuDA44YQTgjD4CGbNmuVSk4XBiv28tm3bBmHg4VLXrW/fvnabonivcePGuaUiYdAT9OzZMwgDsWLHoE+fPvbvJ02a5FKKsK9hEGn/P2fOnCAMFIPu3bsHS5cutWlgO99+++0gDHJdioiIeJoCXERESsTkA2CMkkdXLlojaOFYvHixHbdEi8d5551nW3AYkxPHZAZ0ofPCwMi2XnzwwQfm2muvNWHA5H5jzDnnnEMFnp0dLurggw+2Xft4f1qUeJ166qm29YT38Gileu+992zLCr/3XcnatWtnW2J47yhaXT777DNz8cUXF2ulodWFLnR83g033OBSk9GihVq1ahUbh7QhmF0wDNjs2DB/fGl947jQ0kZLkUdLGV334l0C2dcwaLP/Z/9oOaJrnZ9VD2znfvvtZ4+fiIgUpyBJRERK5AOK+JgVxt7ssccedjwLXbp4XXbZZXZMzLx589xaq5188snuf0XodscLTHYQxRgo0B0siu5vhx56qP1c/5l8PkEM420IKpCfn29/XnjhhWtsN+N0CDii6CLIfn7zzTc2KIq+nnrqKdu1j2548eAqam2/2xCMHeK4sH/+GNM1D8yS59FtkCCI4zt27FiXWhzBIsHbY489Zm677TYbaImIyNopSBIRkRL5VgvfKgEmXCCAoDWJQISCN0HTaaedZn+/YMEC+zMqPkYnGrzEgxbfEkNLlccEBkwiMXHiRDvW6LrrrrOtQnwuLSkEKbSWwH9+69at7c8oPjfecuKDKgIT3i/+YrwR2+LfP0mdOnXsTwLE6HZvCI4nx5iWNlqPbrnlFrsdtNSBiR+8Cy64wI6XYszYgQceaCek4Dg9+eSTq7aXYPSll16yY6YY+9W+fXsbgBFYMaZJRETWpCBJRERK5GdXo7sc6P7F9NUs8/P00083RxxxhO0KRxcvJLWqxFt01tejjz5qg58XXnjBzpRH1z1alQgMfPc+/7m+SxlTcieJBzF+prnXXnvNTgaR9GI2v+hMcXHMhEewR0CVFCSuD/aRSSreeecdOxMfQSHHl+AG0eNLIHXTTTfZGQOffvppc9JJJ9nueVdccYWdLMNjdjy+L6Ygv/fee213RybsIKBitjsRESlOQZKIiCSilYGuXQQAdNnCTz/9ZAOBXXfd1S5HUQDPlFmzZtnWGqYaj6IViO2JYnY6MEtcHF344kGMH4fkA8INQWBGSxrbkvS5UesKoug+16ZNmzWCspK606F69ep26vRLL73UBlkEUjfffPOqLoggUGXsEjMW0hLIs5yY3c4/s0lERFZTkCQiIsXQTYuC+jHHHGML23T58uh2V65cOTNu3Lhi3c+Y9vrZZ591S2WP1p7ff//dTJs2zaUUPfT2/vvvd0urMX6HSReef/75YuOaCAhogYq3dDF5AdOZM+V4fDwV69JSFZ0soSR9+vSxXduuvvpq+wypaIAClgkk1zWdOK1DTMgQ/fsZM2bY503FsV3xz/HdFfmeCIxoWWKa9vh++xa36GQOIiJSRM9JEhHZTPGcJLqk0WUOBAMEITw3h5YbuqUNHDjQdveKdpfjobGMgaG1gxnTaOHgWUp0weO5R3QT813v/HOSeEArY2KiCGYIxujOFsXEAnQ343N9EEQQ1rNnT/uw2gMOOMC2KvHgV4Ih3oPZ5WhVYpIFMNFCr169bMDBNvIMJ7aBFhdm6qO7WTTAousZzxsiyKFbG9tGiw+z3nFMeMYQQeO6EMzsv//+9m8JKHnQLQ935TlHvBez/3Xq1MkGcEh6TtJFF11kx0cx5ot95fhwvNmuDz/80I5R8oEW20mLEy1stPjxvfHgX4Inno1EN73Ro0fb8UcEgp07d7aTOBDksj0Ejnx3PJNJRERWU0uSiMhmjEkAaKHg9fjjj9vudQQ4TKlNoEHXrPh4Isa0nHLKKTbY4G+YipsHsxKUZAozvA0ePNjOfMfYIV4EP6TRYhLHNOUEGozFGTp0qH2wKmOY/LTiBFtRe+65p239IRAioOGBszzktkqVKrYlzY/JWhcCI1qLmDKcac0J5Dg2BGF8BseLsUNrw6QUTMjAcX3iiSfs9vi0OGYUJPgksOVzCAT5/vi7gw46yK5DMMvYJgJFjhvd7JgNkKCTfVaAJCKyJrUkiYjIZoNWJ2Z2u/LKK1e1oImIiMSpJUlERDY5PK+JMUzRekDGG/Xu3dum0e1MRESkJGpJEhGRTQ4Pnt17771tVzPG6zAWiHE93PLOP/98c8kll7g1RURE1qQgSURENjk8z4lJJxgTxLTlYJIDHn7L+Ka1PfNIREREQZKIiIiIiEiExiSJiIiIiIhEKEgSERERERGJUJAkIiIiIiISoSBJREREREQkQkGSiIiIiIhIhIIkERERERGRCAVJIiIiIiIiEQqSREREREREIhQkiYiIiIiIRChIEhERERERiVCQJCIiIiIisoox/w9g4OGa/3w94wAAAABJRU5ErkJggg==;" vertex="1" parent="1">
          <mxGeometry x="292.84" y="330" width="328.32" height="244" as="geometry" />
        </mxCell>
        <mxCell id="cDzh0OEQFYnWzeQINuw8-5" value="CHECK DATA BALANCING" style="rounded=0;whiteSpace=wrap;html=1;" vertex="1" parent="1">
          <mxGeometry x="90" y="130" width="610" height="40" as="geometry" />
        </mxCell>
        <mxCell id="cDzh0OEQFYnWzeQINuw8-7" value="INSERT DATA" style="rounded=0;whiteSpace=wrap;html=1;" vertex="1" parent="1">
          <mxGeometry x="130" y="220" width="153" height="40" as="geometry" />
        </mxCell>
        <mxCell id="cDzh0OEQFYnWzeQINuw8-9" value="" style="shape=image;verticalLabelPosition=bottom;labelBackgroundColor=default;verticalAlign=top;aspect=fixed;imageAspect=0;image=data:image/png,iVBORw0KGgoAAAANSUhEUgAABAAAAAQACAYAAAB/HSuDAAAACXBIWXMAAAsTAAALEwEAmpwYAAAgAElEQVR4nOzdb4x1e3sX9HVm9pw+pY99CkX+VAS0UBugIA0agbQld0CC/HlRMuG+E4lREdAQIEQlajAnEuPtiX0hGowQjWLwxWmjRgWMCWoJamxqSAiQNAQjEQMCIthbKn+eR/fMmZnMPLP3nrV+e6/Z1/f3+1zJesPp88l1znWta/3WxayZ6Rf/4l/08fa62l5TS9z87+7+9x8/ung8Ho/H4/F4PB6Px+NV8qKS5fF4PB6Px+PxeDwej9fmRSXL4/F4PB6Px+PxeDweb1UvKlkej8fj8Xg8Ho/H4/F4R0b1ZHk8Ho/H4/F4PB6Px+MdGdWT5fF4PB6Px+PxeDwej3dkVE+Wx+PxeDwej8fj8Xg83pFRPVkej8fj8Xg8Ho/H4/F4R0b1ZHk8Ho/H4/F4PB6Px+MdGdWT5fF4PB6Px+PxeDwej3dkVE+Wx+PxeDwej8fj8Xg83pFRPVkej8fj8Xg8Ho/H4/F4R0b1ZHk8Ho/H4/F4PB6Px+MdGdWT5fF4PB6Px+PxeDwej9fmRSXL4/F4PB6Px+PxeDwer82LSpbH4/F4PB6Px+PxeDxemxeVLI/H4/F4PB6Px+PxeLw2LypZHo/H4/F4PB6Px+PxeG3elJQsj8fj8Xg8Ho/H4/F4vDZvSkqWx+PxeDwej8fj8Xg8XqMXlSyPx+PxeDwej8fj8Xi8Ni8qWR6Px+PxeDwej8fj8XhtXlSyPB6Px+PxeDwej8fj8Vb1opLl8Xg8Ho/H4/F4PB6Pd2RUT5bH4/F4PB6Px+PxeDzekVE9WR6Px+PxeDwej8fj8XhHRvVkeTwej8fj8Xg8Ho/H4x0Z1ZPl8Xg8Ho/H4/F4PB6Pd2RUT5bH4/F4PB6Px+PxeDzekVE9WR6Px+PxeDwej8fj8XhHRvVkeTwej8fj8Xg8Ho/H4x0Z1ZPl8Xg8Ho/H4/F4PB6Pd2RUT5bH4/F4PB6Px+PxeDzekVE9WR6Px+PxeDwej8fj8XhtXlSyPB6Px+PxeDwej8fj8dq8qGR5PB6Px+PxeDwej8fjtXlRyfJ4PB6Px+PxeDwej8dr86KS5fF4PB6Px+PxeDwej9fmTUnJ8ng8Ho/H4/F4PB6Px2vzpqRkeTwej8fj8Xg8Ho/H4zV6UcnyeDwej8fj8Xg8Ho/Ha/OikuXxeDwej8fj8Xg8Ho/X5kUly+PxeDwej8fj8Xg8Hm9VLypZHo/H4/F4PB6Px+PxeEdG9WR5PB6Px+PxeDwej8fjHRnVk+XxeDwej8fj8Xg8Ho93ZFRPlsfj8Xg8Ho/H4/F4PN6RUT1ZHo/H4/F4PB6Px+PxeEdG9WR5PB6Px+PxeDwej8fjHRnVk+XxeDwej8fj8Xg8Ho93ZFRPlsfj8Xg8Ho/H4/F4PN6RUT1ZHo/H4/F4PB6Px+PxeEdG9WR5PB6Px+PxeDwej8fjHRnVk+XxeDwej8fj8Xg8Ho/X5kUly+PxeDwej8fj8Xg8Hq/Ni0qWx+PxeDwej8fj8Xg8XpsXlSyPx+PxeDwej8fj8Xi8Ni8qWR6Px+PxeDwej8fj8Xht3pSULI/H4/F4PB6Px+PxeLw2b0pKlsfj8Xg8Ho/H4/F4PF6jF5Usj8fj8Xg8Ho/H4/F4vDYvKlkej8fj8Xg8Ho/H4/F4bV5Usjwej8fj8Xg8Ho/H4/FW9aKS5fF4PB6Px+PxeDwej3dkVE+Wx+PxeDwej8fj8Xg83pFRPVkej8fj8Xg8Ho/H4/F4R0b1ZHk8Ho/H4/F4PB6Px+MdGdWT5fF4PB6Px+PxeDwej3dkVE+Wx+PxeDwej8fj8Xg83pFRPVkej8fj8Xg8Ho/H4/F4R0b1ZHk8Ho/H4/F4PB6Px+MdGdWT5fF4PB6Px+PxeDwej3dkVE+Wx+PxeDwej8fj8Xg83pFRPVkej8fj8Xg8Ho/H4/F4bV5Usjwej8fj8Xg8Ho/H4/HavKhkeTwej8fj8Xg8Ho/H47V5UcnyeDwej8fj8Xg8Ho/Ha/OikuXxeDwej8fj8Xg8Ho/X5k1JyfJ4PB6Px+PxeDwej8dr86akZHk8Ho/H4/F4PB6Px+M1elHJ8ng8Ho/H4/F4PB6Px2vzopLl8Xg8Ho/H4/F4PB6P1+ZFJcvj8Xg8Ho/H4/F4PB5vVS8qWR6Px+PxeDwej8fj8XhHRvVkeTwej8fj8Xg8Ho/H4x0Z1ZPl8Xi3cbW9/t7t9V3b67u316/fXv/i9vrXLy4ufu/d9fu21/dtr+/d/r9/1nrd/O/vnO/j8Xi8M3r/4fb6d++u75k+n3k3s+9mBn7HRx999FO+9Vt/+tcWmM88Ho/H45X1opLl8Qb0vmF7fef2+k3b6/dsr+/fXn92e/3t7fX/ffW1PQA/u3b93829eDweL8z7W9vrf724uPjvtte/s/1//w3b6xdury9NC6KT5wePx+PxeLnJ8ni9e9/+7T/na7YH12/b/uN/env9R9vrz0znP0zzeDxeD95Xttef2l7/3vb6J7fXz5j2ROLzg8fj8Xi8rpLl8Xr1vuEbvvRNm83m3c2P7G//0Z+fcg7TPB6Pl+79H9Pnnxb8+u31E7dX1PODx+PxeLwSOI/HO+z9qB/1tT/t8vLyX7i4+OgHtwfVr3R0mObxeLxU7+azqv92O5t/89d//d/xk6s+P3g8Ho/HOyqqJ8vjdeR94/b6rdvD6Q/cv/QXO/zyeDwe7/PryxcXF3/k8vLyn9psNl+cGqL484jH4/F4g3hRyfJ4HXgfba+b/8Hv314/EnT45fF4PN7n/+yHp89/b8DPn2ZG0ecRj8fj8QbzopLl8cK9r9lev257/ckp//DL4/F4vM+vH9he76bP/wzrzij4POLxeDzegF5UsjxesPdjttfv2F5/YapxWOXxeDze6b3/bXv9s9vr66ZHUex5xOPxeLyBvahkebxA7+Yb0d++vf6vqeZhlcfj8Xin9/7S9vpke319oecRj8fj8XhXUcnyeEHeF6bPX/z/8pRxWOXxeDze6b2/cHl5+Vu+5Vt+2td19Hzj8Xg8XrAXlSyPF+L9yu31Z6bMwyqPx+PxTu/90GazedfB843H4/F44V5Usjxece/nbK8/MvVxWOXxeDze6b3/ent9y7QwCjzfeDwej9eJNyUly+MV9W5+3P+T7fU3pvMfLnk8Ho9X2/ub2+v99PlfhXkxOnte8ng8Hu/M3pSULI9X0Puu7fVDU63DJY/H4/Hqe39ie/1D04Ho7HnJ4/F4vApeVLI8Xh3v5jdofrK9vjzVPVzyeDwer7b3t6bPfxrg89/K/Cg6el7yeDwer5IXlSyPV8P71u31P08Zh0sej8fj1fd+YHr0uwE6el7yeDwer5oXlSyPd37vH99ef33KO1zyeDwer7b3w9vr13T0vOTxeDxesBeVLI+3gnfzy5r+zSn7cMnj8Xi84t7FxcXv/eZv/nu+GPy85PF4PF64F5Usj7eC93dtr/9x6uRwyePxeLza3sXFxR/90pe+/icFPi95PB6PF+5FJcvjreB92/b6s1Nnh0sej8fjlff+3Pb6+6eG6OT5y+PxeLxX9qKS5fFW8H7J9vprU53DII/H4/HG8v7v7fXLpgXRyfOXx+PxeK/sRSXL463g/brp8z/PVO0wyOPxeLyxvL+5vX7tNCM6ef7yeDwe75W9qGR5vBW8f2Z7fWWqexjk8Xg83ljezTPpt0wHopPnL4/H4/Fe2YtKlsdbwfvtU8ZhkMfj8Xjjef/ytCM6ef7yeDwe75W9qGR5vBW8T6a8wyCPx+PxxvI+mR5FJ89fHo/H472yF5Usj7eC91un3MMgj8fj8cby3m+vXp6/PB6Px3tlLypZHm8F7zdN+YdBHo/H443lve/g+cvj8Xi8V/aikuXxVvD+0ckv/OPxeDxeoHd5efk7g5+/PB6PxzuDF5Usj3di7zu31/87dXQY5PF4PN5Y3uXlxaeBz18ej8fjncmLSpbHO6H3rdvrr0wFDm88Ho/H4x3p3f5OgKXRyfOcx+PxeAu8qGR5vBN537i9/sxU6/DG4/F4PN4x3ifTgujkec7j8Xi8hV5UsjzeCbyL7fUHp5qHNx6Px+PxjvFm/SRAJ89zHo/H4zV4U1KyPN4JvH91qn144/F4PB7vGO/gEqCj5zmPx+PxGrwpKVke70jvV00zf+N/Z4dBHo/H443lfTLtiI6e5zwej8dr9aKS5fHavW/aXn9pyjm88Xg8Ho93jPfkJwE6ep7zeDwe7xgvKlker837aJr53X+xwxuPx+PxeMd4t0uAjp7nPB6PxzvWi0qWx2vzftuUe3jj8Xg8Hu8Y75OOnuc8Ho/HeyUvKlke71F8y/b6kSn78Mbj8Xg8XrN3eXnxaQfPcx6Px+O9kheVLI/3KG5+9P8PTx0c3ng8Ho/HO8a7WwKkPs95PB6P90peVLI83lfFb5w6OrzxeDwej3ekd/BPBO6LAs9zHo/H472CF5Usj/dV8RO211+dzn/Y4vF4PB6vkvfJtCAKPM95PB6P9wpeVLI83o7496c6hy0ej8fj8Sp5s34SoMjznMfj8Xgre1HJ8ng74udury9PtQ5bPB6Px+NV8g4uAYo8z3k8Ho+3sheVLI+3J75/qnnY4vF4PB6vkrdzCVDoec7j8Xi8Fb2oZHm8PfGrptqHLR6Px+PxKnlPlgCFnuc8Ho/HW9GLSpbH2xM3f/bvj031D1s8Ho/H41XybpcAhZ7nPB6Px1vRi0qWxzsQ11POYYvH4/F4vEre+0LPcx6Px+Ot5EUly+MdiIvt9SemrMMWj8fj8XhlvMvLy99Z4HnO4/F4vBW9qGR5vAPx7Nv/hMMWj8fj8XiVvMvLi087Ox/weDwe75EXlSyPdyCe/Ob/pMMWj8fj8XjFvIN/InBfFD0f8Hg8Hu+RF5Usj7cnft6Uf9ji8Xg8Hq+St2gJUPR8wOPxeLyv8qKS5fH2xO+f+jhs8Xg8Ho9XyftkmhGFzwc8Ho/H+ypvSkqWx9sR37i9fmTq57DF4/F4PF4l7+BPAhQ+H/B4PB5vhzclJcvj7YjfNp3/cMTj8Xg8Xs/eziVA8fMBj8fj8XZ5UcnyeM/jTxY5HPF4PB6P17P3ZAlQ/XzA4/F4vD1eVLI83qP46KPp5xc7HPF4PB6P17P3yfYqfz7g8Xg83gEvKlke75F3cXHxbxU8HPF4PB6P17P3vvr5gMfj8XjHe1HJ8vr3vv3bf87XbA8wf67o4YjH4/F4vG69y8uLT6ueD3g8Ho/n5Z/Xoffxxx+/qXw44vF4PB6vZ+9uCVDufMDj8Xg8L/+8Dr2Li4vfVf1wxOPxeDxe594nU0MknTd4PB5vJC8qWd5Y3vbg8UMhhyMej8fj8Xr2dv6JwH2Rdt7g8Xi8UbyoZHljeV/3dT/qW8IORzwej8fj9ezNWgKknTd4PB5vFC8qWd543uXl5W+e8g5HPB6Px+P17B1cAiSeN3g8Hm8ELypZ3pje9h/9p1Pm4YjH4/F4vJ69T6YdkXre4PF4vN69qGR5Y3o/9af+5I+2//gvTrmHIx6Px+Pxevae/CRA6nmDx+PxeveikuUN7f19U/7hiMfj8Xi8nr3bJUD4eYPH4/G69aKS5Q3v/RNTH4cjHo/H4/F69t6Hnzd4PB6vSy8qWR5vG79n6udwxOPxeDxet97l5eXvDD5v8Hg8XpdeVLI83jZ+YOrocMTj8Xg8Xs/e5eXFp6HnDR6Px+vSi0qWN7x3sb0+TJ0djng8Ho/H69w7+CcC90VH5xcej8cr40Ulyxvem/ULAEMPRzwej8fj9ewtWgJ0dn7h8Xi8Ml5Usrzhve+eah1meDwej8fjzfc+mWZEgfMGj8fjdetNScnyhvf++aneYYbH4/F4PN587+BPAhQ5b/B4PF633pSULG9473dPNQ8zPB6Px+Px5ns7lwCFzhs8Ho/XrxeVLG907w9OdQ8zPB6Px+Px5v/vnywBip03eDwer18vKlne6N6fmmofZng8Ho/H482/PtleFc8bPB6P168XlSxvdO+vTvUPMzwej8fj8eZf7wueN3g8Hm94LypZXpfe1fb6ypRxmOHxeDwejzfTu7y8+LTQeYPH4/GG96KS5XXr/fgp6DDD4/F4PB5vvne3BKhw3uDxeLyhvahkeV17P3MKO8zweDwej8db5B38E4H7ovj5hcfj8WK8qGR5fXsffTT9gtDDDI/H4/F4vPneJ9OCqH5+4fF4vBQvKlle/97V1dUvCT7M8Hg8Ho/Hm+/N+kmAhPMLj8fjJXhRyfLG8LbxK8IPMzwej8fj8eZ7B5cAKecXHo/Hq+5FJcsbx7u62nx3B4cZHo/H4/F4872dS4Ck8wuPx+NV9qKS5Y3lbTabX9PJYaaa99nc6+Li4nu31/c9ur53yf+ex+PxGr3/YcqYp7x1vE+mR5F2fuHxeLyqXlSyvPG8zWbzdurnMFPJa6pH9X7h8XhdeddTxjzlree9X9Avs4PH4/FG9aKS5Y3pTQsPgNPpDx+9ek31qN4vPB6vK2/2/O9sPvOeXu876Wcej8c7qxeVLG9or2kBUPwwU8Frrcfi4PF4vEZv1vwvME95K3uXlxefdtDPPB6Pd1YvKlne0N7iBUDCYaaA11qPRcHj8XhHeC/O/yLzlPcK3t0SILmfeTwe76xeVLK8oT3fgK7jtdZjdvB4PN6R3sH5X2ie8l7PO/gnAvdFkX7m8Xi8s3pRyfKG9nwDuo7XWo9ZwePxeCfw9s7/YvOU97reoiVAoX7m8Xi8s3pRyfKG9nwDuo7XWo8Xg8fj8U7k7Zz/Becp7/W9WUuAYv3M4/F4Z/WmpGR5Q3u+AV3Ha63HweDxeLwTes/mf9F5yjuPd3AJULCfeTwe76zelJQsb2jPN6DreFXqy+PxePviyfwvPE955/N2LgGK9jOPx+Od14tKljey5xvQFbxC9eXxeLx98TD/K89T3tm9J0uAwv3M4/F45/WikuWN7PkGdAWvUH15PB5vX9zO/+rzlFfCu10CFO9nHo/HO68XlSxvZM83oCt4herL4/F4++I6YZ7yynjvK/czj8fjpXhRyfK69HwDuoJXqL48Ho+309tsNm8T5imvjnd5efFp1X7m8Xi8BC8qWV63nm9AV/AK1ZfH4/F2epvN5l3CPOXV8u6WAOX6mcfj8ap7UcnyuvZ8A7qCV6i+PB6Pt9N7vACYCs9TXknv4J8I3BdJ9wePx+Od0otKlte3N/kGdBWvSn15PB5vn3e/AJiKz1NeWW/REiDt/uDxeLxTeVHJ8vr3fAO6mtdUj+r9wuPx+vFu5v+UMU95db1ZS4DE+4PH4/FO4UUlyxvD8w3oal5TPar3C4/H68eb9vwZ2DlX+HzmndY7uARIvT94PB7vWC8qWd44nm9AV/Oa6lG9X3g8Xlde0wKgg/nMO723cwkQfn/weDyel39ef55vQFfzmupRvV94PF5X3uIFQCfzmbeO92QJ0MH9wePxeE1eVLK88TzfgK7mNdWjer/weLyuvEULgI7mM2897/2C/psdPB6Pl+JFJcsb05t8A7qW11SP6v3C4/G68mbP/87mM29d730n9wePx+O1R/VkeUN7vgFdx2utx+Lg8Xi8Rm/W/C8wT3lh3uXlxacd3B88Ho+3yItKlje05xvQdbzWeiwKHo/HO8J7cf4Xmae8QO9uCZB8f/B4PN4iLypZ3tCeb0DX8VrrMTt4PB7vSO/g/C80T3m53sE/EbgvitwfPB6Pt8iLSpY3tOcb0HW81nrMCh6PxzuBt3f+F5unvGxv0RKg0P3B4/F4i7yoZHlDe74BXcdrrceLwePxeCfyds7/gvOUl+/NWgIUuz94PB5vkTclJcsb2vMN6Dpeaz0OBo/H453Qezb/i85TXh/ewSVAwfuDx+PxFnlTUrK8oT3fgK7jVakvj8fj7Ysn87/wPOX14+1cAhS9P3g8Hm+ZF5Usb2TPN6AreIXqy+PxePviYf5Xnqe87rwnS4DC9wePx+Mt86KS5Y3s+QZ0Ba9QfXk8Hm9f3M7/6vOU16V3uwQofn/weDzeMi8qWd7Inm9AV/AK1ZfH4/H2xXXCPOV1672vfH/weDzeWl5UsrwuPd+AruAVqi+Px+Pt9DabzduEecrr17u8vPi06v3B4/F4a3hRyfK69XwDuoJXqL48Ho+309tsNu8S5imvb+9uCVDu/uDxeLxTe1HJ8rr2fAO6gleovjwej7fTe7wAmArPU94Q3sE/Ebgvku43Ho83theVLK9vb/IN6CpelfryeDzePu9+ATAVn6e8YbxFS4C0+43H443rRSXL69/zDehqXlM9qvcLj8frx7uZ/1PGPOWN481aAiTebzweb0wvKlneGJ5vQFfzmupRvV94PF4/3rTnz8DOucLnM6+2d3AJkHq/8Xi88byoZHnjeL4BXc1rqkf1fuHxeF15TQuADuYzr763cwkQfr/xeLyBvKhkeWN5vgFdzWuqR/V+4fF4XXmLFwCdzGdehvdkCdDB/cbj8QbxopLljef5BnQ1r6ke1fuFx+N15S1aAHQ0n3k53u0SoJP7jcfjDeBFJcsb05t8A7qW11SP6v3C4/G68mbP/87mMy/Le9/J/cbj8Tr3opLlDe35BnQdr7Uei4PH4/EavVnzv8A85Q3uXV5efNrB/cbj8Tr3opLlDe35BnQdr7Uei4LH4/GO8F6c/0XmKY93vwRIvt94PF7nXlSyvKE934Cu47XWY3bweDzekd7B+V9onvJ4997BPxG4L4rcbzwer3MvKlne0J5vQNfxWusxK3g8Hu8E3t75X2ye8niP//miJUCh+43H43XuRSXLG9rzDeg6Xms9Xgwej8c7kbdz/hecpzzeV1+zlgDF7jcej9e5NyUlyxva8w3oOl5rPQ4Gj8fjndB7Nv+LzlMeb9d1cAlQ8H7j8Xide1NSsryhPd+AruNVqS+Px+Ptiyfzv/A85fH2XTuXAEXvNx6P17sXlSxvZM83oCt4herL4/F4++Jh/leepzzeC9eTJUDh+43H4/XuRSXLG9nzDegKXqH68ng83r64nf/V5ymPN+O6XQIUv994PF7vXlSyvJE934Cu4BWqL4/H4+2L64R5yuPNvN5Xvt94PB4vMllel55vQFfwCtWXx+PxdnqbzeZtwjzl8eZ6l5cXn1a933g8Hi8uWV63nm9AV/AK1ZfH4/F2epvN5l3CPOXxlnh3S4By9xuPx+NFJcvr2vMN6ApeofryeDzeTu/xAmAqPE95vAbv4J8I3BdJ9y+Px8vyopLl9e1NvgFdxatSXx6Px9vn3S8ApuLzlMdr9BYtAdLuXx6Pl+NFJcvr3/MN6GpeUz2q9wuPx+vHu5n/U8Y85fFavVlLgMT7l8fjZXhRyfLG8HwDuprXVI/q/cLj8frxpj1/BnbOFT6feWN5B5cAqfcvj8er70UlyxvH8w3oal5TPar3C4/H68prWgB0MJ9543k7lwDh9y+PxyvsRSXLG8vzDehqXlM9qvcLj8frylu8AOhkPvPG9J4sATq4f3k8XlEvKlneeJ5vQFfzmupRvV94PF5X3qIFQEfzmTeud7sE6OT+5fF4Bb2oZHljepNvQNfymupRvV94PF5X3uz539l85o3tve/k/uXxeMW8qGR5Q3u+AV3Ha63H4uDxeLxGb9b8LzBPebyTepeXF592cP/yeLxiXlSyvKE934Cu47XWY1HweDzeEd6L87/IPOXxTu7dLQGS718ej1fMi0qWN7TnG9B1vNZ6zA4ej8c70js4/wvNUx5vLe/gnwjcF0XuXx6PV8yLSpY3tOcb0HW81nrMCh6PxzuBt3f+F5unPN6a3qIlQKH7l8fjFfOikuUN7fkGdB2vtR4vBo/H453I2zn/C85THm9tb9YSoNj9y+PxinlTUrK8oT3fgK7jtdbjYPB4PN4JvWfzv+g85fFewzu4BCh4//J4vGLelJQsb2jPN6DreFXqy+PxePviyfwvPE95vNfydi4Bit6/PB6vmheVLG9kzzegK3iF6svj8Xj74mH+V56nPN4re0+WAIXvXx6PV82LSpY3sucb0BW8QvXl8Xi8fXE7/6vPUx7vDN7tEqD4/cvj8ap5UcnyRvZ8A7qCV6i+PB6Pty+uE+Ypj3cm733l+5fH4+V6UcnyuvR8A7qCV6i+PB6Pt9PbbDZvE+Ypj3cu7/Ly4tOq9y+Px8v0opLldev5BnQFr1B9eTweb6e32WzeJcxTHu+c3t0SoNz9y+Px8ryoZHlde74BXcErVF8ej8fb6T1eAEyF5ymPV8A7+CcC90XSPODxeOt6Ucny+vYm34Cu4lWpL4/H4+3z7hcAU/F5yuMV8RYtAdLmAY/HW8+LSpbXv+cb0NW8pnpU7xcej9ePdzP/p4x5yuNV8WYtARLnAY/HW8eLSpY3hucb0NW8pnpU7xcej9ePN+35M7BzrvD5zOMd4x1cAqTOAx6P5+WfN4jnG9DVvKZ6VO8XHo/Xlde0AOhgPvN4x3o7lwDh84DH43n5543g+QZ0Na+pHtX7hcfjdeUtXgB0Mp95vFN4T5YAHcwDHo/n5Z83gucb0NW8pnpU7xcej9eVt2gB0NF85vFO5d0uATqZBzwez8s/bwRv8g3oWl5TPar3C4/H68qbPf87m8883im9953MAx6P5+WfN4jnG9B1vNZ6LA4ej8dr9GbN/wLzlMcr7V1eXnzawTzg8XhHelHJ8ob2fAO6jtdaj0XB4/F4R3gvzv8i85THK+/dLQGS5wGPxzvSi0qWN7TnG9B1vNZ6zA4ej8c70js4/wvNUx4vxTv4JwL3RZF5wOPxjvSikuUN7fkGdB2vtR6zgsfj8U7g7Z3/xeYpj5fkLVoCFJoHPB7vSC8qWd7Qnm9A1/Fa6/Fi8Hg83om8nfO/4Dzl8dK8WUuAYvOAx+Md6U1JyfKG9nwDuo7XWo+DwePxeCf0ns3/ovOUx0v0Di4BCs4DHo93pDclJcsb2vMN6DpelfryeDzevngy/wvPUx4v1du5BCg6D3g83uV1suQAACAASURBVLFeVLK8kT3fgK7gFaovj8fj7YuH+V95nvJ44d6TJUDhecDj8Y71opLljez5BnQFr1B9eTweb1/czv/q85TH68C7XQIUnwc8Hu9YLypZ3sieb0BX8ArVl8fj8fbFdcI85fE68d5Xngc8Hu/1vKhkeV16vgFdwStUXx6Px9vpbTabtwnzlMfrxbu8vPi06jzg8Xiv40Uly+vW8w3oCl6h+vJ4PN5Ob7PZvEuYpzxeT97dEqDcPODxeOt7UcnyuvZ8A7qCV6i+PB6Pt9N7vACYCs9THq9D7+CfCNwXSfOFx+MFJ8vr25t8A7qKV6W+PB6Pt8+7XwBMxecpj9ept2gJkDZfeDxeaLK8/j3fgK7mNdWjer/weLx+vJv5P2XMUx6vV2/WEiBxvvB4vMBkeWN4vgFdzWuqR/V+4fF4/XjTnj8DO+cKn888XiXv4BIgdb7weLywZHnjeL4BXc1rqkf1fuHxeF15TQuADuYzj1fN27kECJ8vPN7QXlSyvLE834Cu5jXVo3q/8Hi8rrzFC4BO5jOPV9F7sgToYL7weMN6UcnyxvN8A7qa11SP6v3C4/G68hYtADqazzxeVe92CdDJfOHxhvSikuWN6U2+AV3La6pH9X7h8XhdebPnf2fzmcer7L3vZL7weMN5UcnyhvZ8A7qO11qPxcHj8XiN3qz5X2Ce8nhDeZeXF592MF94vOG8qGR5Q3u+AV3Ha63HouDxeLwjvBfnf5F5yuMN590tAZLnC483nBeVLG9ozzeg63it9ZgdPB6Pd6R3cP4Xmqc83qjewT8RuC+KzBcebzgvKlne0J5vQNfxWusxK3g8Hu8E3t75X2ye8ngje4uWAIXmC483nBeVLG9ozzeg63it9XgxeDwe70TezvlfcJ7yeKN7s5YAxeYLjzecNyUlyxva8w3oOl5rPQ4Gj8fjndB7Nv+LzlMej/fCEqDgfOHxhvOmpGR5Q3u+AV3Hq1JfHo/H2xdP5n/hecrj8T6/di4Bis4XHm88LypZ3sieb0BX8ArVl8fj8fbFw/yvPE95PN6T68kSoPB84fHG86KS5Y3s+QZ0Ba9QfXk8Hm9f3M7/6vOUx+M9u26XAMXnC483nheVLG9kzzegK3iF6svj8Xj74jphnvJ4vJ3X+8rzhcfjdZIsr0vPN6AreIXqy+PxeDu9zWbzNmGe8ni83d7l5cWnVecLj8frIFlet55vQFfwCtWXx+PxdnqbzeZdwjzl8Xj7vbslQLn5wuPxwpPlde35BnQFr1B9eTweb6f3eAEwFZ6nPB7vRe/gnwjcF0nzisdL96KS5fXtTb4BXcWrUl8ej8fb590vAKbi85TH483yFi0B0uYVj5fsRSXL69/zDehqXlM9qvcLj8frx7uZ/1PGPOXxePO8WUuAxHnF46V6UcnyxvB8A7qa11SP6v3C4/H68aY9fwZ2zhU+n3m8nr2DS4DUecXjJXpRyfLG8XwDuprXVI/q/cLj8brymhYAHcxnHq93b+cSIHxe8XhRXlSyvLE834Cu5jXVo3q/8Hi8rrzFC4BO5jOPN4L3ZAnQwbzi8WK8qGR543m+AV3Na6pH9X7h8XhdeYsWAB3NZx5vFO92CdDJvOLxIryoZHljepNvQNfymupRvV94PF5X3uz539l85vFG8t53Mq94vPJeVLK8oT3fgK7jtdZjcfB4PF6jN2v+F5inPB7vCO/y8uLTDuYVj1fei0qWN7TnG9B1vNZ6LAoej8c7wntx/heZpzwe70jvbgmQPK94vPJeVLK8oT3fgK7jtdZjdvB4PN6R3sH5X2ie8ni803gH/0Tgvigyr3i88l5UsryhPd+AruO11mNW8Hg83gm8vfO/2Dzl8Xin8xYtAQrNKx6vvBeVLG9ozzeg63it9XgxeDwe70TezvlfcJ7yeLzTerOWAMXmFY9X3puSkuUN7fkGdB2vtR4Hg8fj8U7oPZv/Recpj8c7vXdwCVBwXvF45b0pKVne0J5vQNfxqtSXx+Px9sWT+V94nvJ4vHW8nUuAovOKx6vvRSXLG9nzDegKXqH68ng83r54mP+V5ymPx1vVe7IEKDyveLz6XlSyvJE934Cu4BWqL4/H4+2L2/lffZ7yeLzVvdslQPF5xePV96KS5Y3s+QZ0Ba9QfXk8Hm9fXCfMUx6P9yre+8rzisfryYtKltel5xvQFbxC9eXxeLyd3mazeZswT3k83ut4l5cXn1adVzxeL15UsrxuPd+AruAVqi+Px+Pt9DabzbuEecrj8V7Pu1sClJtXPF4PXlSyvK4934Cu4BWqL4/H4+30Hi8ApsLzlMfjvbp38E8E7ouk+cfjvbYXlSyvb2/yDegqXpX68ng83j7vfgEwFZ+nPB7vLN6iJUDa/OPxXtOLSpbXv+cb0NW8pnpU7xcej9ePdzP/p4x5yuPxzuPNWgIkzj8e77W8qGR5Y3i+AV3Na6pH9X7h8Xj9eNOePwM75wqfzzweb753cAmQOv94vNfwopLljeP5BnQ1r6ke1fuFx+N15TUtADqYzzweb5m3cwkQPv94vFW9qGR5Y3m+AV3Na6pH9X7h8XhdeYsXAJ3MZx6Pt9x7sgToYP7xeKt5UcnyxvN8A7qa11SP6v3C4/G68hYtADqazzwer827XQJ0Mv94vFW8qGR5Y3qTb0DX8prqUb1feDxeV97s+d/ZfObxeO3e+07mH4/n5Z83rOcb0HW81nosDh6Px2v0Zs3/AvOUx+MV8i4vLz7tYP7xeCf3opLlDe35BnQdr7Uei4LH4/GO8F6c/0XmKY/HK+bdLQGS5x+Pd3IvKlne0J5vQNfxWusxO3g8Hu9I7+D8LzRPeTxeTe/gnwjcF0XmH493ci8qWd7Qnm9A1/Fa6zEreDwe7wTe3vlfbJ7yeLy63u+YFkSh+cfjndyLSpY3tOcb0HW81nq8GDwej3cib+f8LzhPeTxebe+fm2ZEsfnH453cm5KS5Q3t+QZ0Ha+1HgeDx+PxTug9m/9F5ymPx6vtfWV7/YbpQBScfzzeyb0pKVne0J5vQNfxqtSXx+Px9sWT+V94nvJ4vPrel7fXr5l2RNH5x+Od3otKljey5xvQFbxC9eXxeLx98TD/K89THo8X4/3I9vqF06MoPP94vNN7UcnyRvZ8A7qCV6i+PB6Pty9u53/1ecrj8aK8v7y9vmV7VZ9/PN7pvahkeSN7vgFdwStUXx6Px9sX1wnzlMfjxXk/dHl5+aMrzz8e75xeVLK8Lj3fgK7gFaovj8fj7fQ2m83bhHnK4/HyvIuLiz/w837ez/1C1fnH453Li0qW163nG9AVvEL15fF4vJ3eZrN5lzBPeTxepnd5eflJ1fnH453Di0qW17XnG9AVvEL15fF4vJ3e4wXAVHie8ni8WO/LV1ebX15x/vF4r+1FJcvr25t8A7qKV6W+PB6Pt8+7XwBMxecpj8eL9v7i9voJ08JIm6c8XjfJ8vr3fAO6mtdUj+r9wuPx+vFu5v+UMU95PF6294e210fTzEicpzxeF8nyxvB8A7qa11SP6v3C4/H68aY9fwZ2zhU+n3k83ut7v3GaEanzlMeLT5Y3jucb0NW8pnpU7xcej9eV17QA6GA+83i81/c+bK9vng5E+Dzl8XKT5Y3l+QZ0Na+pHtX7hcfjdeUtXgB0Mp95PN55vP9m2vMpQAfzlMfLTJY3nucb0NW8pnpU7xcej9eVt2gB0NF85vF45/N+7fRV0ck85fHykuWN6U2+AV3La6pH9X7h8XhdebPnf2fzmcfjnc/7S9vrx0530dE85fGykuUN7fkGdB2vtR6Lg8fj8Rq9WfO/wDzl8Xh9eb97e517/vF4J/eikuUN7fkGdB2vtR6Lgsfj8Y7wXpz/ReYpj8fry/vb2//tt3U2T3m8q6hkeUN7vgFdx2utx+zg8Xi8I72D87/QPOXxeJ15Fxcf/eHO5imP93FUsryhPd+AruO11mNW8Hg83gm8vfO/2Dzl8XgdeldXV/9IR/OUx/s4Klne0J5vQNfxWuvxYvB4PN6JvJ3zv+A85fF4HXoXFx/94C/4Bf/gx53MUx7vdgEQkyxvaM83oOt4rfU4GDwej3dC79n8LzpPeTxev94vmxqi4Dzl8a6mpGR5Q3u+AV3Hq1JfHo/H2xdP5n/hecrj8fr1fnB7fTQtiKLzlMebpqhkeSN7vgFdwStUXx6Px9sXD/O/8jzl8Xjde790mhmF5ymPN01RyfJG9nwDuoJXqL48Ho+3L757CpinPB6ve++/mmZE8XnK433+fxSTLG9kzzegK3iF6svj8Xj74h9OmKc8Hm8I72dPB6L6POXxmqN6srwuPd+AruAVqi+Px+Pt9D7++Oo7EuYpj8cbwvs9055ImKc8Xgmcx5sZvgFdwStUXx6Px9vpfeELX/i5CfOUx+MN4f317fUN01dFyjzl8c6O83gL4nYBUGT4d+MVqi+Px+Pt9L74xa/75oR5yuPxhvF+w/QokuYpj9dVsry+vW1cFxv+XXhV6svj8Xj7vJ/9s3/m127n1d+Yis9THo83jPc/TXeRNk95vG6S5fXvbTabt8WGfy9eUz2q9wuPx+vL2/6jPzXVn6c8Hm8c79tS5ymPF58sbwxvs9m8Kzj8e/Ca6lG9X3g8XnfefzbVn6c8Hm8c718Lnqc8Xm6yvHG8xwuAqc7w78Frqkf1fuHxeN1576f685TH443j/engecrjZSbLG8u7XwBMtYZ/D15TPar3C4/H68771VP9ecrj8QbyvvCFr/kHQucpj5eXLG887+Z3AEwFh38HXlM9qvcLj8frzvvG7fXlqfY85fF4A3mXlxfvQ+cpj5eVLG9Mb7r7M4AtV9LD5AxeUz2q9wuPx+vS+2NT7XnK4/HG8v548DzlDexFJcsb2mtaAAQ+TF7ba63H4uDxeLwjve+Zas9THo83lveV7fVN08IoMk95A3tRyfKG9hYvAEIfJq/ttdZjUfB4PN4JvO+aas9THo83nvePTQui0DzlDexFJcsb2lu0AAh/mLym11qP2cHj8Xgn8j7aXv/LVHee8ni88bz/eJoZxeYpb2AvKlne0N7sBUAHD5PX9FrrMSt4PB7vxN6/MtWdpzwebzzvf59mRNF5yhvUi0qWN7Q3awHQycPkNb3WerwYPB6Pt4L306fPv7utOE95PN6Y3k+ZDkThecob1JuSkuUN7b24AOjsYfJaXms9DgaPx+Ot5W3jDxadpzweb0zv3bQnqs9T3pjelJQsb2jv4AKgwPBP9arUl8fj8WZ5H3989V1F5ymPxxvT+13TjkiYp7xBvahkeSN7excARYZ/pFeovjwejzfbu7i4+P5q85TH4w3r/dHpqyJpnvIG9KKS5Y3s7VwAFBr+kV6h+vJ4PN5s7+OPr35ptXnK4/GG9f7q9PlfKbmNtHnKG9CLSpY3svdsAVBs+Ed6herL4/F4i7ztP/pPpkLzlMfjDe395O0VO095vPhkeV16TxYARYd/nFeovjwej7fU+7u31w9PReYpj8cb2vvl4fOUx8tNltet97AAKDz847xC9eXxeLwW77dPReYpj8cb2vttHcxTHi8vWV7X3u0CoPjwj/MK1ZfH4/FavJtPAX5gKjBPeTzeuN7FxcW/3cE85fGykuX17W3juvrwT/Sq1JfH4/GO8G6+vf0/p87mM4/Hy/EuLi7+807mKW9gLypZXv/eZrN5W334h3pN9ajeLzwebzjvV26vr0x9zWcejxfiXVx89Mc7mqe8Ab2oZHljeJvN5l314R/qNdWjer/weLwhve+Z+prPPB4vx/srnc1T3kBeVLK8cbzHC4Cp7vBP9JrqUb1feDzekN7N3+H+D6Z+5jOPx8vxvvLFL37dZmqIovOUN4gXlSxvLO9+ATDVHv6JXlM9qvcLj8cb1rv5pYB/qJP5zOPxsry/c1oYxecpr3MvKlneeN7N7wCYMoZ/mtdUj+r9wuPxxvV+3I/7sT/64uLiv+9gPvN4vCzvW6cFkTBPef16UcnyxvSmuz8D2HKFP0zW9prqUb1feDze2N43fdNP/IaLi4v/Mnw+83i8LO/nTzMjaZ7y+vOikuUN7TUtADp4mKzttdZjcfB4PN5rej/rZ/2ML2z/0e+dcuczj8fL8n7RNCMS5ymvLy8qWd7Q3uIFQCcPk7W91nosCh6PxzuTd/OLAf+l7fW3p7z5zOPxsrxfOr0Q4fOU14kXlSxvaG/RAqCjh8naXms9ZgePx+MV8L5ze/25KWs+83i8LO9XTgeio3nKC/eikuUN7c1eAHT2MFnba63HrODxeLxC3s1v6P4DU8585vF4Wd6vnvZEgfnH4z14UcnyhvZmLQAKDP80r7UeLwaPx+MV9W7+f+n+7FR/PvN4vCzv5qz6LIrNPx7vdgEQkyxvaO/FBUCR4Z/mtdbjYPB4PF5x74vb69/YXn9jqjufeTxelvdsAVB0/vEG96akZHlDewcXAIWGf5pXpb48Ho/36t7FxcWP316fbmfo/1NwPvN4vCzvyQKg+vzjDexFJcsb2du7ACg2/KO8QvXl8Xi8s3lf+tLX/6TLy9tFwF+YisxnHo8X5z0sAJLmH29ALypZ3sjezgVAweEf5RWqL4/H453d+9KXvv7y5h9vr9+3vT5MHc17Ho+3une7AEidf7yBvKhkeSN7zxYARYd/lFeovjwej1fNu/k9Ab9ie33P9vpj2+vLU/C85/F4q3vXHc0/Hi8rWV6X3pMFQOHhH+UVqi+Px+NV937M9vqu7fXrp89/geB/sb1+cDtL//T2+vPb64crz3sej7e6d11oXvF4Xv558d7DAqD48I/yCtWXx+PxeDze63nR55eK3mazeVuovjyel39evHe7AKg+/NO8QvXl8Xg8Ho/3el70+aWit9ls3hWqL4/X5EUly+vb28Z1wvBP86rUl8fj8Xg83qt60eeXit6jBUCF+vJ4x0X1ZHn9ezc/VpUw/AO9pnpU7xcej8fj8XgHI/38Us67WwBUqS+P1x7Vk+WN4d0M1YThH+g11aN6v/B4PB6PxzsY6eeXct7d7wBoKkb1fuH17UUlyxvHe7wAmAoP/0CvqR7V+4XH4/F4PN5+r4PzS0XvurUe1fuF168XlSxvLO9+ATDVH/5pXlM9qvcLj8fj8Xi8/V4H55eK3uIFQEq/8Pr0opLljefd/FjVlDH807ymelTvFx6Px+PxePu9Ds4vFb1FC4CkfuH150UlyxvTm+7+DGDLFf4wWdtrqkf1fuHxeDwej7ff6+D8UtGbvQBI6xdeX15UsryhvaYFQAcPk7W91nosDh6Px+PxeDW8Ds4vFb1ZC4DEfuH15UUlyxvaW7wA6ORhsrbXWo9FwePxeDwer4435Z9fKnovLgBS+4XXlxeVLG9ob9ECoKOHydpeaz1mB4/H4/F4vHJe+vmlondwARDeL7yOvKhkeUN7sxcAnT1M1vZa6zEreDwej8fjlfTSzy8Vvb0LgA76hdeRF5Usb2hv1gKgwPBP81rr8WLweDwej8cr66WfXyp6OxcAnfQLryNvSkqWN7T34gKgyPBP81rrcTB4PB6Px+OV9tLPLxW9ZwuAjvqF15E3JSXLG9o7uAAoNPzTvCr15fF4PB6P93pe+vmlovdkAdBZv/B68qKS5Y3s7V0AFBv+UV6h+vJ4PB6Px3s9L/r8UtR7WAAUqC+Pt9+LSpY3srdzAVBw+Ed5herL4/F4PB7v9bzo80tR7/qIeuwNHu/kXlSyvJG9ZwuAosM/yitUXx6Px+PxeK/nRZ9finrXherL4x3tRSXL69J7sgAoPPyjvEL15fF4PB6P93pe9PmlqHddqL48npd/Xrz3sAAoPvyjvEL15fF4PB6P93pe9PmlorfZbN4Wqi+P5+WfF+/dLgCqD/80r1B9eTwej8fjvZ4XfX6p6G02m3eF6svjNXlRyfL69rZxnTD807wq9eXxeDwej/eqXvT5paL3aAFQob483nFRPVle/97Nj1UlDP9Ar6ke1fuFx+PxeDzewUg/v5Tz7hYAVerL47VH9WR5Y3g3QzVh+Ad6TfWo3i88Ho/H4/EORvr5pZx39zsAmopRvV94fXtRyfLG8R4vAKbCwz/Qa6pH9X7h8Xg8Ho+33+vg/FLRu26tR/V+4fXrRSXLG8u7XwBM9Yd/mtdUj+r9wuPxeDweb7/Xwfmlord4AZDSL7w+vahkeeN5Nz9WNWUM/zSvqR7V+4XH4/F4PN5+r4PzS0Vv0QIgqV94/XlRyfLG9Ka7PwPYcoU/TNb2mupRvV94PB6Px+Pt9zo4v1T0Zi8A0vqF15cXlSxvaK9pAdDBw2Rtr7Uei4PH4/F4PF4Nr4PzS0Vv1gIgsV94fXlRyfKG9hYvADp5mKzttdZjUfB4PB6Px6vjTfnnl4reiwuA1H7h9eVFJcsb2lu0AOjoYbK211qP2cHj8Xg8Hq+cl35+qegdXACE9wuvIy8qWd7Q3uwFQGcPk7W91nrMCh6Px+PxeCW99PNLRW/vAqCDfuF15EUlyxvam7UAKDD807zWerwYPB6Px+Pxynrp55eK3s4FQCf9wuvIm5KS5Q3tvbgAKDL807zWehwMHo/H4/F4pb3080tF79kCoKN+4XXkTUnJ8ob2Di4ACg3/NK9KfXk8Ho/H472el35+qeg9WQB01i+8nryoZHkje3sXAMWGf5RXqL48Ho/H4/Fez4s+vxT1HhYABerL4+33opLljeztXAAUHP5RXqH68ng8Ho/Hez0v+vxS1Ls+oh57g8c7uReVLG9k79kCoOjwj/IK1ZfH4/F4PN7redHnl6LedaH68nhHe1HJ8rr0niwACg//KK9QfXk8Ho/H472eF31+KepdF6ovj+flnxfvPSwAig//KK9QfXk8Ho/H472eF31+qehtNpu3herL43n558V7twuA6sM/zStUXx6Px+PxeK/nRZ9fKnqbzeZdofryeE1eVLK8vr1tXCcM/zSvSn15PB6Px+O9qhd9fqnoPVoAVKgvj3dcVE+W179382NVCcM/0GuqR/V+4fF4PB6PdzDSzy/lvLsFQJX68njtUT1Z3hjezVBNGP6BXlM9qvcLj8fj8Xi8g5F+finn3f0OgKZiVO8XXt9eVLK8cbzHC4Cp8PAP9JrqUb1feDwej8fj7fc6OL9U9K5b61G9X3j9elHJ8sby7hcAU/3hn+Y11aN6v/B4PB6Px9vvdXB+qegtXgCk9AuvTy8qWd543s2PVU0Zwz/Na6pH9X7h8Xg8Ho+33+vg/FLRW7QASOoXXn9eVLK8Mb3p7s8AtlzhD5O1vaZ6VO8XHo/H4/F4+70Ozi8VvdkLgLR+4fXlRSXLG9prWgB08DBZ22utx+Lg8Xg8Ho9Xw+vg/FLRm7UASOwXXl9eVLK8ob3FC4BOHiZre631WBQ8Ho/H4/HqeFP++aWi9+ICILVfeH15UcnyhvYWLQA6epis7bXWY3bweDwej8cr56WfXyp6BxcA4f3C68iLSpY3tDd7AdDZw2Rtr7Ues4LH4/F4PF5JL/38UtHbuwDooF94HXlRyfKG9mYtAAoM/zSvtR4vBo/H4/F4vLJe+vmlordzAdBJv/A68qakZHlDey8uAIoM/zSvtR4Hg8fj8Xg8Xmkv/fxS0Xu2AOioX3gdeVNSsryhvYMLgELDP82rUl8ej8fj8Xiv56WfXyp6TxYAnfULrycvKlneyN7eBUCx4R/lFaovj8fj8Xi81/Oizy9FvYcFQIH68nj7vahkeSN7OxcABYd/lFeovjwej8fj8V7Piz6/FPWuj6jH3uDxTu5FJcsb2Xu2ACg6/KO8QvXl8Xg8Ho/3el70+aWod12ovjze0V5UsrwuvScLgMLDP8orVF8ej8fj8Xiv50WfX4p614Xqy+N5+efFew8LgOLDP8orVF8ej8fj8Xiv50WfXyp6m83mbaH68nhe/nnx3u0CoPrwT/MK1ZfH4/F4PN7redHnl4reZrN5V6i+PF6TF5Usr29vG9cJwz/Nq1JfHo/H4/F4r+pFn18qeo8WABXqy+MdF9WT5fXv3fxYVcLwD/Sa6lG9X3g8Ho/H4x2M9PNLOe9uAVClvjxee1RPljeGdzNUE4Z/oNdUj+r9wuPxeDwe72Ckn1/KeXe/A6CpGNX7hde3F5Usbxzv8QJgKjz8A72melTvFx6Px+PxePu9Ds4vFb3r1npU7xdev15UsryxvPsFwFR/+Kd5TfWo3i88Ho/H4/H2ex2cXyp6ixcAKf3C69OLSpY3nnfzY1VTxvBP85rqUb1feDwej8fj7fc6OL9U9BYtAJL6hdefF5Usb0xvuvszgC1X+MNkba+pHtX7hcfj8Xg83n6vg/NLRW/2AiCtX3h9eVHJ8ob2mhYAHTxM1vZa67E4eDwej8fj1fA6OL9U9GYtABL7hdeXF5Usb2hv8QKgk4fJ2l5rPRYFj8fj8Xi8Ot6Uf36p6L24AEjtF15fXlSyvKG9RQuAjh4ma3ut9ZgdPB6Px+Pxynnp55eK3sEFQHi/8DryopLlDe3NXgB09jBZ22utx6zg8Xg8Ho9X0ks/v1T09i4AOugXXkdeVLK8ob1ZC4ACwz/Na63Hi8Hj8Xg8Hq+sl35+qejtXAB00i+8jrwpKVne0N6LC4Aiwz/Na63HweDxeDwej1faSz+/VPSeLQA66hdeR96UlCxvaO/gAqDQ8E/zqtSXx+PxeDze63np55eK3pMFQGf9wuvJi0qWN7K3dwFQbPhHeYXqy+PxeDwe7/W86PNLUe9hAVCgvjzefi8qWd7I3s4FQMHhH+UVqi+Px+PxeLzX86LPL0W96yPqsTd4vJN7UcnyRvaeLQCKDv8or1B9eTwej8fjvZ4XfX4p6l0Xqi+Pd7QXlSyvS+/JAqDw8I/yCtWXx+PxeDze63nR55ei3nWh+vJ4Xv558d7DAqD48I/yCtWXx+PxeDze63nR55eK3mazeVuovjyel39evHe7AKg+/NO8QvXl8Xg8yEYGxAAAIABJREFUHo/3el70+aWit9ls3hWqL4/X5EUly+vb28Z1wvBP86rUl8fj8Xg83qt60eeXit6jBUCF+vJ4x0X1ZHn9ezc/VpUw/AO9pnpU7xcej8fj8XgHI/38Us67WwBUqS+P1x7Vk+WN4d0M1YThH+g11aN6v/B4PB6PxzsY6eeXct7d7wBoKkb1fuH17UUlyxvHe7wAmAoP/0CvqR7V+4XH4x32tvEdH3989R1V8+PxeOt6HZxfKnrXrfWo3i+8fr2oZHljefcLgKn+8E/zmupRvV94PN5+7+blfzsP/tr2H33YXt9ZLT8ej7e+18H5paK3eAGQ0i+8Pr2oZHnjeTc/VjVlDP80r6ke1fuFx+Pt9h69/N/PgEVLgLR/Xx6Pt9vr4PxS0Vu0AEjqF15/XlSyvDG96e7PALZc4Q+Ttb2melTvFx6PN+vl//6atQRI+/fl8Xj7vQ7OLxW92QuAtH7h9eVFJcsb2mtaAHTwMFnba63H4uDxeOfzDrz8318HlwBp/748Hu+w18H5paI3awGQ2C+8vryoZHlDe4sXAJ08TNb2WuuxKHg83vm8GS//99fOJUDavy+Px3vZm/LPLxW9FxcAqf3C68uLSpY3tLdoAdDRw2Rtr7Ues4PH453PW/Dyf389WQKk/fvyeLzZXvr5paJ3cAEQ3i+8jryoZHlDe7MXAJ09TNb2WusxK3g83vm8hpf/++t2CZD278vj8RZ56eeXit7eBUAH/cLryItKlje0N2sBUGD4p3mt9XgxeDze+bwjXv7vrw9XV1dvUv59eTzeYi/9/FLR27kA6KRfeB15U1KyvKG9FxcARYZ/mtdaj4PB4/HO553g5f9+pnzYWm+q//vyeLwmL/38UtF7tgDoqF94HXlTUrK8ob2DC4BCwz/Nq1JfHo93Au+EL/8PS4C7nwQo+e/L4/GavfTzS0XvyQKgs37h9eRFJcsb2du7ACg2/KO8QvXl8XhHeiu8/N/Pl4N/IvBc/748Hu8oL/r8UtR7WAAUqC+Pt9+LSpY3srdzAVBw+Ed5herL4/GO8FZ8+b+/Fi0B0v778XgDetHnl6Le9RH12Bs83sm9qGR5I3vPFgBFh3+UV6i+PB6v0XuFl//7a9YSIO2/H483qBd9finqXReqL493tBeVLK9L78kCoPDwj/IK1ZfH4zV4r/jyf38dXAKk/ffj8Qb2os8vRb3rQvXl8bz88+K9hwVA8eEf5RWqL4/HW+id4eX//tq5BEj778fjDe5Fn18qepvN5m2h+vJ4Xv558d7tAqD68E/zCtWXx+Mt8M748n9/PVkCpP334/F42eeXit5ms3lXqL48XpMXlSyvb28b1wnDP82rUl8ejzffK/Dyf3/dLgHS/vvxeLzbiD6/VPQeLQAq1JfHOy6qJ8vr37v5saqE4R/oNdWjer/weL16hV7+768PV1dXb1L++/F4vIdIP7+U8+4WAFXqy+O1R/VkeWN4N0M1YfgHek31qN4vPF6PXsGX/3vjwza3N9X/+/F4vCeRfn4p5939DoCmYlTvF17fXlSyvHG8xwuAqfDwD/Sa6lG9X3i83rzCL/8PS4C7nwQ4yb9v9XrweOleB+eXit51az2q9wuvXy8qWd5Y3v0CYKo//NO8pnpU7xcerycv4OX/3jv4JwLn/vtWrweP14PXwfmlord4AZDSL7w+vahkeeN5Nz9WNWUM/zSvqR7V+4XH68ULevm/vxYtAdLqweP14nVwfqnoLVoAJPULrz8vKlnemN5092cAW67wh8naXlM9qvcLj9eDF/jyf3/NWgKk1YPH68nr4PxS0Zu9AEjrF15fXlSyvKG9pgVABw+Ttb3WeiwOHo833wt++b+/Di4B0urB4/XmdXB+qejNWgAk9guvLy8qWd7Q3uIFQCcPk7W91nosCh6PN9/r4OX//tq5BEirB4/Xozflz5eK3osLgNR+4fXlRSXLG9pbtADo6GGyttdaj9nB4/Hmex29/N9fT5YAafXg8Tr2epgv1byDC4DwfuF15EUlyxvam70A6OxhsrbXWo9ZwePx5nsdvvzfX7dLgLR68Hide73Ml0re3gVAB/3C68iLSpY3tDdrAVBg+Kd5rfV4MXg83nyv45f/++vD1dXVm5R68HgDeD3NlyrezgVAJ/3C68ibkpLlDe29uAAoMvzTvNZ6HAwejzffG+Dl/974sP13fVO9HjzeIN6550GP3rMFQEf9wuvIm5KS5Q3tHVwAFBr+aV6V+vJ4Q3oDvfw/LAHufhLgJP/9qteXxyvsVZgHvXlPFgCd9QuvJy8qWd7I3t4FQLHhH+UVqi+PN5w34Mv/vXfwTwTO/e9Xvb48XnGvyjzoyXtYABSoL4+334tKljeyt3MBUHD4R3mF6svjDeUN/PJ/fy1aAqTVl8cL8CrNg1686yPqsTd4vJN7UcnyRvaeLQCKDv8or1B9ebxhPC//D9esJUBafXm8EK/aPOjBuy5UXx7vaC8qWV6X3pMFQOHhH+UVqi+PN4Tn5f/ZdXAJkFZfHi/IqzgP0r3rQvXl8bz88+K9hwVA8eEf5RWqL4/Xveflf++1cwmQVl8eL8yrOg9ivc1m87ZQfXk8L/+8eO92AVB9+Kd5herL43Xtefl/8XqyBEirL48X6FWeB5HeZrN5V6i+PF6TF5Usr29vG9cJwz/Nq1JfHq9nz8v/7Ot2CZBWXx4v1Ks+D+K8RwuACvXl8Y6L6sny+vdufqwqYfgHek31qN4vPF4Vz8v/4uvD1dXVm5T68njBXsI8iPLuFgBV6svjtUf1ZHljeDdDNWH4B3pN9ajeLzxeBc/Lf7P3Yfvf7k31+vJ4yd6UMw9ivLvfAdBUjOr9wuvbi0qWN473eAEwFR7+gV5TPar3C493bs/L/9He/U8CnKQe1fuFx3ttL2wepHjXrfWo3i+8fr2oZHljefcLgKn+8E/zmupRvV94vHN6Xv5P5h38E4Fz61G9X3i8c3iB8yDBW7wASOkXXp9eVLK88bybH6uaMoZ/mtdUj+r9wuOdy/Pyf3Jv0RIgrV94vHN5ofOgurdoAZDUL7z+vKhkeWN6092fAWy5wh8ma3tN9ajeLzzeOTwv/6t5s5YAaf3C453TC54Hlb3ZC4C0fuH15UUlyxvaa1oAdPAwWdtrrcfi4PF69rz8r+4dXAKk9QuPd24vfB5U9WYtABL7hdeXF5Usb2hv8QKgk4fJ2l5rPRYFj9ez5+X/1bydS4C0fuHxKnhT/jyo6L24AEjtF15fXlSyvKG9RQuAjh4ma3ut9ZgdPF7Pnpf/V/eeLAHS+oXHK+T1MA+qeQcXAOH9wuvIi0qWN7Q3ewHQ2cNkba+1HrOCx+vZ8/J/Nu92CZDWLzxeMa+XeVDJ27sA6KBfeB15UcnyhvZmLQAKDP80r7UeLwaP17Pn5f/s3oerq6s3Kf3C4xX0epoHVbydC4BO+oXXkTclJcsb2ntxAVBk+Kd5rfU4GDxez56X/zLeh20t3lTvFx6vqHfu+7dH79kCoKN+4XXkTUnJ8ob2Di4ACg3/NK9KfXm8CM/Lfznv/icBTlLf6v3H453Qq3D/9uY9WQB01i+8nryoZHkje3sXAMWGf5RXqL48XnnPy39Z7+CfCJxb3+r9x+Od2Kty//bkPSwACtSXx9vvRSXLG9nbuQAoOPyjvEL15fFKe17+y3uLlgBp/cfjreBVun978a6PqMfe4PFO7kUlyxvZe7YAKDr8o7xC9eXxynpe/mO8WUuAtP7j8Vbyqt2/PXjXherL4x3tRSXL69J7sgAoPPyjvEL15fFKel7+47yDS4C0/uPxVvQq3r/p3nWh+vJ4Xv558d7DAqD48I/yCtWXxyvnefmP9XYuAdL6j8db2at6/8Z6m83mbaH68nhe/nnx3u0CoPrwT/MK1ZfHK+V5+Y/3niwB0vqPx3sFr/L9G+ltNpt3herL4zV5Ucny+va2cZ0w/NO8KvXl8Sp5Xv678W6XAGn9x+O9klf9/o3zHi0AKtSXxzsuqifL69+7+bGqhOEf6DXVo3q/8Hitnpf/7rwPV1dXb1L6j8d7RS/h/o3y7hYAVerL47VH9WR5Y3g3QzVh+Ad6TfWo3i88Xovn5b9b78O2tm+q9x+P95relHP/xnh3vwOgqRjV+4XXtxeVLG8c7/ECYCo8/AO9pnpU7xceb6nn5b977/4nAWZ2yNNI62ce7yUv7P5N8a5b61G9X3j9elHJ8sby7hcAU/3hn+Y11aN6v/B4Szwv/8N4B/9E4L5I62ceb44XeP8meIsXACn9wuvTi0qWN55382NVU8bwT/Oa6lG9X3i8uZ6X/+G8RUuAtH7m8eZ6ofdvdW/RAiCpX3j9eVHJ8sb0prs/A9hyhT9M1vaa6lG9X3i8OZ6X/2G9WUuAtH7m8ZZ4wfdvZW/2AiCtX3h9eVHJ8ob2mhYAHTxM1vZa67E4eLxKnpf/4b2DS4C0fubxlnrh929Vb9YCILFfeH15UcnyhvYWLwA6eZis7bXWY1HweJU8L/+8u2vnEiCtn3m8Fm/Kv38rei8uAFL7hdeXF5Usb2hv0QKgo4fJ2l5rPWYHj1fJ8/LP+6rryRIgrZ95vCO8Hu7fat7BBUB4v/A68qKS5Q3tzV4AdPYwWdtrrces4PEqeV7+eXuu2yVAWj/zeEd6vdy/lby9C4AO+oXXkReVLG9ob9YCoMDwT/Na6/Fi8HiVPC//vBeuD1dXV29S+pnHO4HX0/1bxdu5AOikX3gdeVNSsryhvRcXAEWGf5rXWo+DweNV8rz882Z6H7a98qZ6P/N4J/LOfb/16D1bAHTUL7yOvCkpWd7Q3sEFQKHhn+ZVqS+P5+WfV8G7/0mAfS12MNLuD97QXoX7rTfvyQKgs37h9eRFJcsb2du7ACg2/KO8QvXl8bz886p4B/9E4L5Iuz94w3tV7reevIcFQIH68nj7vahkeSN7OxcABYd/lFeovjyel39eJW/REiDt/uDxplr3Wy/e9RH12Bs83sm9qGR5I3vPFgBFh3+UV6i+PJ6Xf141b9YSIO3+4PHuotr91oN3Xai+PN7RXlSyvC69JwuAwsM/yitUXx7vJJ6Xf96JvYNLgLT7g8d7FBXvt3TvulB9eTwv/7x472EBUHz4R3mF6svjHe15+eet5O1cAqTdHzzeV0XV+y3W22w2bwvVl8fz8s+L924XANWHf5pXqL483lGel3/eyt6TJUDa/cHj7YjK91ukt9ls3hWqL4/X5EUly+vb28Z1wvBP86rUl8c7xvPyz3sl73YJkHZ/8Hh7ovr9Fuc9WgBUqC+Pd1xUT5bXv3fzY1UJwz/Qa6pH9X7hjeN5+ee9svfh6urqTcr9weMdiIT7Lcq7WwBUqS+P1x7Vk+WN4d0M1YThH+g11aN6v/DG8Lz8887kfdj23pvq9weP90Kk3G8x3t3vAGgqRvV+4fXtRSXLG8d7vACYCg//QK+pHtX7hde/5+Wfd2bv/icBppZIu994/Xlh91uKd91aj+r9wuvXi0qWN5Z3vwCY6g//NK+pHtX7hde35+WfV8Q7+CcC90Xa/cbr0wu83xK8xQuAlH7h9elFJcsbz7v5saopY/ineU31qN4vvH49L/+8Yt6iJUDa/cbr1wu936p7ixYASf3C68+LSpY3pjfd/RnAliv8YbK211SP6v3C69Pz8s8r6s1aAqTdb7y+veD7rbI3ewGQ1i+8vryoZHlDe00LgA4eJmt7rfVYHDzeMZ6Xf15x7+ASIO1+4/Xvhd9vVb1ZC4DEfuH15UUlyxvaW7wA6ORhsrbXWo9FweMd43n554V4O5cAafcbbwxvyr/fKnovLgBS+4XXlxeVLG9ob9ECoKOHydpeaz1mB493jOflnxfmPVkCpN1vvKG8Hu63at7BBUB4v/A68qKS5Q3tzV4AdPYwWdtrrces4PGO8bz880K92yVA2v3GG87r5X6r5O1dAHTQL7yOvKhkeUN7sxYABYZ/mtdajxeDxzvG8/LPC/c+XF1dvUm533hDej3db1W8nQuATvqF15E3JSXLG9p7cQFQZPinea31OBg83jGel39eJ96HbS+/qX6/8Yb1zn1/9Og9WwB01C+8jrwpKVne0N7BBUCh4Z/mVakvj+fln9ejd/+TAFNLpN2/vCivwv3Rm/dkAdBZv/B68qKS5Y3s7V0AFBv+UV6h+vJ4Xv55vXoH/0Tgvki7f3lxXpX7oyfvYQFQoL483n4vKlneyN7OBUDB4R/lFaovb3DPyz+vc2/REiDt/uVFepXuj1686yPqsTd4vJN7UcnyRvaeLQCKDv8or1B9eQN7Xv55g3izlgBp9y8v1qt2f/TgXReqL493tBeVLK9L78kCoPDwj/IK1Zc3qOflnzeYd3AJkHb/8qK9ivdHunddqL48npd/Xrz3sAAoPvyjvEL15Q3oefnnDertXAKk3b+8eK/q/RHrbTabt4Xqy+N5+efFe7cLgOrDP80rVF/eYJ6Xf97g3pMlQNr9y+vCq3x/RHqbzeZdofryeE1eVLK8vr1tXCcM/zSvSn15Y3le/nm82+t2CZB2//K68arfH3HeowVAhfryeMdF9WR5/Xs3P1aVMPwDvaZ6VO8XXl3Pyz+P9+T6cHV19Sbl/uV15SXcH1He3QKgSn15vPaonixvDO9mqCYM/0CvqR7V+4VX0/Pyz+Pt9D5s74031e9fXl/elHN/xHh3vwOgqRjV+4XXtxeVLG8c7/ECYCo8/AO9pnpU7xdePc/LP4930Lv/SYCpJdLmAe/8Xtj9keJdt9ajer/w+vWikuWN5d0vAKb6wz/Na6pH9X7h1fK8/PN4s7yDfyJwX6TNA14NL/D+SPAWLwBS+oXXpxeVLG887+bHqqaM4Z/mNdWjer/w6nhe/nm8Rd6iJUDaPODV8ULvj+reogVAUr/w+vOikuWN6U13fwaw5Qp/mKztNdWjer/wanhe/nm8Jm/WEiBtHvBqecH3R2Vv9gIgrV94fXlRyfKG9poWAB08TNb2WuuxOHhjeV7+ebyjvINLgLR5wKvnhd8fVb1ZC4DEfuH15UUlyxvaW7wA6ORhsrbXWo9FwRvL8/LP453E27kESJsHvJrelH9/VPReXACk9guvLy8qWd7Q3qIFQEcPk7W91nrMDt5Ynpd/Hu+k3pMlQNo84JX2erg/qnkHFwDh/cLryItKlje0N3sB0NnDZG2vtR6zgjeW5+Wfx1vFu10CpM0DXnmvl/ujkrd3AdBBv/A68qKS5Q3tzVoAFBj+aV5rPV4M3liel38eb1Xvw9XV1ZuUecCL8Hq6P6p4OxcAnfQLryNvSkqWN7T34gKgyPBP81rrcTB4Y3le/nm8V/E+bO+1N9XnAS/GO3c/9+g9WwB01C+8jrwpKVne0N7BBUCh4Z/mVakvL9Tz8s/jvap3/5MAU0ukzRfeql6Ffu7Ne7IA6KxfeD15UcnyRvb2LgCKDf8or1B9eYGel38e7yzewT8RuC/S5gtvda9KP/fkPSwACtSXx9vvRSXLG9nbuQAoOPyjvEL15YV5Xv55vLN6i5YAafOF9ypepX7uxbs+oh57g8c7uReVLG9k79kCoOjwj/IK1ZcX5Hn55/FKeLOWAGnzhfdqXrV+7sG7LlRfHu9oLypZXpfekwVA4eEf5RWqLy/E8/LP45XyDi4B0uYL71W9iv2c7l0Xqi+P5+WfF+89LACKD/8or1B9eQGel38er6S3cwmQNl94r+5V7edYb7PZvC1UXx7Pyz8v3rtdAFQf/mleofryinte/nm80t6TJUDafOGdxavcz5HeZrN5V6i+PF6TF5Usr29vG9cJwz/Nq1JfXm3Pyz+PF+HdLgHS5gvvbF71fo7zHi0AKtSXxzsuqifL69+7+bGqhOEf6DXVo3q/8Lz883iDeh+urq7epMwX3lm9hH6O8u4WAFXqy+O1R/VkeWN4N0M1YfgHek31qN4vvNN4Xv55vEjvw/befVN9vvDO6005/Rzj3f0OgKZiVO8XXt9eVLK8cbzHC4Cp8PAP9JrqUb1feMd7Xv55vGjv/icBppZIm1e85V5YP6d41631qN4vvH69qGR5Y3n3C4Cp/vBP85rqUb1feMd5Xv55vC68g38icF+kzStemxfYzwne4gVASr/w+vSikuWN5938WNWUMfzTvKZ6VO8XXrvn5Z/H68pbtARIm1e8di+0n6t7ixYASf3C68+LSpY3pjfd/RnAliv8YbK211SP6v3Ca/O8/PN4XXqzlgBp84p3nBfcz5W92QuAtH7h9eVFJcsb2mtaAHTwMFnba63H4uDV9rz883hdeweXAGnzine8F97PVb1ZC4DEfuH15UUlyxvaW7wA6ORhsrbXWo9Fwavtefnn8Ybwdi4B0uYV7zTelN/PFb0XFwCp/cLry4tKlje0t2gB0NHDZG2vtR6zg1fb8/LP4w3lPVkCpM0r3km9Hvq5mndwARDeL7yOvKhkeUN7sxcAnT1M1vZa6zEreLU9L/883pDe7RIgbV7xTu710s+VvL0LgA76hdeRF5Usb2hv1gKgwPBP81rr8WLwante/nm8ob0PV1dXb1LmFW8Vr6d+ruLtXAB00i+8jrwpKVne0N6LC4Aiwz/Na63HweDV9rz883i87fVhOwveVJ9XvNW8c/dfj96zBUBH/cLryJuSkuUN7R1cABQa/mlelfryXsnz8s/j8R5d9z8JMLVE2vzjPYkK/deb92QB0Fm/8HryopLljeztXQAUG/5RXqH68l7B8/LP4/F2eAf/ROC+SJt/vGdRpf968h4WAAXqy+Pt96KS5Y3s7VwAFBz+UV6h+vK8/PN4vPN5i5YAafOPtzMq9V8v3vUR9dgbPN7JvahkeSN7zxYARYd/lFeovjwv/zwe77zerCVA2vzj7Y1q/deDd12ovjze0V5UsrwuvScLgMLDP8orVF+el38ej3d+7+ASIG3+8Q5Gxf5L964L1ZfH8/LPi/ceFgDFh3+UV6i+PC//PB6vhrdzCZA2/3gvRtX+i/U2m83bQvXl8bz88+K92wVA9eGf5hWqL8/LP4/Hq+M9WQKkzT/erKjcf5HeZrN5V6i+PF6TF5Usr29vG9cJwz/Nq1Jfnpd/Ho9XzrtdAqTNP97sqN5/cd6jBUCF+vJ4x0X1ZHn9ezc/VpUw/AO9pnpU75eRPS//PB7vhN6Hq6urNynzj7coEvovyrtbAFSpL4/XHtWT5Y3h3QzVhOEf6DXVo3q/jOp5+efxeCt4H7az5U31+cdbHCn9F+Pd/Q6ApmJU7xde315UsrxxvMcLgKnw8A/0mupRvV9G9Lz883i8Fb37nwSYWiJtno7ghfVfinfdWo/q/cLr14tKljeWd78AmOoP/zSvqR7V+2U0z8s/j8d7Be/gnwjcF2nzdBQvsP8SvMULgJR+4fXpRSXLG8+7+bGqKWP4p3lN9ajeLyN5Xv55PN4reouWAGnzdCQvtP+qe4sWAEn9wuvPi0qWN6Y33f0ZwJYr/GGyttdUj+r9Morn5Z/H453Bm7UESJuno3nB/VfZm70ASOsXXl9eVLK8ob2mBUAHD5O1vdZ6LA6el38ej9eNd3AJkDZPR/TC+6+qN2sBkNgvvL68qGR5Q3uLFwCdPEzW9lrrsSh4Xv55PF533s4lQNo8HdWb8vuvovfiAiC1X3h9eVHJ8ob2Fi0AOnqYrO211mN28Lz883i8br0nS4C0eTq410P/VfMOLgDC+4XXkReVLG9ob/YCoLOHydpeaz1mBc/LP4/H6967XQKkzVNeN/1Xydu7AOigX3gdeVHJ8ob2Zi0ACgz/NK+1Hi8Gz8s/j8cbxvtwdXX1JmWe8m6jp/6r4u1cAHTSL7yOvCkpWd7Q3osLgCLDP81rrcfB4Hn55/F4w3kftrPqTfV5ynuIc/dLj96zBUBH/cLryJuSkuUN7R1cABQa/mlelfry9nhe/nk8XpB3/5MAU0ukzedwr0K/9OY9WQB01i+8nryoZHkje3sXAMWGf5RXqL68HZ6Xfx6PF+gd/BOB+yJtPnfgVemXnryHBUCB+vJ4+72oZHkjezsXAAWHf5RXqL48L/88Hq8fb9ESIG0+d+JV6pdevOsj6rE3eLyTe1HJ8kb2ni0Aig7/KK9QfXle/nk8Xl/erCVA2nzuyKvWLz1414Xqy+Md7UUly+vSe7IAKDz8o7xC9eV5+efxeP15B5cAafO5M69iv6R714Xqy+N5+efFew8LgOLDP8orVF+el38ej9ent3MJkDafO/Sq9kust9ls3haqL4/n5Z8X790uAKoP/zSvUH2H97z883i8jr0nS4C0+dypV7lfIr3NZvOuUH15vCYvKlle3942rhOGf5pXpb6je17+eTzeAN7tEiBtPnfsVe+XOO/RAqBCfXm846J6srz+vZsfq0oY/oFeUz2q90uS5+Wfx+MN5H24urp6kzKfO/cS+iXKu1sAVKkvj9ce1ZPljeHdDNWE4R/oNdWjer+keF7+eTzegN6H7ex7U30+9+5NOf0S4939DoCmYlTvF17fXlSyvHG8xwuAqfDwD/Sa6lG9XxI8L/88Hm9g7/4nAaaWSJv3Fb2wfknxrlvrUb1feP16UcnyxvLuFwBT/eGf5jXVo3q/VPe8/PN4PN7hPxG4L9LmfVUvsF8SvMULgJR+4fXpRSXLG8+7+bGqKWP4p3lN9ajeL5U9L/88Ho/38M8XLQHS5n1lL7RfqnuLFgBJ/cLrz4tKljemN939GcCWK/xhsrbXVI/q/VLV8/LP4/F4z/7vZi0B0uZ9dS+4Xyp7sxcAaf3C68uLSpY3tNe0AOjgYbK211qPxTG65+Wfx+Px9v7fH1wCpM37BC+8X6p6sxYAif3C68uLSpY3tLd4AdDJw2Rtr7Uei2J0z8s/j8fjvfi/27kESJv3Kd6U3y8VvRcXAKn9wuvLi0qWN7S3aAHQ0cNkba+1HrNjdM/LP4/H483+3z9ZAqTN+zCvh36p5h1cAISo5KbOAAAgAElEQVT3C68jLypZ3tDe7AVAZw+Ttb3WesyK0T0v/zwej7fYuV0CpM37QK+Xfqnk7V0AdNAvvI68qGR5Q3uzFgAFhn+a11qPF2N0z8s/j8fjNXsfrq6u3qTM+1Cvp36p4u1cAHTSL7yOvCkpWd7Q3osLgCLDP81rrcfBGN3z8s/j8XhHex+2s/RN9Xkf7J27vj16zxYAHfULryNvSkqWN7R3cAFQaPineVXq243n5Z/H4/FO5t3/JMDUEmnPj1f2KtS3N+/JAqCzfuH15EUlyxvZ27sAKDb8o7xC9eXxevE+m0LnQWHvsyPqsTd4vMG91HlQ2XtYABSoL4+334tKljeyt3MBUHD4R3mF6svj9eLtXQBUnweFvc8K1ZfH68VLnQeVvesj6rE3eLyTe1HJ8kb2ni0Aig7/KK9QfXm8XrydC4CEeVDY+6xQfXm8XrzUeVDZuy5UXx7vaC8qWV6X3pMFQOHhH+UVqi+P14v3bAGQMg+qehcXF99bqL48Xi9e5Dwo7l0Xqi+P5+WfF+89LACKD/8or1B9ebxevCcLgKR5UNW7uLj4vkL15fF68SLnQWVvs9m8LVRfHs/LPy/eu10AVB/+aV6h+vJ4vXgPC4C0eVDVe7QAqFBfHq8XL3IeVPY2m827QvXl8Zq8qGR5fXvbuE4Y/mlelfryeB15twuAxHlQ1btbAFSpL4/Xixc5Dyp7jxYAFerL4x0X1ZPl9e/d/FhVwvAP9JrqUb1feLxzedv4LHgelPTufgdAUzGq9wuPd0Yvch5U9u4WAFXqy+O1R/VkeWN4N0M1YfgHek31qN4vPN65vJuX1eB5UNX7rLUe1fuFxzuXN+XOg7Le3e8AaCpG9X7h9e1FJcsbx3u8AJgKD/9Ar6ke1fuFxzuXd/Pj6sHzoKq3eAGQ0i883rm84HlQ2bturUf1fuH160UlyxvLu18ATPWHf5rXVI/q/cLjnct7vACY8uZBVW/RAiCpX3i8c3nB86Cyt3gBkNIvvD69qGR543k3P1Y1ZQz/NK+pHtX7hcc7l3e/AJgy50FVb/YCIK1feLxzecHzoLK3aAGQ1C+8/ryoZHljetPdnwFsucIfJmt7TfWo3i883rm8m98BMOXOg6rerAVAYr/weOfygudBZW/2AiCtX3h9eVHJ8ob2mhYAHTxM1vZa67E4eLwRvOnuzwC2XAXmQVXvxQVAar/weOfygudBZW/WAiCxX3h9eVHJ8ob2Fi8AOnmYrO211mNR8HgDeU0LgCLzoKp3cAEQ3i883lm8KXceVPZeXACk9guvLy8qWd7Q3qIFQEcPk7W91nrMDh5vMG/xAqDQPKjq7V0AdNAvPN65vNR5UNk7uAAI7xdeR15UsryhvdkLgM4eJmt7rfWYFTzegN6iBUCxeVDV27kA6KRfeLxzeanzoLK3dwHQQb/wOvKikuUN7c1aABQY/mleaz1eDB5vUG/2AqDgPKjqPVsAdNQvPN65vNR5UNnbuQDopF94HXlTUrK8ob0XFwBFhn+a11qPg8HjDezNWgAUnQdVvScLgM76hcc7l5c6Dyp7zxYAHfULryNvSkqWN7R3cAFQaPineVXqy+P14r24ACg8D6p6DwuAAvXl8XrxUudBZe/JAqCzfuH15EUlyxvZ27sAKDb8o7xC9eXxevEOLgAqz4PC3mdH1GNv8HiDe6nzoLL3sAAoUF8eb78XlSxvZG/nAqDg8I/yCtWXx+vF27sAqD4PCnufFaovj9eLlzoPKnvXR9Rjb/B4J/eikuWN7D1bABQd/lFeofryeL14OxcACfOgsPdZofryeL14qfOgsnddqL483tFeVLK8Lr0nC4DCwz/KK1RfHq8X79kCIGUeVPUuLi6+t1B9ebxevMh5UNy7LlRfHs/LPy/ee1gAFB/+UV6h+vJ4vXhPFgBJ86Cqd3Fx8X2F6svj9eJFzoPK3mazeVuovjyel39evHe7AKg+/NO8QvXl8XrxHhYAafOgqvdoAVChvjxeL17kPKjsbTabd4Xqy+M1eVHJ8vr2tnGdMPzTvCr15fE68m4XAInzoKp3twCoUl8erxcvch5U9h4tACrUl8c7Lqony+vfu/mxqoThH+g11aN6v/B45/K28VnwPCjp3f0OgKZiVO8XHu+MXuQ8qOzdLQCq1JfHa4/qyfLG8G6GasLwD/Sa6lG9X3i8c3k3L6vB86Cq91lrPar3C493Lm/KnQdlvbvfAdBUjOr9wuvbi0qWN473eAEwFR7+gV5TPar3C493Lu/mx9WD50FVb/ECIKVfeLxzecHzoLJ33VqP6v3C69eLSpY3lne/AJjqD/80r6ke1fuFxzuX93gBMOXNg6reogVAUr/weOfygudBZW/xAiClX3h9elHJ8sbzbn6sasoY/mleUz2q9wuPdy7vfgEwZc6Dqt7sBUBav/B45/KC50Flb9ECIKlfeP15UcnyxvSmuz8D2HKFP0zW9prqUb1feLxzeTe/A2DKnQdVvVkLgMR+4fHO5QXPg8re7AVAWr/w+vKikuUN7TUtADp4mKzttdZjcfB4I3jT3Z8BbLkKzIOq3osLgNR+4fHO5QXPg8rerAVAYr/w+vKikuUN7S1eAHTyMFnba63HouDxBvKaFgBF5kFV7+ACILxfeLyzeFPuPKjsvbgASO0XXl9eVLK8ob1FC4COHiZre631mB083mDe4gVAoXlQ1du7AOigX3i8c3mp86Cyd3ABEN4vvI68qGR5Q3uzFwCdPUzW9lrrMSt4vAG9RQuAYvOgqrdzAdBJv/B45/JS50Flb+8CoIN+4XXkRSXLG9qbtQAoMPzTvNZ6vBg83qDe7AVAwXlQ1Xu2AOioX3i8c3mp86Cyt3MB0Em/8DrypqRkeUN7Ly4Aigz/NK+1HgeDxxvYm7UAKDoPqnpPFgCd9QuPdy4vdR5U9p4tADrqF15H3pSULG9o7+ACoNDwT/Oq1JfH68V7cQFQeB5U9R4WAAXqy+P14qXOg8rekwVAZ/3C68mLSpY3srd3AVBs+Ed5herL4/XiHVwAVJ4Hhb3PjqjH3uDxBvdS50Fl72EBUKC+PN5+LypZ3sjezgVAweEf5RWqL4/Xi/f/t3e3IbPkaX3H/6e6zjkzZ54yO1EM0XXGh5gMyGZXiWEWjSEPQlyCRhrOAUPWh4gacXXF1VdxXy6+8IWShSEhRPKuzyFvIiEPqCBoiIKgRkmyIgZMfMiCsjGurjtLqu5Td9s93dVd9a+77//vd/2/fygCjvlwwXXVr+667NM9ugBQzwNhbyPUXzy8KJ5rHih76wX9GD14eDfuWRWLV7N3sAAQDX8rT6i/eHhRvKMLAIc8EPY2Qv3Fw4viueaBsrcW6i8e3mLPqli8kN7eAkA4/K08of7i4UXxDhYALnmg6jVN81iov3h4UTzLPBD31kL9xcPj5R/P3tsuAMTD38oT6i8eXhRvbwHglAeqXtM0T4T6i4cXxbPMA2WvbduHQv3Fw+PlH8/eu1oAqIe/myfUXzy8KN52AeCWB6rezgJAob94eFE8yzxQ9tq2fSTUXzy8LM+qWLzYXnfWDuHv5qn0Fw8vkHe1AHDMA1VvWACo9BcPL4pnmQfK3s4CQKG/eHjLjnqxePG9/mNVDuFv6GX1Q31e8PBKed3ZGOeBpDd8B0BWM9TnBQ+voGeZB8resABQ6S8eXv5RLxavDq8PVYfwN/Sy+qE+L3h4pbz+ZdU4D1S9TW4/1OcFD6+Ul3zzQNYbvgMgqxnq84IX27MqFq8eb3cBkITD39DL6of6vODhlfL6j6sb54GqN3sB4DIveHilPOM8UPbWuf1Qnxe8uJ5VsXh1edcLgKQf/m5eVj/U5wUPr5S3uwBIfnmg6s1aADjNCx5eKc84D5S92QsAl3nBi+lZFYtXn9d/rCp5hL+bl9UP9XnBwyvlXS8AkmceqHqTFwBu84KHV8ozzgNlb9YCwGle8OJ5VsXi1eml4WcAcy7zh8mlvax+qM8LHl4pr/8OgOSbB6repAWA47zg4ZXyjPNA2Zu8AHCbF7xYnlWxeFV7WQuAAA+TS3u5/Zh98PBq8NLwM4A5l0AeqHpnFwCu84KHV8ozzgNlb9ICwHFe8GJ5VsXiVe3NXgAEeZhc2svtx6yDh1eRl7UAEMkDVe/kAsB8XvDwinjJNw+UvbMLANd5wYvlWRWLV7U3awEQ6GFyaS+3H5MPHl5l3uwFgFAeqHqjC4AA84KHV8pzzQNl7+QCwHxe8AJ5VsXiVe1NXgAEe5hc2svtx6SDh1ehN2sBIJYHqt7RBUCQecHDK+W55oGyN7oACDAveIE8q2LxqvYmLQAEwt/Ny+3H2YOHV6k3eQEgmAeq3sECINC84OGV8lzzQNk7ugAIMi94gbzkVCxe1d7ZBYBI+Lt5uf04efDwKvYmLQBE80DV21sABJsXPLxSnmseKHsHC4BA84IXyEtOxeJV7Z1cAAiFv5un0l88vCje2QWAcB6oetsFgEB/8fCieK55oOztLQCCzQteJM+qWLyavdEFgFj4W3lC/cXDi+KdXAAo54Gwt1nQj9GDh1e555oHyt52ASDQXzy8cc+qWLyavaMLAMHwt/KE+ouHF8UbXQCo54GwtxHqLx5eFM81D5S99YJ+jB48vBv3rIrFq9k7WACIhr+VJ9RfPLwo3tEFgEMeCHsbof7i4UXxXPNA2VsL9RcPb7FnVSxeSG9vASAc/laeUH/x8KJ4BwsAlzxQ9ZqmeSzUXzy8KJ5lHoh7a6H+4uHx8o9n720XAOLhb+UJ9RcPL4q3twBwygNVr2maJ0L9xcOL4lnmgbLXtu1Dof7i4fHyj2fvXS0A1MPfzRPqLx5eFG+7AHDLA1VvZwGg0F88vCieZR4oe23bPhLqLx5elmdVLF5srztrh/B381T6i4cXyLtaADjmgao3LABU+ouHF8WzzANlb2cBoNBfPLxlR71YvPhe/7Eqh/A39LL6oT4veHilvO5sjPNA0hu+AyCrGerzgodX0LPMA2VvWACo9BcPL/+oF4tXh9eHqkP4G3pZ/VCfFzy8Ul7/smqcB6reJrcf6vOCh1fKS755IOsN3wGQ1Qz1ecGL7VkVi1ePt7sASMLhb+hl9UN9XvDwSnn9x9WN80DVm70AcJkXPLxSnnEeKHvr3H6ozwteXM+qWLy6vOsFQNIPfzcvqx/q84KHV8rbXQAkvzxQ9WYtAJzmBQ+vlGecB8re7AWAy7zgxfSsisWrz+s/VpU8wt/Ny+qH+rzg4ZXyrhcAyTMPVL3JCwC3ecHDK+UZ54GyN2sB4DQvePE8q2Lx6vTS8DOAOZf5w+TSXlY/1OcFD6+U138HQPLNA1Vv0gLAcV7w8Ep5xnmg7E1eALjNC14sz6pYvKq9rAVAgIfJpb3cfsw+eHg1eGn4GcCcSyAPVL2zCwDXecHDK+UZ54GyN2kB4DgveLE8q2LxqvZmLwCCPEwu7eX2Y9bBw6vIy1oAiOSBqndyAWA+L3h4RbzkmwfK3tkFgOu84MXyrIrFq9qbtQAI9DC5tJfbj8kHD68yb/YCQCgPVL3RBUCAecHDK+W55oGyd3IBYD4veIE8q2LxqvYmLwCCPUwu7eX2Y9LBw6vQm7UAEMsDVe/oAiDIvODhlfJc80DZG10ABJgXvECeVbF4VXuTFgAC4e/m5fbj7MHDq9SbvAAQzANV72ABEGhe8PBKea55oOwdXQAEmRe8QF5yKhavau/sAkAk/N283H6cPHh4FXuTFgCieaDq7S0Ags0LHl4pzzUPlL2DBUCgecEL5CWnYvGq9k4uAITC381T6S8eXhTv7AJAOA9Uve0CQKC/eHhRPNc8UPb2FgDB5gUvkmdVLF7N3ugCQCz8rTyh/uLhRfFOLgCU80DY2yzox+jBw6vcc80DZW+7ABDoLx7euGdVLF7N3tEFgGD4W3lC/cXDi+KNLgDU80DY2wj1Fw8viueaB8reekE/Rg8e3o17VsXi1ewdLABEw9/KE+ovHl4U7+gCwCEPhL2NUH/x8KJ4rnmg7K2F+ouHt9izKhYvpLe3ABAOfytPqL94eFG8gwWASx6oek3TPBbqLx5eFM8yD8S9tVB/8fB4+cez97YLAPHwt/KE+ouHF8XbWwA45YGq1zTNE6H+4uFF8SzzQNlr2/ahUH/x8Hj5x7P3rhYA6uHv5gn1Fw8virddALjlgaq3swBQ6C8eXhTPMg+UvbZtHwn1Fw8vy7MqFi+21521Q/i7eSr9xcML5F0tABzzQNUbFgAq/cXDi+JZ5oGyt7MAUOgvHt6yo14sXnyv/1iVQ/gbeln9UJ8XPLxSXnc2xnkg6Q3fAZDVDPV5wcMr6FnmgbI3LABU+ouHl3/Ui8Wrw+tD1SH8Db2sfqjPCx5eKa9/WTXOA1Vvk9sP9XnBwyvlJd88kPWG7wDIaob6vODF9qyKxavH210AJOHwN/Sy+qE+L3h4pbz+4+rGeaDqzV4AuMwLHl4pzzgPlL11bj/U5wUvrmdVLF5d3vUCIOmHv5uX1Q/1ecHDK+XtLgCSXx6oerMWAE7zgodXyjPOA2Vv9gLAZV7wYnpWxeLV5/Ufq0oe4e/mZfVDfV7w8Ep51wuA5JkHqt7kBYDbvODhlfKM80DZm7UAcJoXvHieVbF4dXpp+BnAnMv8YXJpL6sf6vOCh1fK678DIPnmgao3aQHgOC94eKU84zxQ9iYvANzmBS+WZ1UsXtVe1gIgwMPk0l5uP2YfPLwavDT8DGDOJZAHqt7ZBYDrvODhlfKM80DZm7QAcJwXvFieVbF4VXuzFwBBHiaX9nL7Mevg4VXkZS0ARPJA1Tu5ADCfFzy8Il7yzQNl7+wCwHVe8GJ5VsXiVe3NWgAEephc2svtx+SDh1eZN3sBIJQHqt7oAiDAvODhlfJc80DZO7kAMJ8XvECeVbF4VXuTFwDBHiaX9nL7Meng4VXozVoAiOWBqnd0ARBkXvDwSnmueaDsjS4AAswLXiDPqli8qr1JCwCB8Hfzcvtx9uDhVepNXgAI5oGqd7AACDQveHilPNc8UPaOLgCCzAteIC85FYtXtXd2ASAS/m5ebj9OHjy8ir1JCwDRPFD19hYAweYFD6+U55oHyt7BAiDQvOAF8pJTsXhVeycXAELh7+ap9BcPL4p3dgEgnAeq3nYBINBfPLwonmseKHt7C4Bg84IXybMqFq9mb3QBIBb+Vp5Qf/HwongnFwDKeSDsbRb0Y/Tg4VXuueaBsrddAAj0Fw9v3LMqFq9m7+gCQDD8rTyh/uLhRfFGFwDqeSDsbYT6i4cXxXPNA2VvvaAfowcP78Y9q2LxavYOFgCi4W/lCfUXDy+Kd3QB4JAHwt5GqL94eFE81zxQ9tZC/cXDW+xZFYsX0ttbAAiHv5Un1F88vCjewQLAJQ9UvaZpHgv1Fw8vimeZB+LeWqi/eHi8/OPZe9sFgHj4W3lC/cXDi+LtLQCc8kDVa5rmiVB/8fCieJZ5oOy1bftQqL94eLz849l7VwsA9fB384T6i4cXxdsuANzyQNXbWQAo9BcPL4pnmQfKXtu2j4T6i4eX5VkVixfb687aIfzdPJX+4uEF8q4WAI55oOoNCwCV/uLhRfEs80DZ21kAKPQXD2/ZUS8WL77Xf6zKIfwNvax+qM8LHl4przsb4zyQ9IbvAMhqhvq84OEV9CzzQNkbFgAq/cXDyz/qxeLV4fWh6hD+hl5WP9TnBQ+vlNe/rBrngaq3ye2H+rzg4ZXykm8eyHrDdwBkNUN9XvBie1bF4tXj7S4AknD4G3pZ/VCfFzy8Ul7/cXXjPFD1Zi8AXOYFD6+UZ5wHyt46tx/q84IX17MqFq8u73oBkPTD383L6of6vODhlfJ2FwDJLw9UvVkLAKd5wcMr5RnngbI3ewHgMi94MT2rYvHq8/qPVSWP8HfzsvqhPi94eKW86wVA8swDVW/yAsBtXvDwSnnGeaDszVoAOM0LXjzPqli8Or00/AxgzmX+MLm0l9UP9XnBwyvl9d8BkHzzQNWbtABwnBc8vFKecR4oe5MXAG7zghfLsyoWr2ovawEQ4GFyaS+3H7MPHl4NXhp+BjDnEsgDVe/sAsB1XvDwSnnGeaDsTVoAOM4LXizPqli8qr3ZC4AgD5NLe7n9mHXw8CryshYAInmg6p1cAJjPCx5eES/55oGyd3YB4DoveLE8q2LxqvZmLQACPUwu7eX2Y/LBw6vMm70AEMoDVW90ARBgXvDwSnmueaDsnVwAmM8LXiDPqli8qr3JC4BgD5NLe7n9mHTw8Cr0Zi0AxPJA1Tu6AAgyL3h4pTzXPFD2RhcAAeYFL5BnVSxe1d6kBYBA+Lt5uf04e/DwKvUmLwAE80DVO1gABJoXPLxSnmseKHtHFwBB5gUvkJecisWr2ju7ABAJfzcvtx8nDx5exd6kBYBoHqh6ewuAYPOCh1fKc80DZe9gARBoXvACecmpWLyqvZMLAKHwd/NU+ouHF8U7uwAQzgNVb7sAEOgvHl4UzzUPlL29BUCwecGL5FkVi1ezN7oAEAt/K0+ov3h4UbyTCwDlPBD2Ngv6MXrw8Cr3XPNA2dsuAAT6i4c37lkVi1ezd3QBIBj+Vp5Qf/HwonijCwD1PBD2NkL9xcOL4rnmgbK3XtCP0YOHd+OeVbF4NXsHCwDR8LfyhPqLhxfFO7oAcMgDYW8j1F88vCieax4oe2uh/uLhLfasisUL6e0tAITD38oT6i8eXhTvYAHgkgeqXtM0j4X6i4cXxbPMA3FvLdRfPDxe/vHsve0CQDz8rTyh/uLhRfH2FgBOeaDqNU3zRKi/eHhRPMs8UPbatn0o1F88PF7+8ey9qwWAevi7eUL9xcOL4m0XAG55oOrtLAAU+ouHF8WzzANlr23bR0L9xcPL8qyKxYvtdWftEP5unkp/8fACeVcLAMc8UPWGBYBKf/HwoniWeaDs7SwAFPqLh7fsqBeLF9/rP1blEP6GXlY/1OcFD6+U152NcR5IesN3AGQ1Q31e8PAKepZ5oOwNCwCV/uLh5R/1YvHq8PpQdQh/Qy+rH+rzgodXyutfVo3zQNXb5PZDfV7w8Ep5yTcPZL3hOwCymqE+L3ixPati8erxdhcASTj8Db2sfqjPCx5eKa//uLpxHqh6sxcALvOCh1fKM84DZW+d2w/1ecGL61kVi1eXd70ASPrh7+Zl9UN9XvDwSnm7C4Dklweq3qwFgNO84OGV8ozzQNmbvQBwmRe8mJ5VsXj1ef3HqpJH+Lt5Wf1Qnxc8vFLe9QIgeeaBqjd5AeA2L3h4pTzjPFD2Zi0AnOYFL55nVSxenV4afgYw5zJ/mFzay+qH+rzg4ZXy+u8ASL55oOpNWgA4zgseXinPOA+UvckLALd5wYvlWRWLV7WXtQAI8DC5tJfbj9kHD68GLw0/A5hzCeSBqnd2AeA6L3h4pTzjPFD2Ji0AHOcFL5ZnVSxe1d7sBUCQh8mlvdx+zDp4eBV5WQsAkTxQ9U4uAMznBQ+viJd880DZO7sAcJ0XvFieVbF4VXuzFgCBHiaX9nL7Mfng4VXmzV4ACOWBqje6AAgwL3h4pTzXPFD2Ti4AzOcFL5BnVSxe1d7kBUCwh8mlvdx+TDp4eBV6sxYAYnmg6h1dAASZFzy8Up5rHih7owuAAPOCF8izKhavam/SAkAg/N283H6cPXh4lXqTFwCCeaDqHSwAAs0LHl4pzzUPlL2jC4Ag84IXyEtOxeJV7Z1dAIiEv5uX24+TBw+vYm/SAkA0D1S9vQVAsHnBwyvlueaBsnewAAg0L3iBvORULF7V3skFgFD4u3kq/cXDi+KdXQAI54Gqt10ACPQXDy+K55oHyt7eAiDYvOBF8qyKxavZG10AiIW/lSfUXzy8KN7JBYByHgh7mwX9GD14eJV7rnmg7G0XAAL9xcMb96yKxavZO7oAEAx/K0+ov3h4UbzRBYB6Hgh7G6H+4uFF8VzzQNlbL+jH6MHDu3HPqli8mr2DBYBo+Ft5Qv3Fw4viHV0AOOSBsLcR6i8eXhTPNQ+UvbVQf/HwFntWxeKF9PYWAMLhb+UJ9RcPL4p3sABwyQNVr2max0L9xcOL4lnmgbi3FuovHh4v/3j23nYBIB7+Vp5Qf/Hwonh7CwCnPFD1mqZ5ItRfPLwonmUeKHtt2z4U6i8eHi//ePbe1QJAPfzdPKH+4uFF8bYLALc8UPV2FgAK/cXDi+JZ5oGy17btI6H+4uFleVbF4sX2urN2CH83T6W/eHiBvKsFgGMeqHrDAkClv3h4UTzLPFD2dhYACv3Fw1t21IvFi+/1H6tyCH9DL6sf6vOCh1fK687GOA8kveE7ALKaoT4veHgFPcs8UPaGBYBKf/Hw8o96sXh1eH2oOoS/oZfVD/V5wcMr5fUvq8Z5oOptcvuhPi94eKW85JsHst7wHQBZzVCfF7zYnlWxePV4uwuAJBz+hl5WP9TnBQ+vlNd/XN04D1S92QsAl3nBwyvlGeeBsrfO7Yf6vODF9ayKxavLu14AJP3wd/Oy+qE+L3h4pbzdBUDyywNVb9YCwGle8PBKecZ5oOzNXgC4zAteTM+qWLz6vP5jVckj/N28rH6ozwseXinvegGQPPNA1Zu8AHCbFzy8Up5xHih7sxYATvOCF8+zKhavTi8NPwOYc5k/TC7tZfVDfV7w8Ep5/XcAJN88UPUmLQAc5wUPr5RnnAfK3uQFgNu84MXyrIrFq9rLWgAEeJhc2svtx+yDh1eDl4afAcy5BPJA1Tu7AHCdFzy8Up5xHih7kxYAjvOCF8uzKhavam/2AiDIw+TSXm4/Zh08vIq8rAWASB6oeicXAObzgodXxEu+eaDsnV0AuM4LXizPqli8qr1ZC4BAD5NLe7n9mHzw8CrzZi8AhPJA1RtdAASYFzy8Up5rHih7JxcA5vOCF8izKhavam/yAiDYw+TSXm4/Jh08vAq9WQsAsTxQ9Y4uAILMCx5eKc81D5S90QVAgOksGOUAACAASURBVHnBC+RZFYtXtTdpASAQ/m5ebj/OHjy8Sr3JCwDBPFD1DhYAgeYFD6+U55oHyt7RBUCQecEL5CWnYvGq9s4uAETC383L7cfJg4dXsTdpASCaB6re3gIg2Lzg4ZXyXPNA2TtYAASaF7xAXnIqFq9q7+QCQCj83TyV/uLhRfHOLgCE80DV2y4ABPqLhxfFc80DZW9vARBsXvAieVbF4tXsjS4AxMLfyhPqLx5eFO/kAkA5D4S9zYJ+jB48vMo91zxQ9rYLAIH+4uGNe1bF4tXsHV0ACIa/lSfUXzy8KN7oAkA9D4S9jVB/8fCieK55oOytF/Rj9ODh3bhnVSxezd7BAkA0/K08of7i4UXxji4AHPJA2NsI9RcPL4rnmgfK3lqov3h4iz2rYvFCensLAOHwt/KE+ouHF8U7WAC45IGq1zTNY6H+4uFF8SzzQNxbC/UXD4+Xfzx7b7sAEA9/K0+ov3h4Uby9BYBTHqh6TdM8EeovHl4UzzIPlL22bR8K9RcPj5d/PHvvagGgHv5unlB/8fCieNsFgFseqHo7CwCF/uLhRfEs80DZa9v2kVB/8fCyPKti8WJ73Vk7hL+bp9JfPLxA3tUCwDEPVL1hAaDSXzy8KJ5lHih7OwsAhf7i4S076sXixff6j1U5hL+hl9UP9XnBwyvldWdjnAeS3vAdAFnNUJ8XPLyCnmUeKHvDAkClv3h4+Ue9WLw6vD5UHcLf0Mvqh/q84OGV8vqXVeM8UPU2uf1Qnxc8vFJe8s0DWW/4DoCsZqjPC15sz6pYvHq83QVAEg5/Qy+rH+rzgodXyus/rm6cB6re7AWAy7zg4ZXyjPNA2Vvn9kN9XvDielbF4tXlXS8Akn74u3lZ/VCfFzy8Ut7uAiD55YGqN2sB4DQveHilPOM8UPZmLwBc5gUvpmdVLF59Xv+xquQR/m5eVj/U5wUPr5R3vQBInnmg6k1eALjNCx5eKc84D5S9WQsAp3nBi+dZFYtXp5eGnwHMucwfJpf2svqhPi94eKW8/jsAkm8eqHqTFgCO84KHV8ozzgNlb/ICwG1e8GJ5VsXiVe1lLQACPEwu7eX2Y/bBw6vBS8PPAOZcAnmg6p1dALjOCx5eKc84D5S9SQsAx3nBi+VZFYtXtTd7ARDkYXJpL7cfsw4eXkVe1gJAJA9UvZMLAPN5wcMr4iXfPFD2zi4AXOcFL5ZnVSxe1d6sBUCgh8mlvdx+TD54eJV5sxcAQnmg6o0uAALMCx5eKc81D5S9kwsA83nBC+RZFYtXtTd5ARDsYXJpL7cfkw4eXoXerAWAWB6oekcXAEHmBQ+vlOeaB8re6AIgwLzgBfKsisWr2pu0ABAIfzcvtx9nDx5epd7kBYBgHqh6BwuAQPOCh1fKc80DZe/oAiDIvOAF8pJTsXhVe2cXACLh7+bl9uPkwcOr2Ju0ABDNA1VvbwEQbF7w8Ep5rnmg7B0sAALNC14gLzkVi1e1d3IBIBT+bp5Kf/HwonhnFwDCeaDqbRcAAv3Fw4viueaBsre3AAg2L3iRPKti8Wr2RhcAYuFv5Qn1Fw8vindyAaCcB8LeZkE/Rg8eXuWeax4oe9sFgEB/8fDGPati8Wr2ji4ABMPfyhPqLx5eFG90AaCeB8LeRqi/eHhRPNc8UPbWC/oxevDwbtyzKhavZu9gASAa/laeUH/x8KJ4RxcADnkg7G2E+ouHF8VzzQNlby3UXzy8xZ5VsXghvb0FgHD4W3lC/cXDi+IdLABc8kDVa5rmsVB/8fCieJZ5IO6thfqLh8fLP569t10AiIe/lSfUXzy8KN7eAsApD1S9pmmeCPUXDy+KZ5kHyl7btg+F+ouHx8s/nr13tQBQD383T6i/eHhRvO0CwC0PVL2dBYBCf/HwoniWeaDstW37SKi/eHhZnlWxeLG97qwdwt/NU+kvHl4g72oB4JgHqt6wAFDpLx5eFM8yD5S9nQWAQn/x8JYd9WLx4nv9x6ocwt/Qy+qH+rzg4ZXyurMxzgNJb/gOgKxmqM8LHl5BzzIPlL1hAaDSXzy8/KNeLF4dXh+qDuFv6GX1Q31e8PBKef3LqnEeqHqb3H6ozwseXikv+eaBrDd8B0BWM9TnBS+2Z1UsXj3e7gIgCYe/oZfVD/V5wcMr5fUfVzfOA1Vv9gLAZV7w8Ep5xnmg7K1z+6E+L3hxPati8eryrhcAST/83bysfqjPCx5eKW93AZD88kDVm7UAcJoXPLxSnnEeKHuzFwAu84IX07MqFq8+r/9YVfIIfzcvqx/q84KHV8q7XgAkzzxQ9SYvANzmBQ+vlGecB8rerAWA07zgxfOsisWr00vDzwDmXOYPk0t7Wf1Qnxc8vFJe/x0AyTcPVL1JCwDHecHDK+UZ54GyN3kB4DYveLE8q2LxqvayFgABHiaX9nL7Mfvg4dXgpeFnAHMugTxQ9c4uAFznBQ+vlGecB8repAWA47zgxfKsisWr2pu9AAjyMLm0l9uPWQcPryIvawEgkgeq3skFgPm84OEV8ZJvHih7ZxcArvOCF8uzKhavam/WAiDQw+TSXm4/Jh88vMq82QsAoTxQ9UYXAAHmBQ+vlOeaB8reyQWA+bzgBfKsisWr2pu8AAj2MLm0l9uPSQcPr0Jv1gJALA9UvaMLgCDzgodXynPNA2VvdAEQYF7wAnlWxeJV7U1aAAiEv5uX24+zBw+vUm/yAkAwD1S9gwVAoHnBwyvlueaBsnd0ARBkXvACecmpWLyqvbMLAJHwd/Ny+3Hy4OFV7E1aAIjmgaq3twAINi94eKU81zxQ9g4WAIHmBS+Ql5yKxavaO7kAEAp/N0+lv3h4UbyzCwDhPFD1tgsAgf7i4UXxXPNA2dtbAASbF7xInlWxeDV7owsAsfC38oT6i4cXxTu5AFDOA2Fvs6AfowcPr3LPNQ+Uve0CQKC/eHjjnlWxeDV7RxcAguFv5Qn1Fw8vije6AFDPA2FvI9RfPLwonmseKHvrBf0YPXh4N+5ZFYtXs3ewABANfytPqL94eFG8owsAhzwQ9jZC/cXDi+K55oGytxbqLx7eYs+qWLyQ3t4CQDj8rTyh/uLhRfEOFgAueaDqNU3zWKi/eHhRPMs8EPfWQv3Fw+PlH8/e2y4AxMPfyhPqLx5eFG9vAeCUB6pe0zRPhPqLhxfFs8wDZa9t24dC/cXD4+Ufz967WgCoh7+bJ9RfPLwo3nYB4JYHqt7OAkChv3h4UTzLPFD22rZ9JNRfPLwsz6pYvNhed9YO4e/mqfQXDy+Qd7UAcMwDVW9YAKj0Fw8vimeZB8rezgJAob94eMuOerF48b3+Y1UO4W/oZfVDfV7w8Ep53dkY54GkN3wHQFYz1OcFD6+gZ5kHyt6wAFDpLx5e/lEvFq8Orw9Vh/A39LL6oT4veHilvP5l1TgPVL1Nbj/U5wUPr5SXfPNA1hu+AyCrGerzghfbsyoWrx5vdwGQhMPf0Mvqh/q84OGV8vqPqxvngao3ewHgMi94eKU84zxQ9ta5/VCfF7y4nlWxeHV51wuApB/+bl5WP9TnBQ+vlLe7AEh+eaDqzVoAOM0LHl4pzzgPlL3ZCwCXecGL6VkVi1ef13+sKnmEv5uX1Q/1ecHDK+VdLwCSZx6oepMXAG7zgodXyjPOA2Vv1gLAaV7w4nlWxeLV6aXhZwBzLvOHyaW9rH6ozwseXimv/w6A5JsHqt6kBYDjvODhlfKM80DZm7wAcJsXvFieVbF4VXvfkDzC383bnLr6l5n+/6K5cz0+9/8Hz8czzgNZLw0/A5hzCeSBqnd2AeA6L4U9q7zCu1nPOA+Uvf5v1bNHNA/wKvKsisWr2vv7ySP88fBsPOM8UPayFgAO81LQO7kAMJ+Xkp5Kf/HwonjvS2eOcB7gVeRZFYtXtfc1ySP88fBsPOM8UPZmLwBc5qWgN7oACDAvJT2V/uLhRfH+TjpxxPMAryLPqli8qr2/mTzCHw/PxjPOA2Vv1gLAaV4KekcXAEHmpZiXdPqLhxfF+6o0ctTzAK8uz6pYvKq9N5JH+OPh2XjGeaDsTV4AuM1LQe9gARBoXop5Qv3Fw4vi/fV05DjkAV5dXnIqFq9q7/XkEf54eDaecR4oe5MWAI7zUtDbWwAEm5dinlB/8fCieF+S3nZc8gCvLi85FYtXtffZySP88fCcvNlHJA+UvbMLAON5KeVtFwAC/Q3jCfUXDy+K90raOU55gFeZZ1UsXs1e212fSfrhj4fn5M06Qnmg7J1cAJjPSylvs6Afo6d2T6i/eHgRvLe6a5WG45YHeJV5VsXi1e79ftIOfzw8N2/yEcwDVW90ARBgXkp5G6H+hvGE+ouHF8H7eBqOYx7gVeZZFYtXu/drSTv88fDcvElHNA9UvaMLgCDzUsrbCPU3jJd0+ouHF8H7r91lmwd4ePbF4oX1/l3SDn88PDfv7BHOA1XvYAEQaF6KeE3TPBbqbyRPor94eEG8f2ueB3h4vsXihfY+mrTDHw/PzTt5xPNA1dtbAASblyJe0zRPhPobyZPoLx5eEO9HzfMAD8+zWLzYXnc+JB7+eHhu3uhRzwNhb7sAEOhvCG9nAaDQ30ieRH/x8CJ4q9Xq+83zAA/Pr1i8+F7btmvl8MfDM/SOHoc8EPauFgAi/Q3hDQsAlf5G8iT6i4cXwbt7t/0G8zzAw/MqFq8O78GDZ19XDn88PEPv4LjkgarXnY1Qf0N4w3cAZDVDfV4KexL9xcOL4D333IO/ZJ4HeJV7VsXi1eN9+Ze/+5kuZP+vavjj4Rl6e8cpD1S9/mVVqL9RvE1uP9TnpbCn0l88PHfvE2+88RX3zfMAr2LPqli8+rwuZP9L0gx/PDxHb3sc80DR6z+uLtTfKN7sBYDLvBT2VPqLh2ftdbn/cwHyAK9Sz6pYvDq97j+9mQTDHw/P1Ls6rnmg6O0uAFL5/kbxZi0AnOalsKfSXzw8a6/L/TcD5AFehZ5VsXhVe+9PguGPh2fqueeBnHe9AEga/Y3iTV4AuM1LYU+lv3h47t4/TBlHLA/wKvOsisWr3vvipBn+eHh2XoA8kPP67wBIIv0N5E1aADjOS2FPpb94eO7ea2nmEcwDvIo8q2Lx8Ibz20kv/PHw7LwgeSDlpeFnAHMu9Xkp6J1dALjOS2FPpb94eM5e/zfprCOaB3gVeVbF4uEN598krfDHw7P0guSBmpe1AHCYl4LeyQWA+byU9FT6i4fn7PWf+pp8hPMAryLPqlg8vOF8R9IKfzw8Sy9IHqh5sxcALvNS0BtdAASYl5KeSn/x8Jy9b00Tj3ge4FXkWRWLhzecV5NW+OPhWXpB8kDNm7UAcJqXgt7RBUCQeSnmJZ3+4uE5e+9ME456HuDV5VkVi4e3c/5b0gl/PDxLL1AeKHmTFwBu81LQO1gABJqXYp5Qf/HwXL1fSROOQx7g1eUlp2Lx8HbOjySN8MfDs/UC5YGSN2kB4DgvBb29BUCweSnmCfUXD8/V++F05rjkAV5dXnIqFg9v57w3aYQ/Hp6zN/uI5oGSd3YBYDwvpbztAkCgv2E8of7i4bl6fy2dOE55gFeZZ1UsHt6fnTvd9T9T+fDHw3P2Zh3hPFDyTi4AzOellLdZ0I/RU7sn1F88PEev/xu0/1v06HHLA7zKPKti8fD2z48Ee5jg4d22N/mo54GQN7oACDAvpbyNUH/DeEL9xcNz9D6SRo5jHuBV5lkVi4e34927d++9wR4meHi37U06Dnkg5B1dAASZl1LeRqi/Ybyk0188PEfvPenIcc0DPDz7YvHq8Zrmzq8Gepjg4d22d/Y45YGId7AACDQvRbymaR4L9TeSJ9FfPDxD75fSkWOeB3h4vsXi1eWtVqvvC/IwwcMr4Z08bnkg4u0tAILNSxGvaZonQv2N5En0Fw/P0Puu9LYTIA/w8DyLxavPe+mllz6n+0+fTP4PEzy8Et7occwDEW+7ABDobwhvZwGg0N9InkR/8fDMvD/qrpfTzgmSB3h4fsXiVe396+T9MMHDK+UdPeZ5UNq7WgCI9DeENywAVPobyZPoLx6emffjaecEygM8PK9i8ar33pW8HyZ4eKW8gxMgD4p63dkI9TeEN3wHQFYz1OelsCfRXzw8M+/daTjB8gCvcs+qWDy84fxU8n2Y4OGV8vZOoDwo5vUvq0L9jeJtcvuhPi+FPZX+4uG5eP8hDUfg/sXD4+Ufr3rva5PnwwQPr6S3PcHyoJjXf1xdqL9RvNkLAJd5Keyp9BcPz8X7u92lcv/i4fHyj1e9d6e7fjn5PUzw8Ep6V0fg/g3j7S4AUvn+RvFmLQCc5qWwp9JfPDwH7xe7647Q/YuHx8s/Hl53/kHyepjg4ZX2lO7fEN71AiBp9DeKN3kB4DYvhT2V/uLhOXjvE7t/8fB4+cfDS08/BfDzyedhgodX1BO7f0N4/XcAJJH+BvImLQAc56Wwp9JfPDx17xdeffWdd8TuXzw8Xv7x8IbzvuTxMMHDK+4J3r/2Xhp+BjDnUp+Xgt7ZBYDrvBT2VPqLh6fufY3g/YuHl+1ZFYuHN/H8p6T/MMHDK+6J3r/uXtYCwGFeCnonFwDm81LSU+kvHp6y95Oi9y8eXrZnVSwe3pTTBf27uuvTwg8TPDwJT/H+DeDNXgC4zEtBb3QBEGBeSnoq/cXDU/U+ff/+/XeL3r94eNmeVbF4eFO9pmn+hejDBA9PxlO9f829WQsAp3kp6B1dAASZl2Je0ukvHp6k1/0t+VHV+xcPb4lnVSwe3lTvpZde/Itd8P++2sMED0/JU71/zb3JCwC3eSnoHSwAAs1LMU+ov3h4it7HX375z32O6v2Lh7fES07F4uHN8Var1bcnrYcJHp6Up3z/GnuTFgCO81LQ21sABJuXYp5Qf/Hw5Ly2bb9F+f7Fw1viJadi8fDmeP1PtqThCwHnXg4PJzy8G/BmH9c8uEXv7ALAeF5KedsFgEB/w3hC/cXDk/KapvnpN974ivvK9y8e3iLPqlg8vPneF3fXH6VgDyc8vBvyZp0AeXAb3skFgPm8lPI2C/oxemr3hPqLh6fk/b8HDx78ZfX7Fw9vkWdVLB5enveBFOvhhId3U97kEygPLu2NLgACzEspbyPU3zCeUH/x8GS81Wr1AYf7Fw9vkWdVLB5entf/U4CfSEEeTnh4N+hNOsHy4NLe0QVAkHkp5W2E+hvGSzr9xcOT8Jqm+ffDR//l7188vNvwrIrFwztyPru7fieZP5zw8G7YO3tE7l8n72ABEGheinjdH+WPhfobyZPoLx6eiPe7L774wucZ3b94eBf1rIrFwztx/l53vZV8H054eDftnTxi96+Lt7cACDYvRbymaZ4I9TeSJ9FfPDwB7627d+9+rdn9i4d3Mc+qWDy8CefDyfPhhId3CW/0iN6/Dt52ASDQ3xDezgJAob+RPIn+4uGV9lar1Q8Z3r94eBfxrIrFw5t4mjR8H4DTwwkP70Le0SN8/zp4VwsAkf6G8IYFgEp/I3kS/cXDK+l1+fIT73nPu+4b3r94eLz84+FNPavV6uUu9D/m8nDCw7ugd3DU7191rzsbof6G8IbvAMhqhvq8FPYk+ouHV9D77+94x8ufZXr/4uHx8o+HN8frf+O1C/7fM3g44eFd0ts7Lvevste/rAr1N4q3ye2H+rwU9lT6i4dXwvv4s88+87rx/YuHx8s/Ht5crztf3T0APpl0H054eJf2tsft/lX1+o+rC/U3ijd7AeAyL4U9lf7i4d2298l79+5+lfn9i4fHyz8eXo7X/adH6cgvA0y5zB52eHjHrqvjev8qersLgFS+v1G8WQsAp3kp7Kn0Fw/vNr232rZ9GOD+xcPj5R8Pb4H3zd31maTzcMLDuy0vwv0r5V0vAJJGf6N4kxcAbvNS2FPpLx7ebXmfWa1W3xnk/sXD4+UfD2+h94Gk8XDCw7s1L9D9K+P13wGQRPobyJu0AHCcl8KeSn/x8G7F617+fzDQ/YuHx8s/Ht4NeP80BXvY4eGduoLdvxJeGn4GMOdSn5eC3tkFgOu8FPZU+ouHdwsv/80PBbt/8fCyPati8fBuwftQCvKww8M75wncbxG9rAWAw7wU9E4uAMznpaSn0l88vEu//H9Y4H7Dw5PxrIrFw7sl79vT274Y0O1hh4c3xRO536J5sxcALvNS0BtdAASYl5KeSn/x8C7l9f/m/4Mi9xsenoxnVSwe3i167++uTyW/hx0e3mRP6H6L5M1aADjNS0Hv6AIgyLwU85JOf/HwLuH9Sduu3q9yv+HhKXlWxeLh3abXnb/VPUD+wOhhh4c3y1O63wJ5kxcAbvNS0DtYAASal2KeUH/x8G7a+8Tdu+37lO43PDwlLzkVi4d3294zzzzzV7sHyW8aPOzw8GZ7avdbEG/SAsBxXgp6ewuAYPNSzBPqLx7eTXq/df/+/S9Tu9/w8JS85FQsHl4J78UXX3hn90D52aT7sMPDy/VmH7f7t4B3dgFgPC+lvO0CQKC/YTyh/uLh3YjXNM3PvPDC85+reL/h4Ul5VsXi4RXynn/+ubb7zx9JYg87PLyF3qzjev/esndyAWA+L6W8zYJ+jJ7aPaH+4uEt9rqX/3/+RV/0BQ9U7zc8PCnPqlg8vPLeN3bXHyaBhx0e3g14k0+Q+/c2vNEFQIB5KeVthPobxhPqLx7eEu8Tbdt+o/r9hocn5VkVi4en4b3WXWf/SYDRwxOvXm/SCXb/Xto7ugAIMi+lvI1Qf8N4Sae/eHhZXtM0v/DgwbOvO9xveHiOnlWxeHi34PX/JODD3fXpZPzwxKveO3tE7jcn72ABEGheinjdH/mPhfobyZPoLx5ehvdWlws/9oVf+NrzRvcbHp6VZ1UsHt4te+/trl9Lfg9PPLz+OnkE7zcHb28BEGxeinjdH/pPhPobyZPoLx7eHK9p7vzqvXv3vtLwfsPDs/GsisXDK+T1H6X8ge76Y4eHJx7ezjV6hO83dW+7ABDobwhvZwGg0N9InkR/8fAmep9arZoffvXVd75ger/h4Vl4VsXi4ZX2nnnm/ru6P1R/UvjhiYf39uvocbjfhL2rBYBIf0N4wwJApb+RPIn+4uGdu5rmzn989tlnvtT8fsPDk/esisXDU/Lu3r379d3D7teT0MMTD2/kOjhu95ua152NUH9DeMN3AGQ1Q31eCnsS/cXDO3F9rG3bh0HuNzw8ac+qWDw8Re9+d7r//H3d9Xsp1sMYL5a3d1zvNyWvf1kV6m8Ub5PbD/V5Keyp9BcP7+3X73bX97722uc/F+h+w8OT9ayKxcMz8J7rrg+kpw8z54cxXkxve4Lcb8W9/uPqQv2N4s1eALjMS2FPpb94eNfXx7vrw227elHg/sDDq8KzKhYPz8x7qbt+sLv+d/J6GOPF9q6OwP0RxttdAKTy/Y3izVoAOM1LYU+lv3h4v9VdH+quF4TuDzy88J5VsXh4xt697vqm7vqVpP0wxqvDU7s/7L3rBUDS6G8Ub/ICwG1eCnsq/cWr1/vl7vpH6enfRmr3Bx5eaM+qWDy8QN6Xddeb3cPyD4UexngVeeL3h6XXfwdAEulvIG/SAsBxXgp7Kv3Fq8v7ZHp6T//t7rpzPYyC9wceXljPqlg8vIjeK6+847NWq9V3dy8OP9s9PD+T/B/ueCaew/3h5qXhZwBzLvV5KeidXQC4zkthT6W/ePG9t7rrZ7rrO9LTfxK5d0TvDzy8sJ5VsXh40b2mufN53X/+YHf95/T0genycMcz9NzuDxMvawHgMC8FvZMLAPN5Kemp9Bcvptf/DfNz3fU93fW5aeQI3x94eGE9q2Lx8Crz/nx3rbvrze76X0nv4Y5n7pnfH6re7AWAy7wU9EYXAAHmpaSn0l+8ON7/SU/v12/rrr9wOHL7R/z+wMML61kVi4dXsdf/O7nXu+sfd9ePd9fHUow/FvAKeoHuDyVv1gLAaV4KekcXAEHmpZiXdPqL5+v9j+5//q+661u766+knX/Tf+6o3x94eJE9q2Lx8PD+7KxWq5fu3bv71d3/+11N07zZXT/dPYx/o/tPf5p0/1jAE/KU5jmQN3kB4DYvBb2DBUCgeSnmCfUXT9v7VHf9RtPc+an+b422Xf2Te/fu/Y1XXnnHK0rzjIeHN91LTsXi4eFN8truerW7vrK7vq67vqW7fqC7PtJdH01P/0nBv0xP/6jeXv23l/c/YbZzPX77/86cC0/fM5lnN6//Dg+J/gbyPrigH2dPrZ5Qf/HKef3fAv3fBP8sPf0bof9bof+bof/bof8b4vOff/651mGe8fDwpnvJqVg8PDw8PDw8PDw8PDw8PLxMz6pYPDw8PDw8PDw8PDw8PDy8PM+qWDw8PDw8PDw8PDw8PDw8vDzPqlg8PDw8PDw8PDw8PDw8PLyLelbF4uHh4eHh4eHh4eHh4eHhLTzqxeLh4eHh4eHh4eHh4eHh4S086sXi4eHh4eHh4eHh4eHh4eEtPOrF4uHh4eHh4eHh4eHh4eHhLTzqxeLh4eHh4eHh4eHh4eHh4S086sXi4eHh4eHh4eHh4eHh4eEtPOrF4uHh4eHh4eHh4eHh4eHhLTzqxeLh4eHh4eHh4eHh4eHh4S086sXi4eHh4eHh4eHh4eHh4eEtPOrF4uHh4eHh4eHh4eHh4eHhLTzqxeLh4eHh4eHh4eHh4eHh4eV5VsXi4eHh4eHh4eHh4eHh4eHleVbF4uHh4eHh4eHh4eHh4eHh5XlWxeLh4eHh4eHh4eHh4eHh4eV5VsXi4eHh4eHh4eHh4eHh4eHlecmpWDw8PDw8PDw8PDw8PDw8vDwvORWLh4eHh4eHh4eHh4eHh4eX6VkVi4eHh4eHh4eHh4eHh4eHl+dZFYuHh4eHh4eHh4eHh4eHh5fnWRWLh4eHh4eHh4eHh4eHh4d3Uc+qWDw8PDw8PDw8PDw8PDw8vIVHvVg8PDw8PDw8PDw8PDw8PLyFR71YPDw8PDw8PDw81PuocgAABGBJREFUPDw8PDy8hUe9WDw8PDw8PDw8PDw8PDw8vIVHvVg8PDw8PDw8PDw8PDw8PLyFR71YPDw8PDw8PDw8PDw8PDy8hUe9WDw8PDw8PDw8PDw8PDw8vIVHvVg8PDw8PDw8PDw8PDw8PLyFR71YPDw8PDw8PDw8PDw8PDy8hUe9WDw8PDw8PDw8PDw8PDw8vIVHvVg8PDw8PDw8PDw8PDw8PLw8z6pYPDw8PDw8PDw8PDw8PDy8PM+qWDw8PDw8PDw8PDw8PDw8vDzPqlg8PDw8PDw8PDw8PDw8PLw8z6pYPDw8PDw8PDw8PDw8PDy8PC85FYuHh4eHh4eHh4eHh4eHh5fnJadi8fDw8PDw8PDw8PDw8PDwMj2rYvHw8PDw8PDw8PDw8PDw8PI8q2Lx8PDw8PDw8PDw8PDw8PDyPKti8fDw8PDw8PDw8PDw8PDwLupZFYuHh4eHh4eHh4eHh4eHh7fwqBeLh4eHh4eHh4eHh4eHh4e38KgXi4eHh4eHh4eHh4eHh4eHt/CoF4uHh4eHh4eHh4eHh4eHh7fwqBeLh4eHh4eHh4eHh4eHh4e38KgXi4eHh4eHh4eHh4eHh4eHt/CoF4uHh4eHh4eHh4eHh4eHh7fwqBeLh4eHh4eHh4eHh4eHh4e38KgXi4eHh4eHh4eHh4eHh4eHt/CoF4uHh4eHh4eHh4eHh4eHh7fwqBeLh4eHh4eHh4eHh4eHh4eX51kVi4eHh4eHh4eHh4eHh4eHl+dZFYuHh4eHh4eHh4eHh4eHh5fnWRWLh4eHh4eHh4eHh4eHh4eX51kVi4eHh4eHh4eHh4eHh4eHl+clp2Lx8PDw8PDw8PDw8PDw8PDyvORULB4eHh4eHh4eHh4eHh4eXqZnVSweHh4eHh4eHh4eHh4eHl6eZ1UsHh4eHh4eHh4eHh4eHh5enmdVLB4eHh4eHh4eHh4eHh4e3kU9q2Lx8PDw8PDw8PDw8PDw8PAWHvVi8fDw8PDw8PDw8PDw8PDwFh71YvHw8PDw8PDw8PDw8PDw8BYe9WLx8PDw8PDw8PDw8PDw8PAWHvVi8fDw8PDw8PDw8PDw8PDwFh71YvHw8PDw8PDw8PDw8PDw8BYe9WLx8PDw8PDw8PDw8PDw8PAWHvVi8fDw8PDw8PDw8PDw8PDwFh71YvHw8PDw8PDw8PDw8PDw8BYe9WLx8PDw8PDw8PDw8PDw8PAWHvVi8fDw8PDw8PDw8PDw8PDw8jyrYvHw8PDw8PDw8PDw8PDw8PI8q2Lx8PDw8PDw8PDw8PDw8PDyPKti8fDw8PDw8PDw8PDw8PDw8jyrYvHw8PDw8PDw8PDw8PDw8PK85FQsHh4eHh4eHh4eHh4eHh5enpecisXDw8PDw8PDw8PDw8PDw8v0rIrFw8PDw8PDw8PDw8PDw8PL86yKxcPDw8PDw8PDw8PDw8PDy/OsisXDw8PDw8PDw8PDw8PDw7uoZ1UsHh4eHh4eHh4eHh4eHh7e/vn/GEUnQqlLj5QAAAAASUVORK5CYII=;" vertex="1" parent="1">
          <mxGeometry x="250" y="228" width="24" height="24" as="geometry" />
        </mxCell>
        <mxCell id="cDzh0OEQFYnWzeQINuw8-10" value="&lt;font color=&quot;#ffffff&quot;&gt;&lt;b&gt;START ANALYSIS&lt;/b&gt;&lt;/font&gt;" style="rounded=1;whiteSpace=wrap;html=1;fillColor=#66B2FF;strokeColor=#6c8ebf;" vertex="1" parent="1">
          <mxGeometry x="363" y="215" width="130" height="50" as="geometry" />
        </mxCell>
      </root>
    </mxGraphModel>
  </diagram>
</mxfile>
